<svg xmlns="http://www.w3.org/2000/svg" viewBox="0 0 307.9 1189.1" style="enable-background:new 0 0 307.9 1189.1" xml:space="preserve"><path style="fill:#a4a4a4" d="M111.3 763.4c-.4-.8.8-1.5 1.2-.7.2.5.5 1 .4 1.6-.6.8-1.4-.4-1.6-.9zM28 692.2c3 10.8 5.4 22.1 9.3 32.6.2.5.8.3.8-.2-2.2-11-6-21.9-9.1-32.7-.2-.5-1.2-.3-1 .3zm-9.4 60.9c-2.6-2.5-3.7-1.4-1.1 1.1.7.8 1.9-.4 1.1-1.1zm9.6-29.5c1 5.8 3.3 5.2 1-.3-1.9-6.5-3.1-6.2-1 .3zm6.6 227c1.5-17.3-4.4-35.4-12.9-50.2-.3-.6-1.3-.1-.9.5 8.6 15.7 11.5 32.1 12.9 49.7 0 .7.9.7.9 0zm-2.3-61.1c.4.5 1.2-.1.9-.7-17.3-26.6-22.3-22.5-.9.7zM41 726.4c-.7-1.8-3.8-15.8-5-14.3 1.4 4.8 2.7 9.7 4.5 14.4.1.4.6.2.5-.1zm22.3 25.2c1.6-.5-1-3.6-1.4-1.9.1.9.3 2.3 1.4 1.9zm-2.5-26.8c.8-1.2-2.7-14.4-4-10.9 1.5 1.4 2.3 13.3 4 10.9zm-44.4 327.5c2.4 12.8 2.5 25.2 2.5 38.1 0 .4.7.6.8.1 1.7-12.7.3-26-2.2-38.6-.1-.6-1.3-.3-1.1.4zm34.1-321.8c1.2-1.4-4.3-11.5-4.6-8 1.1 1.3 2 2.8 2.7 4.4.6.8.5 4.4 1.9 3.6zM63 789.1c-4.4-9.2-5.4-8.2-1 .7-1.7-.1 3.3 8.2 2.7 5.2.3-2-1-4.1-1.7-5.9zm81.6 261.2c1.4 0 1.7-2.1.3-2.5-8-3.9-13.7-22.1-18.4-30.2-5.1-11.3-8.7-23.1-12.9-34.7-.3-.8-1.7-.7-1.6.2 1.1 13.2 19 65.8 32.6 67.2zm-99.2-116c7.1 11.3 13 23.2 17.5 35.8 4.1 11.5 10.3 27.4 4.9 39.4.1 4.5 4.3-1.7 3.9-3.5 9.8-13.1-25.8-88.1-26.3-71.7zm66 137.9c3.3 9.2 8.3 22.6 15.5 27.6-5.9-8.8-11.1-17.7-14.3-27.9-.2-.7-1.4-.4-1.2.3zm29.1-55.7c-.2-.5-.9-.3-.8.2 4.6 10.8 8.5 24.3 13.7 33.8-4-11.4-8.5-22.7-12.9-34zm-29.1-248c-.1-1-1.2-1-1.3 0-.3 1.1 1.4 1.1 1.3 0zm13.2 300.3c-.1 0-.1.1 0 0 0 .1 0 0 0 0zm-109.2-154c9.2 14.7 11.8 32.1 12.1 49.1 5.9-13.3-2.9-36.5-11-49.8-.4-.7-1.5 0-1.1.7zm101.3 111.9c5.4 14.4 6.3 31.4 7.5 45.5.5-14.7-1.5-33.7-7.5-45.5zm-3.4 5.5c6.9 18.5 4.9 42.8 11.5 59.5-.3-9.9-2.8-20-4.3-29.8-1.6-10.1-3-20.2-6.3-29.9-.2-.6-1-.3-.9.2zm-75-98.6c11.2 24.1 24 49.7 22.8 77 4.9-10.2-1.8-27.4-5.5-38.9-4.6-13.2-10.1-26.1-16.5-38.5-.3-.6-1.1-.1-.8.4zm-11-40.1c3.7 4.4 10.2 9.5 11 15.5.2 1.2 1.9 1.3 1.9 0-1.8-11.8-13.3-20.9-20.8-29.6-7-1.7 6.8 12.4 7.9 14.1zm73.2 24.5c4 4.5 7.9 9.1 11.6 13.9-.7-1.5-7.4-10.4-5.5-10.2 6.7 11.9 15.2 22 25 31.5-4.3-2.1-9-8.3-12.8-12.5 7 9.9 13.3 20.2 18.4 31.1-11.2-14.8-22.9-37.7-37.4-53h-.2c6.9 7.3 8.9 16.6 15.3 24 6.1 8.7 8.9 19 15.1 27.5 9.3 13.2 25.1 21 29.3 37.6.4-8.7-3.1-19.4-4.4-26.4 3.8 9.1 5.9 18.9 5.1 28.7 2 6.8 2.4 13.4-.5 20-.3.7-1.4.3-1.4-.4 1.4-25.9-13.5-33.4-27.3-51.2.3 2.1 5.6 16.8 3.4 15.7-9.3-25.4-18.4-55-43.8-68.8 6 7.3 51.9 85.8 42.3 86.1-7.9-23.4-21.8-43.9-36.5-63.5 3.2 6.2 8.8 12.7 8.6 19.7.5 2.2 3.9 12.3-1.2 8.9-4.8-9.9-8.3-20.8-13.6-30.4-6-12.1-14.6-22.6-22.3-33.6.2-8.5 12.5 9.6 14.1 11.7-.3-1.3-1-2.9-.2-4.1-4.1-2-6.2-11.1 0-9.7 5 5.4 11.3 9.1 17.1 13.6-10-14.6-26.1-22.1-38.9-33.9-2.2 2.5-5.4-2-7.4-3.3 32.3 45.3-28.9-16.1-24.9-43.8-.1-1.8 2.9-2.3 3.2-.4.9 5.4 2.5 10.5 4.5 15.4-1.4-4.4-2.2-8.9-1.7-13 0-.6.6-1 1.1-.9-.4-1.8-6.2-21.3-1.3-17.3 2.3 8.1 5.6 16.1 9.5 23.6-.8-8.3-4.5-16.3-5.8-24.4h.1c4.8-3.9 10.5 26.4 9 30.3 1.6 2.7 3.3 5.3 5.1 7.8.5-.2 1.2 0 1.6.5 12.8 17.2 27.1 33.6 42.7 48.1 1-1 2 1.5 2.8 2 .5 1.1 2.5 1.6 2.2 3.1zm-22.8-17.6c-2.5-3.2-6.2-5.9-8.1-9.5-3.9-3.8-7.4-8-10.7-12.3-8.8-1.7-14.7-13.9-19.1-21.4 7 18.3 22.9 31.4 37.9 43.2zM48 1085.2c-4.7-21.7-11-45.1-24.2-63.1-6-10 6.2 33.1 5.6 35.7 2.3 11.5-5.4 21.9-5.1 33 4.9 5.9 9.6-11.6 10-15 2.7-10.5.3-21.2-3-31.3 5.6 13.5 10.5 27.3 15 41.1.3 1.1 1.9.7 1.7-.4zm12.1-63.8c2.6-17.3-7.7-39.8-17-51.7 9.9 15.6 12.3 33.7 14.8 51.7.2 1.1 2 1.1 2.2 0zm-23.2-51.2c1.9 10.1 3.1 20.2 4.4 30.4.1.5.8.5.8 0 0-2.5-2.7-35.1-5.2-30.4zm8.2-186.5c4 1 4.9 9.2 5.8 7.1 1.5-3.6-6.9-10.8-5.8-7.1zm160.9-530c0-2.1-3.6-1.9-3.7 0 .1 2 3.8 2.1 3.7 0zm-2.7 72.5c-2.3-.7-2.3 3.3 0 2.5.4.2.9.2 1.3 0 2-.6.3-3.3-1.3-2.5zm-.8 7.6c-3.4 1.7 2.1 5 2.4 1.5.1-1.3-1.3-1.9-2.4-1.5zM188.9 251c.1 0 .1-.1 0 0 0-.1 0 0 0 0zm1.2-102.1c2.6 4.8 5.4 2 1.8-1.6 1.4-2.2-2.8-2.3-1.5 0-.5.4-.7 1.1-.3 1.6zM193.8 0c-1.8 19.9-9.3 40.5-17.1 56.1 8.9-10.4 16.1-37 17.6-56.1h-.5zm-2.6 115.3c1.2 0 1.2-1.8 0-1.8s-1.2 1.8 0 1.8zm12.7-4.2c0-.9-1.1-.8-1.7-.8-1.1-.1-1.1 1.8 0 1.7h.2c-.3 1.2 1 1.5 2 1.4 1.9-.1 1.3-2.8-.5-2.3zm-1 21.9c-.4 1.4 2 1.8 2.1.3-.1-1.2-1.7-1.4-2.1-.3zm11-4.8c2 0 2-3 0-3-2-.1-2 3 0 3zm.8-22.9c-2-1.4-2.7 2.1-.5 2.3 1.9.9 1.5-1.5.5-2.3zm-.8 40.7c-1.5 0-1.5 2.3 0 2.3s1.5-2.3 0-2.3zm10.7-102.1c-.5 1.2.9 2.5 1.9 1.5 10.9-12.2 14.8-29.1 13.2-45.4h-3.5c.2 15.2-4.5 30.3-11.6 43.9zm-18.1 282c.6 1.4 2.3 1 2.9-.2 1.7-2.7-4.1-2.4-2.9.2zm4.6-75.2c-1.8 0-1.8 2.8 0 2.8 1.8-.1 1.8-2.8 0-2.8zM227.8 0h-7.2c-1.4 13.5-4.8 26.8-8.6 39.6.3 4.3-17 26.8-9.7 25.9 18.5-16.8 26.2-41.1 25.5-65.5zm-20.4 319.7c-3.7 3.1 3.7 5.8 2.7 1 1.5-2.2-2.5-3.7-2.7-1zm-50.5-304c1.5 12.7.8 25.1-1.2 37.7 3.1-10.3 3.5-27.3 1.2-37.7zM109 766.5c-.9.2-.4 1.2.4 1 1-.1.5-1.4-.4-1zm.1-7.4c-.9-.6-2.3.1-.7.6l.7.2c1.4 1.6 1.4-2.3 0-.8zm-3.5-83.9c-6.7.8 21 19.2 23.6 20.3 6.7 1.2-22.2-18.6-23.6-20.3zm1.9 84.2c.1-.8 1.2-3.6-.3-3.2-.8.6-1.5 5 .3 3.2zm-1.4-12.5c-1.3-1.1-.5 2 0 2.5 1.2.4.1-2 0-2.5zm8.2-44.7c3.7 5.3 6.6 10.9 9.3 16.7.1.3.6.1.5-.2-.5-2.3-8.3-18.7-9.8-16.5zm-6.2 59.8c.1-.4.1-.8.1-1.2-.7-1.2-.9 2-.1 1.2zm.2-9.3c.7-.8 0-3.6-.9-1.9-.1.7-.1 2.7.9 1.9zm-5.5 58.5c3.8 9.8 11.8 3 5.9 21.9-9.2 16.9-17.3 35.6-28.9 50.7 1.3 1.1 14.5 19.9 9.9 18.3-3.8-6.1-8.5-11.8-13.3-17.2-5.9.7-8.5-5.3-11.9-8.6-2.2-3.3.6-5.7 2.1-8.4 5.2-11.2-7.7-21.5 5.8-31.4 2.4-1.7 3.6-2.6 3.6-5.6-1.4-.5-2.4-1.8-2.4-3.2-15.2-7.9 23.5-10.8 2.7-23.4-.1 0-.2-.1-.3-.2-2 2-5.3.6-5.7-2.2-1.5.2-1.9-7.1-.3-2.7 1.3-2.9-3.4-17 1-15.3 4 .1 4.7 3.5 8.4-.8 12.1-4.2 25.3 17.3 23.4 28.1zm-25-8.1c-.3-.3-.5-.6-.8-.9-.1.2-.2.5-.3.7.5.2.8.1 1.1.2zM146 19c.2 4.7-.8 11.1.3 15 0-4.6.8-11.4-.3-15zm-24.8 685.9c3.3 1.6 20.7 29.7 21.1 22.9.8-2.8-22.1-28.8-21.1-22.9zm-11 52.7c1.4 2.8 2.8-1 .8-1.9-1.6-.6-2.1 1.1-.8 1.9zM166 47.8c6-13.2 11.4-28.9 13.2-42.6-2.6 14.5-8.4 29.4-13.2 42.6zm1.8 210.1c-1.2.4-.5 2 .7 1.8 1.6-.2.7-2.6-.7-1.8zm-7.7 473.5c1.2 1.1 2.7-.5 1.7-1.7-28.8-38.6-38.3-28.9-1.7 1.7zm-28.3-22.2c3.1 2.2 32.2 37.2 31.8 29.6-1.1-1.5-35.1-38.7-31.8-29.6zM184.6 114c-1.6.3-1 2.2.4 2 1.7 0 1.2-2.5-.4-2zM78 738.6c1.1.2 3.8 0 2.7-1.7-1.5-1.4-5.8.4-2.7 1.7zm151.1-623.3c-.2-.2-1.1-.9-.9-.2.2.6 1.2 1.2.9.2zm-1.9 5.8c-.7 0-.7 1 0 1 .7.1.7-1 0-1zm1.4 17.8c.6-1.2.1-2.9-1.5-2.7.1-.2.1-.3.2-.5 1.1-2 5-4.4 3.5-6.8 1.9-.2 1.8-3.3-.2-3.3-1.7 0-2.1 2.1-1.1 3-1.5 1.1-8.6 8.5-3.6 8.4-1.2 1.6 1.6 4.4 2.7 1.9zm4.4 122.3c1.6-.6 2-3.4-.2-3.5-.5 0-.9.2-1.1.5-.7 0-1.3.5-1.6 1.1-.4-.1-.8-.1-1.2.1-3.6-.5-2 4.4.9 3 1.2 1.3 2.9.3 3.2-1.2zm-6.6 34.7s0 .1 0 0c.2-1.8-2.1-2-2.8-.5-4 2.4 2.5 4.9 2.8.5zm7.5-45c-.5-.3-1.3-.1-1.5.5-.1 0-.3.1-.4.2-2-.6-1.8 3.1.1 2.3 1.6.8 3.4-2.1 1.8-3zm-1-.1c.4-.2 0 0 0 0zm-5.2-24.8c1.5 1.6 4.1-1.1 2.6-2.6-1.5-1.5-4.1 1.1-2.6 2.6zm.5 7.7c.5 4 5.8-.2 2.1-1.7-1.1-.5-2.6.3-2.1 1.7zm.1 50.5c-1.4 0-1.4 2.2 0 2.2s1.4-2.2 0-2.2zm-.2-15c-.7-.2-1.3.2-1.5.8-.2.8-3.1 2.8-.9 3.3.1.8.8 1.4 1.6 1.4 1.7.3 2.8-2.1 1.2-2.9.3-.4.5-.8.6-1.2 3.9.3.1-5.4-1-1.4zm5.9-155.1c.8-1.4-.8-2.7-2.1-2.2-2.2.7-.6 3.7 1.4 2.8-.6 1-.7 2-.9 3-.1-.1-.2-.1-.3-.3-4.5-1.8-2.8 4.6 1 3.5.5.9 1.6.7 2.3.2-.4.3-.9.8-.9 1.4-3.2.5.6 4.7 1.6 1.8 3.1.1 2.6-5.2-.4-3.4.6-.5.6-1.6-.1-2.1.2-.5 0-1.2-.2-1.7.4-1.2.4-3.4-1.4-3zm-11.2 166.8c.9 0 1.3-1 1-1.7-1.2-2.4-3.5 1.5-1 1.7zm-.6-5 1 1c2.7 2 1.6-1.2.1-2.1-.7-.7-1.8.4-1.1 1.1zm-.3-4.3c1-1-.2-2.9-1.5-2.2-3.9 0-.9 5 1.5 2.2zm-2.4-126.8c-1.7 0-1.7 2.6 0 2.6 1.6 0 1.6-2.6 0-2.6zm13.8 99.3c-1.7 0-1.7 2.6 0 2.6s1.7-2.6 0-2.6zM220.6 96c-1.6 0-1.6 2.5 0 2.5 1.5 0 1.5-2.5 0-2.5zm-1.7 18.1c1 0 1-1.6 0-1.6s-1 1.6 0 1.6zm19.2 118c0-1.8-2.9-1.8-2.8 0 0 .7-.1 1.6.3 2.2 1.4 1.7 2.9-.6 2.5-2.2zm17.2 125.3c2.9-3-16.8-2.5-19.2-3-5.3 3 17.5 3.1 19.2 3zm-9.7-259.7c1.3 1 3.3-.1 3.2-1.7.8-.7.3-2.3-.9-1.8-1.1-.8-2.7-.3-3.2 1-1-.2-1.9.5-1.9 1.5 0 1.4 2 2.1 2.8 1zm-8.9 1.4c1.7 0 1.7-2.6 0-2.6s-1.7 2.6 0 2.6zm4.3-6.9c.1-1.3-2.1-1.3-2 0-.2 1.8 2.2 1.8 2 0zM217 307c-.1 2.1 3.6 3.2 4 .8 1 .1 1.5-1 1.6-1.8.3-1.8-2-1.7-2.5-.3-1.1-1.3-3.2-.3-3.1 1.3zm15-209c.2.6.4 1.4.4 2 0 1.8 2.8 1.8 2.8 0 .6-1.7-2.8-4.5-3.2-2zm-.4 119.8c-1.9 1.2-.5 4.8 1.7 3.1 1.8-1.2.5-4.5-1.7-3.1zm-1.6-109c-1.3 3.6 5.9 3.1 4.1-.2 1.9-1.6-.5-3.6-2.3-2.9-2.2-.9-4.3 2-1.8 3.1zm-7.9 146.7c-.4 1.2 1.5 1.6 1.4.3.3.1.7.1.9-.1 1.5 2.4 3.7-1.8 1.1-2.1.7-2.8-2.8-.2-2.8 1.2-.2 0-.6.3-.6.7zm-.7 6.7c-2.3 2.9 3.2 5.1 1.8 1.3.3-.8 1.9-.7 1.8-1.7 3.9-.9-1.3-5.1-1.3-1.1-.9.3-1.8.7-2.3 1.5zm2.4-153.7c-.6 1.5 0 4.8 1.5 5.5.7 3.4 4.9-.7 1.5-1.5-.5-1.3-1-5.4-3-4zm7.1-14c-1.9-.1-4.2-1.7-5.9-.5-.9 2.5 3.7 2.1 5.2 2.8 1.5.2 2.1-2 .7-2.3zm56-1.3c-.1.3-.2.6-.4.9 8 1.7 15.9-4.4 19.5-11.1.2-.5 1-.1.8.4-2.8 8.9-11.1 13.2-19.6 15.6 2.5 10.1 6.6 20.3 18.3 21.7.9.1 1 1.4 0 1.5-5.4.2-9.9-2-13.5-5.5 5.8 29.1 1.5 15.5-7.4-.9 9.5 52.1 11.3 105.5 1 157.6-6.6 33.4-16.3 47-.9 80.8 3.5 8.4 6.2 17.2 7.8 26.1 5.8 6.9-4.1 22.9-.8 12.3-.3.3-.6.5-1 .8-.1 1.4-.6 2.7-1.7 3.6.4 2.6-5.1 8.3-3 2.7-.5 1.7-4.8 6.2-6.2 4.3-1.3.9-2.6 1.7-4.1 2.4 1.1 2.2-1.9 2.4-3.4 2-6.8 5-12.2 11.7-17.3 18.3-1.2 3.5-3.2 7.1-6.3 8.9-2.9 3.3-4.6 10.2-9.8 10.1-.7.6-1.5 1.2-2.3 1.7-.1 13.8-7.6 25.9-11.7 38.8.1.5.2 1.1.3 1.6 6.8 56-19.3 109-48.8 154.8-4 6.8-7.7 13.7-10.9 20.9-4.1 5.9-5.6 25.4-11.5 26.6.1.7.2 1.4.1 2.2 6.4 4.3 32.3 22.1 31.6 29.3 9.6 6.8 20.4 12.1 27.1 22.2.5.8-.8 1.9-1.4 1.1-5.6-7.1-13.8-11.9-21.2-16.8-8.1-5.3-16.4-10.3-23.9-16.3-1.5-5.1 13.6 6.5 15.5 7.2-8.7-8.6-18.5-15.2-28.1-22.6.6 1.6 4.2 4.5 1.7 5.7 6.4 5 11.8 11.7 18.9 15.8 1.4.6.3 2.5-.9 2.2-10-4.1-17.1-13.7-25.7-20.2 2 4.7 28.6 37.2 22.6 37.5-12.8-12.9-21.5-30.1-32.3-44.6-2.2 6.7-5.2-2.9-6.5-5.4-5.3-7.5-12.2-13.8-18.5-20.4-.8 3.2-4.7.3-6.5-.5 2.6 2.2 20.3 15.6 14.7 18-8.8-5.7-15.6-14.7-24.8-20.2-4 1.2-7.1-3.8-9-6.7-3.5 2.2-7.9-1.7-5.9-5.7 2.5-4.9 7.6-8.8 11.9-12 7.3-5.8 16.3-7.8 24.5-12 7-4.7 15.8-5.4 23.1-8.8 4.1-2.7 4.1-7 3.5-11.1-.7-4.1-5.5-6.8-6.2-11.1-2.9-4.8-.7-13.9-.2-18.5.8-20.9-11.6-40.5-13.6-61.2-6-19.2-3.7-39.7-4.2-59.5-3.3-13.4-8.5-26.4-7.9-40.4-12.4-5.7 8.9-24.5 15.9-27.1.6-.2 1.1.5.8 1-5.7 7-8.4 15.3-11.8 23.4-.8 15 7.1 28.4 10.3 42.7 2.4 12.1 3.1 24.5 5.6 36.6-.1-2.2 0-4.3.1-6.6.2-3.3 4.4-3.7 5.6-.8 3.9 9 9.2 17.4 14 25.9 9.9 18.4 19.8 36.8 32.4 53.5-1.8-22.8-9.4-44.4-15.4-66.2-3-3.8-5.8-7.7-8.3-11.8-1.6-1.7-11.1-10.8-4.2-9.5 12.5 10.3 27.4 18.7 43.9 19.2 1.1-1.7 1.8-3.7 2.1-5.7-7.8-10.8-28.5-15.5-1.3-13.3-2.1-2.1.9-5.9-1-8.6-.8-3.8 3.2-3.5 5.7-3 .2-.2.4-.4.5-.6 2.5-7 9.1-10.9 13-16.7-1.3-2.3 1-4.1 3.1-4.6.6-3.2 4.9-3.3 7.8-3.2.9-.5 1.7-1.1 2.5-1.8-.1-.4-.1-.7-.1-1.1-1.4-.5-2.5-1.9-2.5-4 .1-12.2-4.5-26.6-17-31.4-.7-.3-.4-1.3.3-1.1 12.4 3 23.3 12.3 25.5 25.5h.1c-.6-1.7 1-3.1 2.2-4 5.5-4.3 2.7-12.3 7-17.4 7.8-9.5 17.7-.1 26.4-9.6-20.5-.8-9.7-3.6 2.5-4.4-1-1-1.2-2.7-.6-3.8-1.1-.2-2.2-.3-3.3-.4-1.5-.2-1.6-2.5 0-2.5 1.5 0 2.9 0 4.4-.1-.5-1.5-1.2-2.8-1.9-4.2-7.1.2-10.7-1.4-.9-1.6-.1-.2-.3-.5-.4-.7-14.8 1.4-15.8-1.4-.3-1.4 1.1-1.6 3.6.4 5.2 0-.5-1.5-1.3-2.9-2.2-4.2-2.8 1.7-13.4-.6-4.2-.3-1.1-.3-2.2-.5-3.3-.8-1-.2-.6-1.9.4-1.6 2 .6 3.9 1.2 5.8 2.1.2 0 .5-.1.7-.2-4.8-7.1-13.6-9.3-21.8-9.9-4.9-4.2 10.9-.7 12.1.3 2.7-.3 5.7 1.7 7.9 2.9-2.3-7.5-10.2-9.7-17-11.7-1.4-.4-.8-2.3.6-2.1 1 .2 2.1.4 3.2.6-.9-.7-1.7-1.3-2.6-1.9-13.9.4-27.8 1.1-41.7 1.9-.9 0-1.2-1.5-.2-1.7 11.2-3.1 23.5-.7 34.3-4.5-8.7-6.9-33 3.9-27.2-3.2-3.9.2-7.9.5-11.8 0-3.7 2.2-9.4-1.7-6.3-5.8 5.2-7.1 9.6-14.6 13.3-22.4-.8.8-1.8 1.6-2.7 2.3-.6 2.6-4.6 1.7-4-.9-2.9 1.8-5.2-2.9-1.5-2.7.4-1.7 3-.8 2.3.8v.5c.4-.3.8-.5 1.3-.5.4-.3.9-.7 1.3-1.1-3.6-2.1 1.3-3.8 3.4-3.3.7-.4 1.5-.1 1.8.6 2.5-5.9 4.7-11.9 6.6-18-2.2-.2-1.2-3.3.8-2.6.7-2.4 1.3-4.9 2-7.4-2.1-.1-1.3-3.2.6-2.5.8-3.3 1.5-6.6 2.1-10h-.1c-.3 3.4-4.9.2-1.9-1.4-.1-1 .8-1.6 1.2-2.5-.9-.9-.2-2.5 1-2.5.2-.3.7-.7 1.1-.7.6-3.9 1.2-7.7 1.6-11.6-2 0-2.4-2.8-.7-3.7.4-.2.7-.3 1.1-.2 0-.4.1-.9.1-1.3-2.6-.8-2.9-4.8.4-3.8 0-.5.1-1.1.1-1.6-3.8 2-3.3-5.2.2-2.5.4-4.9.7-9.7.9-14.6-.2-.2-.3-.4-.3-.7-.2.2-.3.3-.6.4.2.8.2 1.8-.5 2.4.8 5.9-8.7-.6-3.2-2.5.1-.5.3-.9.8-1.3-.6-2.6 3.4-2.8 3.8-.5 0-.7.1-1.4.1-2.1-1.3-.6-1.7-2.5-.2-3.1-1.4-.7-.7-2.5.4-3.3v-.7c-1.3-.8-.4-2.5.1-3.6.1-.8-.3-1.5 0-2.3-2.6.5-2.5-3.5 0-3v-4.8c-.2-.1-.4-.3-.6-.5.1 1.8-2.3 2.6-3.5 1.4-1.9-2.1 1.6-4.4 3.1-2.4 0-1-.3-2.5 1-2.9v-.5c-.9-.3-1-1.5-1.6-2.1-3.7-.2-.9-5.7 1.6-3.4v-44.4c-.8-.2-1.2-1-1.3-1.8-2.9-.8-4.7-4.7-2.6-7.1 1.5-1.6 3.5 1.1 2 2.3 0 .3.5.8 1 1.2.3-.1.6-.1.9 0v-2.7c-1 .2-1.8-.7-1.4-1.7 0 .1 0 .1 0 0-.4-.3-.7-.9-.5-1.5-2 1.2-3.5-1.5-2.1-3.1.2-1.4 1.1-2.8 1.9-3.9 0-.7.3-1.3.9-1.6 0-.6.3-1.1.8-1.3.1-.1.2-.3.3-.4 0-.7.3-1.4 1-1.7 0-.2.1-.4.1-.6-.9-1.3-3-1.5-3.3-3.1-1.4-.5-1.2-2.6.2-2.9.2-.7.9-1.1 1.4-1.7-.1 0-.2-.1-.3-.1-.9.3-1.7-.9-1.3-1.7-.1-.1-.1-.3-.2-.4-3 .7-1.2-5.2.9-3.3 1.1-.2 1.7 1 1.5 2 .7-1.7 3-1 3.2.6l.3-.9c-1.1-.8-1-2.3-.6-3.5-.8-1.2 1-2.1 1.8-1.1.1-.1.2-.2.4-.2-.5 0-.9-.4-1.2-.7-.5 1.1-2.2.9-2.6-.2-3.9.3-3.2-2.8.3-2.2-1.7-3.2 1.7-3.4 2.4-.6.5-.4 1.1-.4 1.7-.2.1-1 1.6-1.5 2.3-.8 1.4-2.4 2.9-4.7 4.5-7-1.4-1.4.3-3.9 2-2.8 1.8-2.4 3.5-4.6 5.3-7.2-.7-.5-1.1-1.4-1.1-2.2-1 .8-6.6 8-6.3 4.7 2.2-2.6 4.4-5.2 6.5-7.9-.9-.3-1.8-1-1.8-2.1-.1 0-.2-.1-.3-.1-14.9 16.4-18.1 17.4-1.6-.6-6.2-3.8 10.9-11 12.8-29.7-2.6 7.2-6.1 14.8-11.1 20.3-3.1 2.1-3.3-2.3-2.2-4.3-2.8 4.4-6 8.7-10.4 11.6-7.5 1.8-2.5-7.5-.6-10.5-7.1 4.9 3.8-23.1 2.5-26.7-5.8 20-20.9 40.9-35.9 53.3 17.2-19.8 41.5-43.3 34.6-71.7-1.2 10.1-4.7 19.8-12.8 26.3-.5.4-1.1-.2-.7-.7 7.9-9.6 14.3-21.9 11.1-33.6-.4-1 .7-1.7 1.6-1.5-.1-3.4-.2-6-.1-7.8h1.3c.2 2.5.4 6.1.2 10 5.9 14.8 7.8 31.9 1.6 47 11.5-16.1 15.3-36 14.9-56.2h13.7v1.2c6.7 19.5 6.3 41.8-1 61.1C283 43 281.9 21 281 0h12.2c.6 3.2 1.1 6.4 1.5 9.6 11.2 17.8 26.2 84.5-7.8 83.6zm-47.1 36.3c-.2.4-.5.8-.8 1.2.2.1.5.2.7.3 0-.6 0-1 .1-1.5zm1.8-14.6-.2.2-1.3 1.3c.4-.3.8-.3 1.2-.3.2-.4.2-.8.3-1.2zM137.5 626.2c-1.2.1-2.4.3-3.6.6-12.9 2.8-24 10.4-34.2 18.5 13.4-2.9 30.3-6.6 37.8-19.1zm14 72.7c-2.7-3.5-5.5-6.9-8.2-10.4.7 1.6 1.4 3.3 1.6 5l6.6 5.4zm3.4-134.5c-4.3-12.4-10.2-24.6-14.9-37.1 4.6 18.2 9.9 36.1 14.8 54.2 2.7 10.6 7.2 24.9-1.3 34 .5 3.7.7 7.5 3.2 10.5 4.7-20.6 6.6-41.6-1.8-61.6zm137-182.2c.2.3.4.6.6 1-.1-.5-.3-1-.6-1.5v.5zm-12.6-3.2.9.9h.1c-.1-.5-.3-.9-.4-1.4 0 .3-.2.5-.6.5zm8.3-293.9c5.3-1.7 8.3-6 9.6-12.1 3.3-16.3 3.3-33.3-1.2-49.3-1.2 22.3 7.2 41.5-8.4 61.4zm-5.7-15.2c-.7 1.4-1.6 2.7-2.5 3.9h.5c.7-1.2 1.4-2.5 2-3.9zm8.9-7c-1.4 5.1-3.5 10.7-6.7 15.3v.2c.1-.1.2-.3.3-.4 3-4.7 5.1-9.8 6.4-15.1zm-114.6 192c1.6 0 1.6-2.5 0-2.5-1.6.1-1.6 2.5 0 2.5zM5.8 747.8l-.4-1c-.4-.9-1.8-.1-1.3.8.3 1.1 1.9 2 1.7.2zm-1.1 3.8c1.1.3 1.7-1.3.4-1.5-1.1-.4-1.6 1.4-.4 1.5zm7.2 5.6c1.1 0 1.1-1.6 0-1.6-1 0-1 1.6 0 1.6zM197.8 142c1.5 0 1.9-1.9.9-2.8-2-1.8-3.6 2.7-.9 2.8zm-2.3 203.3c2 1.3 3.7-3.2 4.7-4.2.5-.7.1-1.7-.6-2.1-2-1.3-3.7 3.2-4.7 4.2-.4.6-.1 1.7.6 2.1zM0 1113.6c2.3 6.8 4.1 13.8 5.4 20.9 1.2 2.8.7 26.7 5.7 21.3 3-2.8-7.3-54-11.1-42.2zm16.6 27.4c2.4 4.7 4 9.6 4.5 14.9.5 4.1-.9 8.8 1.5 12.4-.5.1-.9.6-.6 1.3 2.7 6.4 2.5 12.4 2.1 19.1 0 .6.8.6 1 .1 2.4-6.4 1.1-14.1-1.7-20.2 9.9-1.8-4.8-42.7-6.8-27.6zm57.7-450.8c-4.4-10.1-11.1-19-18.7-26.9-.4-.5-1.1.2-.7.7 7.5 8.1 13.3 17.1 18.7 26.6.3.5 1 .1.7-.4zm4.8-28.6c-.6-.1-.6.9 0 .9 8.4 3.1 17.7 23.6 23.7 31.3-1.3-6.2-8.6-14.7-12.6-21.1-2.7-3.7-6-10.6-11.1-11.1zm-26.3 58.3c-.4-.6-.7-1.1-.9-1.3-.2-.3-.6 0-.4.3 2 3 2.6 6.5 3.5 9.8 2.1.1-.3-5.6-2-8.6 2.7 3.8 4.5 7.6 4.7 12.3 0 .5.8.5.8 0-.3-4-2.2-11.1-5.7-12.5zm15.7 29.8c-.8 0-.8 1.3 0 1.3.9 0 .9-1.3 0-1.3zm20.4-12c1.4-.5 3-3 .4-1.9-.4.3-.7.5-1.1.8-.7.4 0 1.6.7 1.1zm-10.2 5c.9-2.4-3.2-3.7-1.7-1.1-4.5.5.4 3.3 1.7 1.1zm13.6 166.1c-1.1-1.1-9.9-17.2-10-12.1 1.3 1.2 9.5 14.8 10 12.1zm-26.6-115c-.9-1.1-4.4-6.8-1.5-6.9-.4-1.8-.7-3.5-.9-5.3 0-.5.8-.8 1-.1 2.1 2.9 6.8 27.1 1.4 12.3zm-.8-4c-.2-.7-.3-1.4-.5-2.1-.1 0-.1-.1-.1-.2-.3.3-.4.5-.1.8.2.5.4 1 .7 1.5zm90.4 171.1c10.8 12.6 16.1 27.4 18.6 43.6 2.1-14-8.3-32.7-18-44.2-.3-.4-.9.2-.6.6zm13.7-6.1c5.2 9.3 8.3 19.5 8.4 30.2 0 .5.8.5.8 0 .3-11-2.3-21.4-8.5-30.6-.3-.3-1 0-.7.4zm-27.8 81.8c6.7 14.1 19.1 26.4 27.3 38.2-2.3-6.4-7.8-11.1-12.1-16.1-6-6.2-10.8-16.1-15.2-22.1zm85.6-273.1c-6.5-3.3-12.7-7.1-18.6-11.2-14.9-14.2-33.3-25.6-48.6-39.7-.8-.8-2.3.2-1.6 1.3 4.5 6.9 10.6 11.9 17.1 16.7 3.7 7.2 12 13 13.8 21-3.3-3.2-15.2-16.9-19.1-13.1-22.8-19.2 24.3 35.1 26.5 38.3 8.3 3-11.1-19.9-12.3-22.2 7.4 7.4 13.7 16.6 17.4 26.5.4 1.1 2.4 1.1 2.2-.3-1.1-10.8-6.4-19.7-13.5-27.8 3-2.6-.5-8.1-2.3-10.9 10.4 10.7 20 22.1 28.3 34.6.3.5 1.2 0 .8-.5-9.2-14.4-20.8-26.9-32.6-39 13.9 9.2 27 19.6 42 26.8.5.3.9-.3.5-.5zM33.4 1118c1 .8 7.3 8.3 7.3 5.8-2.8-2.8-5.5-5.8-8-8.9-.5-1.8-1-8.8-3.6-4.6-1.7-2.4-3.7-4.6-4.1-7.6-.2-.9-1-1.2-1.7-1.1-6.6-11.1-11.3-23.2-13.4-36.3-5.5-2.7 9 35.3 12 37.5 1.7 9.6 4.3 19.3 6.8 28.8-1-2.4-1.9-4.8-2.9-7.2-.8-1.9-3.9-1.1-3.2.9 1.8 4.9 3.5 9.7 5.3 14.6-10.7-10.5-1.9 6.4-.3 10.6 1.3 4.1 2 8.3 2.3 12.6-3.9 3.6 6.4 7.2 5.2-.2 1.1-1.7 1.7-3.4 1.8-5.3 3.7 17.1 8.1 1.7 3.3-6.1-5.3-13.4-9.5-27.1-13.2-41 7.5 14.7 9.4 34.9 22.8 46.6.6.7 1.7-.2 1.2-1-7.2-12.1-14.4-24.3-17.6-38.1zm150.4-339.1c-1.5-1.4-3.1-2.7-4.7-3.8 9.6 10.6 18.2 21.9 24.7 34.6.3.6 1.2.1.9-.5-4.7-8.9-10.9-19.7-18-27.5-.8-.5-1.8-1.6-2.9-2.8zm-1-8.5c2.4 3.2 4.7 6.6 6.4 10.2 0 2.3-1 2.4-2.5 1.2-.9-1-1.9-2-2.9-2.9-4.5-5.2-10.3-14.4-11.6-15.4 5.6 10.7 12 23.2 16.5 33.5-4.9 1.7-6.6-5.8-9.1-8.8-.1 1-.3 2.2-1 3 11.2 9.6 26.3 22.1 18.8 38.2-.3.6-1.2.4-1.3-.2-2.1-12.8-4.9-26.5-16.4-34.2 2 2.2 14.8 21 8.2 19.4-5.4-7.3-9.4-15.5-15.3-22.4.1 1.8 0 3.6-.2 5.3 10.1 13.7 9.3 22.1-1.6 3-1.6-.5-1.2-3.1-2.4-4.3-.1.7-.2 1.5-.5 2.2 6.5 11.8 13.5 23.3 16.7 36.6-.9 7.2-8.8-17.7-10.5-19.1-.6 2.4-2.8.1-3.8-.8 5.3 10.3 8.5 21.7 10.8 32.9.1.6-.7.8-.9.2-3.1-10.2-5.7-20.6-10-30.3.5 1.8.3 5.8-2.3 4.3 1.1 9.6-8.1-10.2-9.6-11.7 4.8 10.2-5-7.1-6.5-9 .6 2.7 12.3 24.2 7.3 22.7-4.8-5.4-6.5-13.1-11.7-18.4 5.6 9.8 7.7 21.5 12.4 31.5 5.6 9.8 12.9 19.5 16.1 30.4-1.9 9.3-13.9-22.2-16.7-24.2 1 2.5 2 5.1 1.7 7.7 5 11.5 11.9 28 10.3 38.7-2.4-11.7-5.7-23-10.3-33.7-1.8 2.1-4.5.5-5.5-1.9-.3.2-.5.3-.8.4.1 2.3-2.1 3.9-4.3 3.2-.3.3-.8.6-1.2.8.1 1.8-.1 5.8-2.7 4.5 6.2 29.1 30.5 51 41.1 78.5-.9 4.4-9.7-13.5-11.2-14.9.2.4.5.9.7 1.3.4.8-.5 1.6-1.2 1.1.7 4.2-1 .4-1.2-1.2-5.2-5.5-9.5-11.8-13.3-18.4-6.6-7.6-13.3-15.1-18.5-23.7-9.4-15.1-3.9-21.1 3.9-2.3-2.5-12.3-9.1-24-16.8-34.1 2.7 8.4 5.2 16.9 6.9 25.5 3.1 7.1 7.4 21.5-2.1 19.9 0 .4-.2.9-.6 1 1 3.1 2.3 6.1 2.2 9.4 5.5-5.8 7.4 29.2 9.7 33.1.9 3.6 2.5 6.5 4 9.8.2 5.8-6.8-.2-8.7-3.5 8.1 18.7 16.1 37.4 25.4 55.5.3.6-.6 1.1-.8.5-9.9-18.9-18.2-38.5-26.3-58.2-5.6 8.2-6.9-10.9-8.1-14.1-2.5-5.2-5.6-10.2-10.2-14.1 0 .1-.1.2-.1.2 1.2 3.2 9.3 7.8 4.2 10.8 3.9 11.7 10 22.7 12.6 34.9-1 2.7-2.5-6.8-3.3-7.7.2 1.6 3.4 13.4.9 11.7-2.6-12-4.7-24.4-14.7-32.5-1.8-2.5-28.4-19.7-21.6-20.4 9.8 8 21.2 15.1 28.7 25.5-1.3-3.8-2.7-7.6-4.1-11.4-6.1-.8-10.1-7.7-10.3-13.6-4.2-8.7-7.5-18-10.8-26.8-.6-1.7 2.1-2.4 2.7-.8 1 2.7 2.2 5.3 3.3 8 .1-1.7-.4-4.1.8-5.5-3.1-4.9-5.6-10.3-8.4-15.3-1-1.8 1.8-3.4 2.8-1.6 1.3 2.4 2.7 4.8 4.1 7.2-1.3-2.5-6-9.4-1.2-10 1.5.5 2.7 1.6 3.7 2.9-11.4-24.8 13.9 12.8 14.6 18.7 1 2.7 2.9 7.1 4.8 11.9-1.8-6-2.1-14.9-3.3-17.9-4-13-13.4-23.8-15-37.5-.1-1.6 2.4-1.9 2.8-.4.3 1.4.8 2.7 1.2 4 .2-1.6 2.8-3 3.7-1 4.7 6.2 10.2 12.1 13.6 19.3-5.7-30.4-10.7-19.5-19-39.9-.3-.8.9-1.3 1.3-.5 8.9 10.9 21.6 18.9 28.8 31.6-.1-.5-.2-1.1-.3-1.6-2.1-2.1-7.8-8.9-2.8-10.6-.1-.7 0-1.3.3-1.8-1.1-3.6-2.5-7-4-10.5-.7-1.5 1.5-2.9 2.3-1.3 1.3 2.4 2.4 4.8 3.5 7.3.1-.3.3-.6.6-.9-.7-2.3-3.6-5.6-1-7.5-4.8-5.5-6.5-14-10-20.6-2 4.5-5.3 8.4-9.6 10.7-.7 2.3 4.2 7.2.3 8.1-7.1-.4-7.9-13-6.6-18.2 2.4-7.1 10.1-9.5 11.5-17.5-.8-3.3 0-6.4.6-9.6-2.1-3.6.8-7.9 3-10.7 3.4-7.3-.1-16-1.6-23.4-.2-.7.2-1.2.8-1.4l-2.4-3.9c-1-1.5 1.4-2.8 2.3-1.4 9.4 14.1 17.4 32.9 15.9 50.2-.1 1-1.7 1.4-1.9.3-2.1-13.8-4.3-27.9-11.2-40.3 2.2 8.8 5.2 18.1 2.1 27.2.7 3 1.1 6.1 1.6 9.2 1.7.9 2.5 3.3 3.8 4.8 3.1-.5 5.9 7.1 8.1 9.3-.4-1.9-5.1-13.6-.2-9.6.7 3 3 5.2 4.5 7.9.3-.4.7-.6 1.1-.6-1.3-1.9-2.6-3.8-4-5.7-1.4-2.5 1.8-4.2 3.6-2.8-1.2-1.6-2.3-3.2-3.5-4.8-1.2-1.6 1.4-3.6 2.8-2.1 3.3 3.7 6.5 7.4 9.6 11.2-3.3-6.9-6.8-13.6-10.4-20.4.4-7.2 8.7 10.9 10 12.3-.6-2.6-1.1-5.2-1.4-7.9-.2-1.8-7-13.4-2.8-12-3.6-11.1-5.7-18.7-15.4-26.3-1.3-7.4 15.7 11.7 16.5 13.6-.5-2-12.8-16.6-6.3-14.3 2.2 2.8 4.5 5.6 6.6 8.5-.1-1.2-.6-3.4 1.1-3.7-1-1.5-14.6-17.3-8.4-13.9 3.9 2.2 7.5 6.6 11 9.9 11.8 8.4 20.5 20.9 30.4 31.4 2.8 3.3 5.6 7.9 10 9.1 1.4.4 1.1 2.5-.3 2.5-9.6.1-14.7-10.1-21.1-15.8zm-49.9 19.2c-.2-1.6-.3-3.2-.2-4.8-.5.3-1.1.4-1.6.4-.1.2-.1.5-.2.7.9 1.1 1.6 2.3 2 3.7zm-12.9 118c-2.6-4.8-4.1-13.9-5.6-16.3-.2.2-.5.4-.8.4.9 3.5 1.8 6.9 3.3 10.2.7 1.8 2.1 3.7 3.1 5.7zm8 13.2c-.4-1.6-7.1-10.3-2.8-9.1l1 1c-.3-1-.7-1.9-1-2.9-2.1 1.7-3.7.4-5.1-2.1 1 2 1.7 4.1 1.2 6 2.4 2.2 4.6 4.6 6.7 7.1zm3-17.6c2.8 7.3 4.9 15 3.1 18.6.1 1.9 1.3 4.5 0 6.1 1.3 1.8 2.5 3.6 3.5 5.7-1.3-8.9-4-18.3-2-27.2-2.1.3-3.5-1-4.6-3.2zm18.1-26.1c.9 4.6-.1 9.9 2.5 13.9-.4-.9-.2-2.1.9-1.2 4.8 8.4 10.6 16.2 16.3 24.1-.7-1.3-1.5-2.6-2.3-3.8-.3-.5-.2-1 .1-1.3-5.6-10.8-12.2-21-17.5-31.7zm-14.2-73.5c2.2.7 3.1 3.7 4.6 5.4-.1-.2-.2-.5-.3-.7-1.8-2.3-3-5.1-4-7.9-.1 1.2-.2 2.3-.3 3.2zm9.4 27.2c-1-2.7-3.2-5.3-3.6-8.2-1.1-.7 0-2.5.9-1.3.3-.2.7-.4 1.1-.4-2.7-4.7-5.6-9.3-8.6-13.8-.2.7-.4 1.3-.7 2 3.2 7.2 8 14.3 9.8 21.8.4-.1.7-.2 1.1-.1zm.7 42c-.5-1.8-1.2-3.5-2.3-5 .8 1.7 1.6 3.3 2.3 5zm1.9-58.3c-2.1-5.2-4.4-10.2-6.8-15.2 1.2 3.2 2.7 6.4 3.1 9.7 1.2 1.9 2.5 3.7 3.7 5.5zm17.5-22.3c-.1-.6-.1-1.3-.2-1.9-.4.1-.8.1-1-.2l1.2 2.1zm4.3-37c-.6-.8-1.2-1.5-2-2 .5.9 1 1.8 1.5 2.6.1-.2.3-.5.5-.6zm4 24.5c.2.5.3 1.1.5 1.6.8 2.2 1.6 4.5 2.4 6.7-.7-2.8-1.6-5.6-2.9-8.3zm-37.3 270.4c6.6 10.9 12.7 21.9 17.3 33.7.2.5.9.3.7-.2-4.5-11-10.1-26.4-18-33.5zm-81.7 91.7c5.1 13.2 4.9 27.3 6.3 41.2 5.6 4.8 2.9-17.6 2.2-20.2-.1-2.2-6.1-29.1-8.5-21zm-23.4-121.7c10.2 16.5 15.8 34.6 19.9 53.4.2.8 1.4.6 1.4-.2-1.1-19.4-8.6-38.2-18.9-54.6-.9-1.6-3.4-.2-2.4 1.4zM66.6 1138c1.3 1.3 2.5 10.2 3.7 17.5-2.7-10.2-7.6-20-13-28.7-1.1-1.7-3.8-.2-2.7 1.6 8.5 15.7 18.4 41 9.2 57.8-.4.7.1 1.5.9 1.5 4.1.1 6.5-4.2 7.4-7.7.9-5.7.7-11.3-.1-17 .6 2.1 1.3 2.8 1.9 1.3 1.3-2.3-3.9-35.1-7.3-26.3zm41.9-89.2c-1.9.1-1.1 3 .6 2.1 1.4-.4.5-3.7-.6-2.1zm26.7 81.6c-10.7-14.2-18.5-35.3-27.6-47.7 6.8 15.8 16.7 37.5 27.6 47.7zm-9.8 3.9c-7.8 5.3-19.4-10.9-25.3-15.5-8.2-8.6-16.2-18.8-19.4-30.4-.2-.6.7-1 1-.4.1.3.3.6.4.9-5.7-18.6-11.5-37.7-23.7-53.3-1-1.3.8-3.1 1.8-1.8 8.5 10.5 15.2 22.3 20 34.9-2.2-15.7-4-31.5-6.6-47.2-.6-3.4 4.6-4.9 5.3-1.5.7 5.4 3.2 10.2 4.7 15.3-.7-8.8-.6-17.8.3-26.5-.9-4.4-12.7-25.3-9.6-26.6-6.1-19.8-15-38.6-25.5-56.5-1.3-2.3-4.5-10.1-7.6-9.9-.9.1-1-1.2-.2-1.5 7.7-3.8 25.3 34.9 28.9 41.6.1-2 2.1-3.6 3.8-2.3-.2-3.1-2.6-8.3.2-10.4-7.7-8.6-17.3-17.9-19.7-29.3-2.2-2.8-4.2-5.9-6.1-8.9 13.4 34.1-14.5-21.3-20-26.1-1-1.4.7-2.7 2-2.2-.5-.7-1-1.4-1.4-2.1-.9-1.3 1.2-2.6 2.2-1.3 4.5 6.6 8.5 13.3 11.5 20.7 0 .1.1.1.1.2.3-.3.9-.3 1.2.1 4.4 6.2 9.2 12.4 14.2 18.2 10.2 11.7 24.7 21.6 28.1 37.6 6.7 7.8 13.2 17 13.9 27.2.1 1.1-1.2 1.3-1.9.7 9.7 12.5 18.5 29.3 12.8 45.2 1.1 1.9 3.2 18.8-.5 15.1-.9-14.1-4.7-27.6-13.1-39.2 1.3 5.8 11.3 29.9 2.8 31.4 2.3 9.3 4.2 18.9 4.9 28.2.1.7-1 .8-1.2.2-6.8-17.6-8.8-37-14.7-54.9-.5-.1-1-.2-1.4-.5.2 12.1 8.9 23 5.9 35.4-.1.6-1 .4-1-.1 0-6.4-1.5-12.3-3.6-18.1.7 22.4 3.1 45.4 13.5 65.5-.1-1.7-4.8-13.5-1.7-11 2.5 9 5 18 9.1 26.5 3.8 7.8 8.8 14.1 14.7 20.4.4.4-.1 1.1-.6.8-10.2-6.6-15.7-18.3-19.6-30.2-6.1-4.4-9.3-13.6-12.7-20.4 1.4 8.4 5.4 15.6 8.9 23.1-.6 6-9.9-7.8-10.2-10.3 0 3.6.7 8.3-2.1 10.7.1 1.7 1 3.7.4 5.2 3.9 6.8 28.1 37.8 36.1 32.1.8-.3 1.3.7.7 1.2zM94 999.7c-.1 2.2 1 5.3-.8 6.9.9 2.7 1.8 5.4 2.6 8.1 1.1 3.8 2.2 7.7 3.2 11.6.4.2.9.4.8.4-.2-8.6-3.3-18.4-5.8-27zM84.2 964c2.8 7.9 6.2 15.4 8.2 23.7 4.4 12 13.9 21 17.6 33.4 2.8-22.7-12.3-40.5-25.8-57.1zm-5-21.3c-.1-.3-.3-.5-.4-.8-4.7-8.9-12.9-14.8-19.5-22 5.5 8.4 13 15.5 19.9 22.8zm-1 4.8c2.9 12.2 12.6 20.3 19.6 30.3l-.1-.1c-2.7-7.3-5.8-14.2-10.7-20.3.3 1.3-.1 5.5-1.9 3-.7-5.3-2.8-9.6-6.9-12.9zm2.7 34.4c-.5-1.2-1-2.4-1.6-3.6.4.9.7 1.8 1 2.8.2.2.4.5.6.8zm4.4 17.9c-.3-4-.6-7.9-2.8-11.3.2 2.7 1.6 6.3-.3 8.3.9 1.9 1.7 3.9 2.6 5.8.1-.8.2-1.7.4-2.5-.1 0 0-.2.1-.3zm-11.4 80.6c.5-3.1-10.6-44.3-13.6-35.2 7.5 18.5 10.5 38.7 9.5 58.5-4.5-.8-2.1 5-.3 6.6.7 2-1 6.5 1.7 7.1 3.4 13.4 6.3 26.9 6 40.7.2 1.4 2 2.2 2.8.8 5.7-13.3-1.5-28.7-4.7-41.9 6.8 8.3 12.3 18 12.4 28.9 0 1.1 1.6 1.1 1.7 0 1.5-14.6-5.9-27.9-14.8-38.8 1.4-8.7.4-18.5-.7-26.7z"/></svg>