<?xml version="1.0" encoding="utf-8"?>
<!-- Generator: Adobe Illustrator 26.4.0, SVG Export Plug-In . SVG Version: 6.00 Build 0)  -->
<svg version="1.1" id="Layer_1" xmlns="http://www.w3.org/2000/svg" xmlns:xlink="http://www.w3.org/1999/xlink" x="0px" y="0px"
	 viewBox="0 0 512 512" style="enable-background:new 0 0 512 512;" xml:space="preserve">
<style type="text/css">
	.st0{fill:#0C0C0B;}
	.st1{fill:#FFFFFF;}
	.st2{fill:none;stroke:url(#SVGID_1_);stroke-miterlimit:10;}
</style>
<g>
	<path class="st0" d="M629,654H-117c-13.8,0-25-11.2-25-25V-117c0-13.8,11.2-25,25-25H629c13.8,0,25,11.2,25,25V629
		C654,642.8,642.8,654,629,654z"/>
	<g>
		<path class="st1" d="M227.2,173.9c-3.3,1.1-5.8,2-7.5,2.6c1.2-6.9,3.2-13.5,3.1-20.1c0-2.5-4.9-5-7.6-7.5
			c-1.3,3.1-2.5,6.3-4.4,10.9c-6.3-0.1-8.4-5.5-7.7-12.3c0.8-6.9,3-13.6,3.7-20.5c0.3-3.1-1.6-6.5-3.4-12.8c0.8-2,10.7-6.6-0.7-12.3
			c-1.3-0.6-2-5.3-1-7.1c6.6-11.8,13.3-23.6,21-34.6c1.7-2.4,7.9-2.6,12-2.4c11.8,0.3,23.5,1.3,36.1,2.1c-1.1,3.1-2,5.6-3.1,8.8
			c11.8,2.8,23.4,6.2,35.2,8c10,1.5,15.9,5.8,14.3,16.1c-1.7,11.2-10,10.4-18.5,8.3c-1.2-0.3-2.8,0.8-5.6,1.6
			c4.8,3.9,8.7,6.6,12.1,9.9c2.4,2.3,4.3,5.2,6.4,7.9c-3.4,1.7-6.8,3.5-10.2,5.1c-1.1,0.5-2.4,0.6-5.3,4.2c4.6,2.5,9.1,5.5,13.9,7.5
			c6.9,2.9,17.3,2.1,12.5,14.9c-0.5,1.4,1.2,4.6,2.8,5.7c1.5,1.1,4.8,1.6,6.2,0.7c15.7-10.3,31.5-20.4,46.5-31.7
			c11.7-8.8,25.1-9.9,33.4,0c-3.5,0.4-6.5,0.7-13.5,1.5c6.6,3.8,10.6,6.1,14.5,8.3c-0.6,0.9-1.3,1.9-1.9,2.8c-5.4,0-10.8,0-19.1,0
			c6.6,3.4,10.9,5.6,15.1,7.7c-33.5,1.3-47.2,35.2-76.3,41c2.9,3.2,6.3,5.3,6.2,7c-0.7,7.4,0,16.9-4.2,21.7
			c-17,19.2-25.4,45.7-51.8,57.2c-14,6.1-18.4,20.7-22.1,35.2c-6.8,27.2-16.2,53.7-41.6,69.6c-9.6,6-12.4,13.5-12.7,23.7
			c-0.3,13.8-2.3,28,18.4,28.5c-0.7,4.2-1.2,7.3-1.6,10.1c-6.3,0-12.2,0-19.1,0c-0.2,2.3-0.4,5.4-0.6,7.9
			c-30.2-14.8-17.1-42.9-19.8-65.6c-0.9-7.7,10.2-16.6,15.3-25.2c1.6-2.6,3.1-6.5,2.4-9.1c-6.4-22.5-3.6-43.9,5.5-65.5
			c-3.9,6.6-7.3,13.4-11.8,19.6c-3.4,4.7-7.4,10.1-12.4,12.2c-44.5,18.5-86.7-12.7-80-60.2c2.2-15.6,9.1-31.5,17.4-45.1
			c9.5-15.5,24.4-17.1,41.4-11.1c9.8,3.5,18.6,6.4,22.7,17.3c0.9,2.5,6.3,3.3,9.9,5c-1.1,3.1-2.6,7.7-4.1,12.3
			c-2.2-0.6-4.5-1.3-6.9-1.9c-0.3,1.9-1.5,4.7-0.6,5.7c6.6,8.1-1.3,12.6-4.7,17.4c-3.8,5.4-9.9,9-14.2,14.1c-2.6,3-3.5,7.4-5.7,12.2
			c5.4,0,8.1,0,10.9,0c-0.9,2.6-1.8,5.2-2.7,7.7c-2.8-1-6.4-1.2-8.1-3.2c-6.5-7.7-3.7-16.8,3.8-24.3c5.4-5.4,8.1-13.4,11.9-20.2
			c-1-0.6-2.1-1.2-3.1-1.7c-1.8,0.5-3.7,1-5.3,1.4c-0.6-5-1.1-10.1-1.8-16.1c2-1.5,5.6-4.1,9-6.6c-10.2-21.6-31.8-24.7-46.8-6.9
			c-16.4,19.4-20.9,42.2-16.9,66.5c3.1,19.3,22,34.3,42.6,35.8c19.3,1.4,37.7-10.2,43.7-31.8c5.1-18.4,15.9-31.2,30.2-42.2
			c10.9-8.4,16.5-19.3,14.5-33c-0.8-5.4-2.6-14.1-5.9-15.2C218.7,187.5,227,180.3,227.2,173.9z"/>
		<path class="st1" d="M260.2,315.7c4.4-10.4,1.9-23.9,17.8-23.5c-1.5-14.2,3.5-18.3,23.7-19.7c12.1-0.8,20,5.4,19.5,17.7
			c-0.5,11.2-3.6,22.3-5.9,33.3c-1,4.8-2.8,9.5-4.3,14.5c26.1,13.2,46.7-12.9,73-8.1c-7.5,9.9-11.9,20.2-24.7,22.6
			c-2.9,0.6-5.1,4.3-7.8,6.3c-2.3,1.7-4.8,4.3-7.3,4.4c-12.8,0.5-25.7,0-38.6,0.6c-5.9,0.2-10.1-9.7-16.9-2.6
			c-1.6-3.9-4.4-7.7-4.4-11.6c-0.1-9.2,1-18.5,1.6-27.2C276.2,319.9,268.9,318,260.2,315.7z"/>
		<path class="st1" d="M365.3,221.7c8.8-11,15.9-19.8,23.7-29.5c9.8,19.7-1.4,34.2-5.4,49.3c-2.3,8.6-17.1,12.4-25.3,8.3
			c-0.7-0.4-1.3-1-2-1.5c-8-5.2-16.1-10.4-24-15.5c2.8-8.1,5.4-15.4,8.3-23.6c4.3,2.6,8.4,5.4,12.7,7.6
			C357.6,219,362.3,220.5,365.3,221.7z"/>
	</g>
	<linearGradient id="SVGID_1_" gradientUnits="userSpaceOnUse" x1="23.3854" y1="372.7591" x2="490.4217" y2="372.7591">
		<stop  offset="0" style="stop-color:#FF6A66;stop-opacity:0"/>
		<stop  offset="0.5" style="stop-color:#FF6A66"/>
		<stop  offset="1" style="stop-color:#FF6A66;stop-opacity:0"/>
	</linearGradient>
	<path class="st2" d="M489.9,256c0,128.7-104.3,233-233,233s-233-104.3-233-233"/>
</g>
</svg>
