<?xml version="1.0" encoding="utf-8"?>
<!-- Generator: Adobe Illustrator 26.4.1, SVG Export Plug-In . SVG Version: 6.00 Build 0)  -->
<svg version="1.1" id="Layer_1" xmlns="http://www.w3.org/2000/svg" xmlns:xlink="http://www.w3.org/1999/xlink" x="0px" y="0px"
	 viewBox="0 0 375 180" style="enable-background:new 0 0 375 180;" xml:space="preserve">
<style type="text/css">
	.st0{fill:none;}
	.st1{fill:#FFFFFF;}
	.st2{fill:url(#SVGID_1_);}
	.st3{fill:url(#SVGID_00000137131274942041212880000004391543567353407366_);}
	.st4{fill:url(#SVGID_00000135649550132335998130000015346169252876829368_);}
</style>
<g>
	<ellipse class="st0" cx="187" cy="38.7" rx="80.3" ry="28.2"/>
	<path class="st1" d="M106.4,89.3c0,0.9-0.7,1.5-1.5,1.5c-0.9,0-1.5-0.7-1.5-1.5c0-0.9,0.7-1.5,1.5-1.5
		C105.7,87.8,106.4,88.4,106.4,89.3z M121.6,93.3c-0.9,0-1.5,0.7-1.5,1.5s0.7,1.5,1.5,1.5s1.5-0.7,1.5-1.5S122.5,93.3,121.6,93.3z
		 M116.1,87.8c-0.9,0-1.5,0.7-1.5,1.5c0,0.9,0.7,1.5,1.5,1.5s1.5-0.7,1.5-1.5C117.6,88.4,116.9,87.8,116.1,87.8z M127.2,98.9
		c-0.7,0-1.3,0.5-1.5,1.2c1,0.3,2,0.7,2.9,1c0.1-0.2,0.1-0.4,0.1-0.6C128.8,99.6,128.1,98.9,127.2,98.9z M110.5,87.8
		c-0.9,0-1.5,0.7-1.5,1.5c0,0.9,0.7,1.5,1.5,1.5s1.5-0.7,1.5-1.5C112,88.4,111.3,87.8,110.5,87.8z M110.5,93.3
		c-0.9,0-1.5,0.7-1.5,1.5c0,0.2,0,0.4,0.1,0.6c0.9,0.1,1.8,0.2,2.6,0.4c0.2-0.3,0.3-0.6,0.3-1C112,94,111.3,93.3,110.5,93.3z
		 M110.5,85.3c0.6,0,1-0.3,1.3-0.7c-0.9-0.4-1.9-0.8-2.8-1.2c0,0.1-0.1,0.3-0.1,0.4C108.9,84.6,109.6,85.3,110.5,85.3z M116.1,93.3
		c-0.9,0-1.5,0.7-1.5,1.5s0.7,1.5,1.5,1.5s1.5-0.7,1.5-1.5S116.9,93.3,116.1,93.3z M127.2,93.3c-0.9,0-1.5,0.7-1.5,1.5
		s0.7,1.5,1.5,1.5c0.9,0,1.5-0.7,1.5-1.5S128.1,93.3,127.2,93.3z M121.6,90.8c0.6,0,1.1-0.4,1.4-0.9c-0.9-0.5-1.8-0.9-2.8-1.4
		c-0.1,0.2-0.2,0.5-0.2,0.7C120.1,90.2,120.8,90.8,121.6,90.8z M88.1,96.4c0.9,0,1.5-0.7,1.5-1.5s-0.7-1.5-1.5-1.5
		c-0.9,0-1.5,0.7-1.5,1.5S87.3,96.4,88.1,96.4z M60.2,96.4c0.9,0,1.5-0.7,1.5-1.5s-0.7-1.5-1.5-1.5c-0.9,0-1.5,0.7-1.5,1.5
		S59.3,96.4,60.2,96.4z M60.2,107.6c0.9,0,1.5-0.7,1.5-1.5c0-0.9-0.7-1.5-1.5-1.5c-0.9,0-1.5,0.7-1.5,1.5
		C58.6,106.9,59.3,107.6,60.2,107.6z M60.2,90.8c0.9,0,1.5-0.7,1.5-1.5c0-0.9-0.7-1.5-1.5-1.5c-0.9,0-1.5,0.7-1.5,1.5
		C58.6,90.2,59.3,90.8,60.2,90.8z M65.8,82.2c-0.9,0-1.5,0.7-1.5,1.5s0.7,1.5,1.5,1.5c0.9,0,1.5-0.7,1.5-1.5S66.6,82.2,65.8,82.2z
		 M88.1,85.3c0.9,0,1.5-0.7,1.5-1.5s-0.7-1.5-1.5-1.5c-0.9,0-1.5,0.7-1.5,1.5S87.3,85.3,88.1,85.3z M88.1,90.8
		c0.9,0,1.5-0.7,1.5-1.5c0-0.9-0.7-1.5-1.5-1.5c-0.9,0-1.5,0.7-1.5,1.5C86.6,90.2,87.3,90.8,88.1,90.8z M230,104.5
		c-0.7,0-1.4,0.5-1.5,1.2c0.9-0.2,1.8-0.4,2.7-0.6C230.9,104.7,230.4,104.5,230,104.5z M60.2,102c0.9,0,1.5-0.7,1.5-1.5
		s-0.7-1.5-1.5-1.5c-0.9,0-1.5,0.7-1.5,1.5S59.3,102,60.2,102z M148,106.1c0,0.1,0,0.2,0,0.2c1,0.2,1.9,0.4,2.8,0.6
		c0.1-0.2,0.2-0.5,0.2-0.8c0-0.9-0.7-1.5-1.5-1.5S148,105.2,148,106.1z M104.9,93.3c-0.9,0-1.5,0.7-1.5,1.5c0,0.1,0,0.2,0,0.3
		c1,0,2,0,3,0.1c0-0.1,0.1-0.3,0.1-0.4C106.4,94,105.7,93.3,104.9,93.3z M155.2,107.6c0.8,0,1.5-0.6,1.5-1.4
		c-0.9-0.4-1.8-0.7-2.8-1.1c-0.2,0.3-0.3,0.6-0.3,0.9C153.6,106.9,154.3,107.6,155.2,107.6z M144,104.5c-0.5,0-0.9,0.2-1.2,0.6
		c0.9,0.2,1.8,0.4,2.7,0.6C145.3,105,144.7,104.5,144,104.5z M134.4,100.5c0-0.9-0.7-1.5-1.5-1.5c-0.9,0-1.5,0.7-1.5,1.5
		s0.7,1.5,1.5,1.5C133.7,102,134.4,101.3,134.4,100.5z M136.9,100.5c0,0.9,0.7,1.5,1.5,1.5c0.9,0,1.5-0.7,1.5-1.5s-0.7-1.5-1.5-1.5
		C137.5,98.9,136.9,99.6,136.9,100.5z M218.8,107.6c0.9,0,1.5-0.7,1.5-1.5c0-0.4-0.1-0.7-0.3-1c-0.9,0.4-1.8,0.7-2.7,1.1
		C217.3,107,218,107.6,218.8,107.6z M230,102c0.9,0,1.5-0.7,1.5-1.5c0-0.2,0-0.4-0.1-0.5c-0.9,0.4-1.8,0.9-2.8,1.3
		C228.9,101.7,229.4,102,230,102z M160.1,107.5c0.1,0,0.2,0.1,0.2,0.1C160.2,107.5,160.2,107.5,160.1,107.5z M144,102
		c0.6,0,1-0.3,1.3-0.7c-0.9-0.4-1.8-0.9-2.8-1.3c-0.1,0.2-0.1,0.3-0.1,0.5C142.4,101.3,143.1,102,144,102z M93.3,96.4
		c0.5-0.1,0.9-0.2,1.4-0.3c0.3-0.3,0.6-0.7,0.6-1.2c0-0.9-0.7-1.5-1.5-1.5c-0.9,0-1.5,0.7-1.5,1.5C92.2,95.6,92.6,96.2,93.3,96.4z
		 M99.3,82.2c-0.9,0-1.5,0.7-1.5,1.5s0.7,1.5,1.5,1.5c0.9,0,1.5-0.7,1.5-1.5S100.1,82.2,99.3,82.2z M99.3,93.3
		c-0.9,0-1.5,0.7-1.5,1.5c0,0.3,0.1,0.5,0.2,0.7c0.9-0.1,1.9-0.2,2.9-0.3c0-0.1,0.1-0.3,0.1-0.4C100.8,94,100.1,93.3,99.3,93.3z
		 M104.9,82.2c-0.9,0-1.5,0.7-1.5,1.5s0.7,1.5,1.5,1.5c0.9,0,1.5-0.7,1.5-1.5S105.7,82.2,104.9,82.2z M99.3,87.8
		c-0.9,0-1.5,0.7-1.5,1.5c0,0.9,0.7,1.5,1.5,1.5c0.9,0,1.5-0.7,1.5-1.5C100.8,88.4,100.1,87.8,99.3,87.8z M93.7,82.2
		c-0.9,0-1.5,0.7-1.5,1.5s0.7,1.5,1.5,1.5c0.9,0,1.5-0.7,1.5-1.5S94.6,82.2,93.7,82.2z M93.7,79.7c0.7,0,1.2-0.4,1.5-1
		c-1-0.2-2-0.5-3-0.6c0,0,0,0.1,0,0.1C92.2,79,92.8,79.7,93.7,79.7z M93.7,87.8c-0.9,0-1.5,0.7-1.5,1.5c0,0.9,0.7,1.5,1.5,1.5
		c0.9,0,1.5-0.7,1.5-1.5C95.3,88.4,94.6,87.8,93.7,87.8z M60.2,113.2c0.9,0,1.5-0.7,1.5-1.5s-0.7-1.5-1.5-1.5
		c-0.9,0-1.5,0.7-1.5,1.5S59.3,113.2,60.2,113.2z M49,110.1c-0.9,0-1.5,0.7-1.5,1.5s0.7,1.5,1.5,1.5c0.9,0,1.5-0.7,1.5-1.5
		S49.9,110.1,49,110.1z M49,115.7c-0.9,0-1.5,0.7-1.5,1.5s0.7,1.5,1.5,1.5c0.9,0,1.5-0.7,1.5-1.5S49.9,115.7,49,115.7z M45,117.2
		c0-0.2-0.1-0.5-0.2-0.7c-0.1,0.6-0.3,1.2-0.4,1.9C44.7,118.1,45,117.7,45,117.2z M47.5,128.4c0,0.5,0.2,0.9,0.6,1.2
		c0.5-0.9,1.1-1.7,1.6-2.6c-0.2-0.1-0.4-0.2-0.7-0.2C48.2,126.9,47.5,127.6,47.5,128.4z M43.4,135.5c0.9,0,1.5-0.7,1.5-1.5
		c0-0.9-0.7-1.5-1.5-1.5c-0.7,0-1.3,0.5-1.5,1.1c0,0.2,0,0.3-0.1,0.5C41.9,134.9,42.6,135.5,43.4,135.5z M50.6,122.8
		c0-0.9-0.7-1.5-1.5-1.5c-0.9,0-1.5,0.7-1.5,1.5s0.7,1.5,1.5,1.5C49.9,124.4,50.6,123.7,50.6,122.8z M41.9,139.6
		c0,0.6,0.3,1.1,0.8,1.4c0.3-1,0.7-1.9,1.1-2.9c-0.1,0-0.2-0.1-0.4-0.1C42.6,138,41.9,138.7,41.9,139.6z M43.8,121.3
		c-0.2,1-0.4,2-0.5,3c0.1,0,0.1,0,0.2,0c0.9,0,1.5-0.7,1.5-1.5C45,122.1,44.5,121.5,43.8,121.3z M43.4,126.9c-0.2,0-0.4,0-0.6,0.1
		c-0.1,0.9-0.3,1.8-0.4,2.6c0.3,0.2,0.6,0.3,1,0.3c0.9,0,1.5-0.7,1.5-1.5C45,127.6,44.3,126.9,43.4,126.9z M53.2,122.1
		c0.1-0.2,0.3-0.4,0.4-0.5C53.5,121.8,53.3,121.9,53.2,122.1z M54.6,110.1c-0.9,0-1.5,0.7-1.5,1.5s0.7,1.5,1.5,1.5
		c0.9,0,1.5-0.7,1.5-1.5S55.4,110.1,54.6,110.1z M54.6,104.5c-0.9,0-1.5,0.7-1.5,1.5c0,0.9,0.7,1.5,1.5,1.5c0.9,0,1.5-0.7,1.5-1.5
		C56.1,105.2,55.4,104.5,54.6,104.5z M49,107.6c0.9,0,1.5-0.7,1.5-1.5c0-0.9-0.7-1.5-1.5-1.5c-0.3,0-0.6,0.1-0.8,0.3
		c-0.2,0.6-0.4,1.2-0.6,1.8C47.8,107.2,48.3,107.6,49,107.6z M56.1,117.2c0-0.9-0.7-1.5-1.5-1.5c-0.9,0-1.5,0.7-1.5,1.5
		s0.7,1.5,1.5,1.5C55.4,118.8,56.1,118.1,56.1,117.2z M61.7,83.7C61.7,83.7,61.7,83.7,61.7,83.7c-0.7,0.4-1.3,0.9-1.9,1.5
		c0.1,0,0.2,0,0.3,0C61,85.3,61.7,84.6,61.7,83.7z M50.6,100.5c0-0.4-0.1-0.7-0.3-0.9c-0.4,0.8-0.7,1.6-1,2.5
		C50,101.9,50.6,101.3,50.6,100.5z M54.6,98.9c-0.9,0-1.5,0.7-1.5,1.5s0.7,1.5,1.5,1.5c0.9,0,1.5-0.7,1.5-1.5S55.4,98.9,54.6,98.9z
		 M54.6,93.3c-0.9,0-1.5,0.7-1.5,1.5s0.7,1.5,1.5,1.5c0.9,0,1.5-0.7,1.5-1.5S55.4,93.3,54.6,93.3z M76.9,98.9
		c-0.9,0-1.5,0.7-1.5,1.5s0.7,1.5,1.5,1.5s1.5-0.7,1.5-1.5S77.8,98.9,76.9,98.9z M71.4,93.3c-0.9,0-1.5,0.7-1.5,1.5s0.7,1.5,1.5,1.5
		s1.5-0.7,1.5-1.5S72.2,93.3,71.4,93.3z M71.4,82.2c-0.9,0-1.5,0.7-1.5,1.5s0.7,1.5,1.5,1.5s1.5-0.7,1.5-1.5S72.2,82.2,71.4,82.2z
		 M71.4,87.8c-0.9,0-1.5,0.7-1.5,1.5c0,0.9,0.7,1.5,1.5,1.5s1.5-0.7,1.5-1.5C72.9,88.4,72.2,87.8,71.4,87.8z M69.8,106.1
		c0,0.2,0,0.4,0.1,0.5c0.8-0.6,1.7-1.1,2.5-1.6c-0.3-0.3-0.7-0.4-1.1-0.4C70.5,104.5,69.8,105.2,69.8,106.1z M72.9,78.4
		c-0.9,0.2-1.7,0.5-2.6,0.8c0.3,0.3,0.7,0.4,1.1,0.4C72.1,79.7,72.7,79.1,72.9,78.4z M65.8,104.5c-0.9,0-1.5,0.7-1.5,1.5
		c0,0.9,0.7,1.5,1.5,1.5c0.9,0,1.5-0.7,1.5-1.5C67.3,105.2,66.6,104.5,65.8,104.5z M72.9,100.5c0-0.9-0.7-1.5-1.5-1.5
		s-1.5,0.7-1.5,1.5s0.7,1.5,1.5,1.5S72.9,101.3,72.9,100.5z M65.8,93.3c-0.9,0-1.5,0.7-1.5,1.5s0.7,1.5,1.5,1.5
		c0.9,0,1.5-0.7,1.5-1.5S66.6,93.3,65.8,93.3z M65.8,98.9c-0.9,0-1.5,0.7-1.5,1.5s0.7,1.5,1.5,1.5c0.9,0,1.5-0.7,1.5-1.5
		S66.6,98.9,65.8,98.9z M76.9,79.7c0.9,0,1.5-0.7,1.5-1.5c0-0.3-0.1-0.5-0.2-0.7c-1,0.1-1.9,0.3-2.9,0.5c0,0.1,0,0.2,0,0.3
		C75.4,79,76.1,79.7,76.9,79.7z M82.5,82.2c-0.9,0-1.5,0.7-1.5,1.5s0.7,1.5,1.5,1.5c0.9,0,1.5-0.7,1.5-1.5S83.4,82.2,82.5,82.2z
		 M81,100.4c0.8-0.4,1.7-0.7,2.5-1.1c-0.3-0.2-0.6-0.4-1-0.4C81.7,98.9,81,99.6,81,100.4z M76.9,82.2c-0.9,0-1.5,0.7-1.5,1.5
		s0.7,1.5,1.5,1.5s1.5-0.7,1.5-1.5S77.8,82.2,76.9,82.2z M84.1,94.9c0-0.9-0.7-1.5-1.5-1.5c-0.9,0-1.5,0.7-1.5,1.5s0.7,1.5,1.5,1.5
		C83.4,96.4,84.1,95.7,84.1,94.9z M82.5,87.8c-0.9,0-1.5,0.7-1.5,1.5c0,0.9,0.7,1.5,1.5,1.5c0.9,0,1.5-0.7,1.5-1.5
		C84.1,88.4,83.4,87.8,82.5,87.8z M76.9,87.8c-0.9,0-1.5,0.7-1.5,1.5c0,0.9,0.7,1.5,1.5,1.5s1.5-0.7,1.5-1.5
		C78.5,88.4,77.8,87.8,76.9,87.8z M65.8,87.8c-0.9,0-1.5,0.7-1.5,1.5c0,0.9,0.7,1.5,1.5,1.5c0.9,0,1.5-0.7,1.5-1.5
		C67.3,88.4,66.6,87.8,65.8,87.8z M76.9,93.3c-0.9,0-1.5,0.7-1.5,1.5s0.7,1.5,1.5,1.5s1.5-0.7,1.5-1.5S77.8,93.3,76.9,93.3z
		 M234,100.5c0,0.9,0.7,1.5,1.5,1.5c0.9,0,1.5-0.7,1.5-1.5s-0.7-1.5-1.5-1.5C234.7,98.9,234,99.6,234,100.5z M297,102
		c0.9,0,1.5-0.7,1.5-1.5s-0.7-1.5-1.5-1.5c-0.9,0-1.5,0.7-1.5,1.5S296.1,102,297,102z M330.5,132.4c-0.9,0-1.5,0.7-1.5,1.5
		c0,0.9,0.7,1.5,1.5,1.5c0.8,0,1.4-0.6,1.5-1.3c0-0.3-0.1-0.5-0.1-0.8C331.7,132.8,331.2,132.4,330.5,132.4z M330.5,138
		c-0.1,0-0.3,0-0.4,0.1c0.4,1,0.7,1.9,1.1,2.9c0.5-0.3,0.8-0.8,0.8-1.4C332.1,138.7,331.4,138,330.5,138z M297,93.3
		c-0.9,0-1.5,0.7-1.5,1.5s0.7,1.5,1.5,1.5c0.9,0,1.5-0.7,1.5-1.5S297.9,93.3,297,93.3z M297,82.2c-0.9,0-1.5,0.7-1.5,1.5
		s0.7,1.5,1.5,1.5c0.9,0,1.5-0.7,1.5-1.5S297.9,82.2,297,82.2z M324.9,121.3c-0.9,0-1.5,0.7-1.5,1.5s0.7,1.5,1.5,1.5
		c0.9,0,1.5-0.7,1.5-1.5S325.8,121.3,324.9,121.3z M330.5,130c0.4,0,0.7-0.1,0.9-0.3c-0.1-0.9-0.3-1.8-0.4-2.7
		c-0.2-0.1-0.4-0.1-0.5-0.1c-0.9,0-1.5,0.7-1.5,1.5C329,129.3,329.7,130,330.5,130z M329.5,118.4c-0.1-0.6-0.3-1.2-0.4-1.8
		c-0.1,0.2-0.1,0.4-0.1,0.6C329,117.7,329.2,118.1,329.5,118.4z M330.5,124.4c0,0,0.1,0,0.1,0c-0.2-1-0.4-2-0.5-3
		c-0.6,0.2-1.1,0.8-1.1,1.5C329,123.7,329.7,124.4,330.5,124.4z M324.9,126.9c-0.2,0-0.5,0.1-0.7,0.2c0.6,0.9,1.1,1.7,1.6,2.6
		c0.4-0.3,0.6-0.7,0.6-1.2C326.5,127.6,325.8,126.9,324.9,126.9z M308.2,82.2c-0.9,0-1.5,0.7-1.5,1.5s0.7,1.5,1.5,1.5
		s1.5-0.7,1.5-1.5S309,82.2,308.2,82.2z M302.6,98.9c-0.9,0-1.5,0.7-1.5,1.5s0.7,1.5,1.5,1.5s1.5-0.7,1.5-1.5S303.4,98.9,302.6,98.9
		z M308.2,87.8c-0.9,0-1.5,0.7-1.5,1.5c0,0.9,0.7,1.5,1.5,1.5s1.5-0.7,1.5-1.5C309.7,88.4,309,87.8,308.2,87.8z M297,87.8
		c-0.9,0-1.5,0.7-1.5,1.5c0,0.9,0.7,1.5,1.5,1.5c0.9,0,1.5-0.7,1.5-1.5C298.6,88.4,297.9,87.8,297,87.8z M302.6,104.5
		c-0.4,0-0.8,0.2-1.1,0.4c0.9,0.5,1.7,1.1,2.5,1.6c0.1-0.2,0.1-0.3,0.1-0.5C304.1,105.2,303.4,104.5,302.6,104.5z M302.6,79.7
		c0.4,0,0.8-0.2,1.1-0.4c-0.9-0.3-1.7-0.6-2.6-0.8C301.2,79.1,301.8,79.7,302.6,79.7z M302.6,82.2c-0.9,0-1.5,0.7-1.5,1.5
		s0.7,1.5,1.5,1.5s1.5-0.7,1.5-1.5S303.4,82.2,302.6,82.2z M302.6,87.8c-0.9,0-1.5,0.7-1.5,1.5c0,0.9,0.7,1.5,1.5,1.5
		s1.5-0.7,1.5-1.5C304.1,88.4,303.4,87.8,302.6,87.8z M308.2,93.3c-0.9,0-1.5,0.7-1.5,1.5s0.7,1.5,1.5,1.5s1.5-0.7,1.5-1.5
		S309,93.3,308.2,93.3z M302.6,93.3c-0.9,0-1.5,0.7-1.5,1.5s0.7,1.5,1.5,1.5s1.5-0.7,1.5-1.5S303.4,93.3,302.6,93.3z M284.3,78.1
		c0,0.9,0.7,1.5,1.5,1.5c0.9,0,1.5-0.7,1.5-1.5c0-0.3-0.1-0.6-0.3-0.8c-0.9,0.1-1.8,0.2-2.7,0.3C284.3,77.7,284.3,77.9,284.3,78.1z
		 M320.7,122.1c-0.1-0.2-0.3-0.4-0.4-0.5C320.4,121.8,320.6,122,320.7,122.1z M291.4,79.7c0.9,0,1.5-0.7,1.5-1.5
		c0-0.4-0.1-0.7-0.3-1c-0.8,0-1.6-0.1-2.4,0c-0.2,0.3-0.4,0.6-0.4,1C289.9,79,290.6,79.7,291.4,79.7z M222.8,106.1
		c0,0.3,0.1,0.6,0.2,0.8c0.9-0.2,1.9-0.4,2.8-0.6c0-0.1,0-0.2,0-0.2c0-0.9-0.7-1.5-1.5-1.5S222.8,105.2,222.8,106.1z M241.1,96.4
		c0.9,0,1.5-0.7,1.5-1.5c0-0.2,0-0.4-0.1-0.6c-0.9,0.5-1.8,0.9-2.7,1.4C240.1,96.1,240.6,96.4,241.1,96.4z M81.3,77.2
		c-0.2,0.3-0.3,0.6-0.3,1c0,0.9,0.7,1.5,1.5,1.5c0.9,0,1.5-0.7,1.5-1.5c0-0.4-0.1-0.7-0.4-1C82.9,77.1,82.1,77.1,81.3,77.2z
		 M56.1,89.3c-0.4,0.5-0.7,1-1.1,1.5C55.7,90.6,56.1,90,56.1,89.3z M88.1,79.7c0.9,0,1.5-0.7,1.5-1.5c0-0.2,0-0.4-0.1-0.5
		c-0.9-0.1-1.8-0.2-2.7-0.3c-0.2,0.2-0.3,0.5-0.3,0.8C86.6,79,87.3,79.7,88.1,79.7z M132.8,96.4c0.5,0,1-0.3,1.3-0.7
		c-0.9-0.5-1.8-0.9-2.7-1.4c-0.1,0.2-0.1,0.4-0.1,0.6C131.3,95.7,132,96.4,132.8,96.4z M324.9,110.1c-0.9,0-1.5,0.7-1.5,1.5
		s0.7,1.5,1.5,1.5c0.9,0,1.5-0.7,1.5-1.5S325.8,110.1,324.9,110.1z M317.8,94.9c0,0.9,0.7,1.5,1.5,1.5c0.9,0,1.5-0.7,1.5-1.5
		s-0.7-1.5-1.5-1.5C318.5,93.3,317.8,94,317.8,94.9z M324.9,104.5c-0.9,0-1.5,0.7-1.5,1.5c0,0.9,0.7,1.5,1.5,1.5
		c0.7,0,1.2-0.4,1.4-1c-0.2-0.6-0.4-1.3-0.6-1.9C325.5,104.6,325.2,104.5,324.9,104.5z M324.7,102c-0.3-0.8-0.7-1.6-1-2.4
		c-0.2,0.3-0.3,0.6-0.3,0.9C323.4,101.3,324,101.9,324.7,102z M324.9,115.7c-0.9,0-1.5,0.7-1.5,1.5s0.7,1.5,1.5,1.5
		c0.9,0,1.5-0.7,1.5-1.5S325.8,115.7,324.9,115.7z M319.4,113.2c0.9,0,1.5-0.7,1.5-1.5s-0.7-1.5-1.5-1.5c-0.9,0-1.5,0.7-1.5,1.5
		S318.5,113.2,319.4,113.2z M319.4,118.8c0.9,0,1.5-0.7,1.5-1.5s-0.7-1.5-1.5-1.5c-0.9,0-1.5,0.7-1.5,1.5S318.5,118.8,319.4,118.8z
		 M319.4,107.6c0.9,0,1.5-0.7,1.5-1.5c0-0.9-0.7-1.5-1.5-1.5c-0.9,0-1.5,0.7-1.5,1.5C317.8,106.9,318.5,107.6,319.4,107.6z
		 M319.4,102c0.9,0,1.5-0.7,1.5-1.5s-0.7-1.5-1.5-1.5c-0.9,0-1.5,0.7-1.5,1.5S318.5,102,319.4,102z M318.8,90.8
		c-0.3-0.5-0.7-0.9-1-1.4C317.8,90,318.3,90.5,318.8,90.8z M274.7,87.8c-0.9,0-1.5,0.7-1.5,1.5c0,0.9,0.7,1.5,1.5,1.5
		s1.5-0.7,1.5-1.5C276.2,88.4,275.5,87.8,274.7,87.8z M280.2,82.2c-0.9,0-1.5,0.7-1.5,1.5s0.7,1.5,1.5,1.5c0.9,0,1.5-0.7,1.5-1.5
		S281.1,82.2,280.2,82.2z M280.2,93.3c-0.9,0-1.5,0.7-1.5,1.5c0,0.5,0.2,0.9,0.6,1.2c0.5,0.1,0.9,0.2,1.4,0.3
		c0.6-0.2,1.1-0.8,1.1-1.5C281.8,94,281.1,93.3,280.2,93.3z M274.7,93.3c-0.9,0-1.5,0.7-1.5,1.5c0,0.2,0,0.3,0.1,0.4
		c1,0.1,1.9,0.1,2.9,0.3c0.1-0.2,0.2-0.4,0.2-0.7C276.2,94,275.5,93.3,274.7,93.3z M263.5,87.8c-0.9,0-1.5,0.7-1.5,1.5
		c0,0.9,0.7,1.5,1.5,1.5c0.9,0,1.5-0.7,1.5-1.5C265,88.4,264.3,87.8,263.5,87.8z M269.1,93.3c-0.9,0-1.5,0.7-1.5,1.5
		c0,0.1,0,0.3,0.1,0.4c1-0.1,2-0.1,3-0.1c0-0.1,0-0.2,0-0.3C270.6,94,269.9,93.3,269.1,93.3z M274.7,82.2c-0.9,0-1.5,0.7-1.5,1.5
		s0.7,1.5,1.5,1.5s1.5-0.7,1.5-1.5S275.5,82.2,274.7,82.2z M269.1,82.2c-0.9,0-1.5,0.7-1.5,1.5s0.7,1.5,1.5,1.5
		c0.9,0,1.5-0.7,1.5-1.5S269.9,82.2,269.1,82.2z M269.1,87.8c-0.9,0-1.5,0.7-1.5,1.5c0,0.9,0.7,1.5,1.5,1.5c0.9,0,1.5-0.7,1.5-1.5
		C270.6,88.4,269.9,87.8,269.1,87.8z M308.2,104.5c-0.9,0-1.5,0.7-1.5,1.5c0,0.9,0.7,1.5,1.5,1.5s1.5-0.7,1.5-1.5
		C309.7,105.2,309,104.5,308.2,104.5z M263.5,85.3c0.9,0,1.5-0.7,1.5-1.5c0-0.1,0-0.3-0.1-0.4c-0.9,0.4-1.9,0.8-2.8,1.2
		C262.4,85,262.9,85.3,263.5,85.3z M252.3,90.8c0.9,0,1.5-0.7,1.5-1.5c0-0.3-0.1-0.5-0.2-0.7c-0.9,0.5-1.8,0.9-2.8,1.4
		C251.2,90.5,251.7,90.8,252.3,90.8z M242.7,100.5c0-0.9-0.7-1.5-1.5-1.5s-1.5,0.7-1.5,1.5s0.7,1.5,1.5,1.5S242.7,101.3,242.7,100.5
		z M285.8,82.2c-0.9,0-1.5,0.7-1.5,1.5s0.7,1.5,1.5,1.5c0.9,0,1.5-0.7,1.5-1.5S286.7,82.2,285.8,82.2z M213.5,107.6
		c0.2,0,0.3-0.1,0.4-0.2C213.8,107.5,213.6,107.5,213.5,107.6z M285.8,93.3c-0.9,0-1.5,0.7-1.5,1.5s0.7,1.5,1.5,1.5
		c0.9,0,1.5-0.7,1.5-1.5S286.7,93.3,285.8,93.3z M280.2,79.7c0.9,0,1.5-0.7,1.5-1.5c0,0,0-0.1,0-0.1c-1,0.2-2,0.4-3,0.6
		C279,79.2,279.6,79.7,280.2,79.7z M285.8,87.8c-0.9,0-1.5,0.7-1.5,1.5c0,0.9,0.7,1.5,1.5,1.5c0.9,0,1.5-0.7,1.5-1.5
		C287.4,88.4,286.7,87.8,285.8,87.8z M280.2,87.8c-0.9,0-1.5,0.7-1.5,1.5c0,0.9,0.7,1.5,1.5,1.5c0.9,0,1.5-0.7,1.5-1.5
		C281.8,88.4,281.1,87.8,280.2,87.8z M291.4,98.9c-0.4,0-0.7,0.1-1,0.4c0.9,0.3,1.7,0.7,2.5,1.1C292.9,99.6,292.2,98.9,291.4,98.9z
		 M313.8,110.1c-0.9,0-1.5,0.7-1.5,1.5s0.7,1.5,1.5,1.5s1.5-0.7,1.5-1.5S314.6,110.1,313.8,110.1z M313.8,98.9
		c-0.9,0-1.5,0.7-1.5,1.5s0.7,1.5,1.5,1.5s1.5-0.7,1.5-1.5S314.6,98.9,313.8,98.9z M297,79.7c0.9,0,1.5-0.7,1.5-1.5
		c0-0.1,0-0.2,0-0.3c-1-0.2-1.9-0.3-2.9-0.5c-0.1,0.2-0.2,0.5-0.2,0.7C295.5,79,296.1,79.7,297,79.7z M313.8,104.5
		c-0.9,0-1.5,0.7-1.5,1.5c0,0.9,0.7,1.5,1.5,1.5s1.5-0.7,1.5-1.5C315.3,105.2,314.6,104.5,313.8,104.5z M313.8,85.3
		c0.1,0,0.2,0,0.3,0c-0.6-0.6-1.2-1.1-1.9-1.6c0,0,0,0,0,0.1C312.2,84.6,312.9,85.3,313.8,85.3z M308.2,98.9c-0.9,0-1.5,0.7-1.5,1.5
		s0.7,1.5,1.5,1.5s1.5-0.7,1.5-1.5S309,98.9,308.2,98.9z M263.5,93.3c-0.9,0-1.5,0.7-1.5,1.5c0,0.4,0.1,0.7,0.3,1
		c0.9-0.1,1.7-0.3,2.6-0.4c0.1-0.2,0.1-0.4,0.1-0.6C265,94,264.3,93.3,263.5,93.3z M313.8,93.3c-0.9,0-1.5,0.7-1.5,1.5
		s0.7,1.5,1.5,1.5s1.5-0.7,1.5-1.5S314.6,93.3,313.8,93.3z M313.8,87.8c-0.9,0-1.5,0.7-1.5,1.5c0,0.9,0.7,1.5,1.5,1.5
		s1.5-0.7,1.5-1.5C315.3,88.4,314.6,87.8,313.8,87.8z M291.4,96.4c0.9,0,1.5-0.7,1.5-1.5s-0.7-1.5-1.5-1.5s-1.5,0.7-1.5,1.5
		S290.6,96.4,291.4,96.4z M252.3,93.3c-0.9,0-1.5,0.7-1.5,1.5s0.7,1.5,1.5,1.5s1.5-0.7,1.5-1.5S253.2,93.3,252.3,93.3z M245.2,94.9
		c0,0.9,0.7,1.5,1.5,1.5c0.9,0,1.5-0.7,1.5-1.5s-0.7-1.5-1.5-1.5C245.9,93.3,245.2,94,245.2,94.9z M257.9,87.8
		c-0.9,0-1.5,0.7-1.5,1.5c0,0.9,0.7,1.5,1.5,1.5s1.5-0.7,1.5-1.5C259.4,88.4,258.7,87.8,257.9,87.8z M257.9,93.3
		c-0.9,0-1.5,0.7-1.5,1.5s0.7,1.5,1.5,1.5s1.5-0.7,1.5-1.5S258.7,93.3,257.9,93.3z M248.2,100.1c-0.2-0.7-0.8-1.2-1.5-1.2
		c-0.9,0-1.5,0.7-1.5,1.5c0,0.2,0,0.4,0.1,0.6C246.3,100.8,247.2,100.5,248.2,100.1z M291.4,85.3c0.9,0,1.5-0.7,1.5-1.5
		s-0.7-1.5-1.5-1.5s-1.5,0.7-1.5,1.5S290.6,85.3,291.4,85.3z M291.4,90.8c0.9,0,1.5-0.7,1.5-1.5c0-0.9-0.7-1.5-1.5-1.5
		s-1.5,0.7-1.5,1.5C289.9,90.2,290.6,90.8,291.4,90.8z"/>
	<g>
		<g>
			<path class="st1" d="M187.5,110.5c-0.2,0-0.4,0-0.5,0c-0.2,0-0.4,0-0.5,0H187.5z"/>
		</g>
	</g>
	<g>
		<linearGradient id="SVGID_1_" gradientUnits="userSpaceOnUse" x1="17.9259" y1="89.7593" x2="357.0741" y2="89.7593">
			<stop  offset="0" style="stop-color:#FF6A66"/>
			<stop  offset="0.5" style="stop-color:#FF6A66;stop-opacity:0"/>
			<stop  offset="1" style="stop-color:#FF6A66"/>
		</linearGradient>
		<path class="st2" d="M353.8,171.4c1.2-11.2,2.2-22.3,2.6-33.6c0.1-5.6-0.4-11.2-1.3-16.7c-0.5-2.8-1-5.5-1.7-8.2
			c-0.2-0.7-0.3-1.4-0.5-2l-0.6-2l-1.3-4c-3.7-10.6-9-20.6-15.5-29.7c-6.5-9.1-14.3-17.3-22.9-24.5c-8.6-7.2-17.9-13.4-27.8-18.7
			c-9.9-5.3-20.3-9.5-31-12.9c-1.3-0.4-2.7-0.8-4-1.2c-1.3-0.4-2.7-0.8-4-1.2c-2.7-0.7-5.4-1.4-8.2-2c-5.4-1.3-11-2.3-16.5-3.1
			c-11.1-1.6-22.3-2.5-33.5-2.5l-4.2,0l-4.2,0.1c-2.8,0-5.6,0.3-8.4,0.4c-5.6,0.5-11.2,1-16.7,1.9c-11.1,1.6-22,4.2-32.7,7.5
			c-5.3,1.7-10.6,3.6-15.8,5.8c-5.2,2.1-10.2,4.6-15.2,7.2c-9.9,5.3-19.3,11.5-27.9,18.7c-4.3,3.6-8.4,7.5-12.2,11.5
			c-3.8,4.1-7.4,8.4-10.7,13c-3.3,4.5-6.2,9.3-8.8,14.3c-2.6,5-4.9,10.1-6.7,15.4c-0.5,1.3-0.9,2.7-1.3,4c-0.4,1.3-0.8,2.7-1.2,4
			c-0.7,2.7-1.3,5.5-1.7,8.2c-0.9,5.5-1.4,11.1-1.3,16.7c0.3,11.2,1.4,22.4,2.7,33.5c-1.4-11.1-2.5-22.3-2.9-33.5
			c-0.1-5.6,0.3-11.2,1.2-16.8c0.4-2.8,1-5.5,1.7-8.3c0.3-1.4,0.7-2.7,1.1-4.1c0.4-1.3,0.8-2.7,1.3-4c1.8-5.3,4.1-10.5,6.7-15.5
			c2.6-5,5.5-9.8,8.8-14.4c3.3-4.6,6.8-8.9,10.7-13.1c3.8-4.1,7.9-8,12.2-11.6c8.6-7.2,18-13.5,27.9-18.8c5-2.6,10-5.1,15.2-7.2
			c5.2-2.2,10.5-4.1,15.8-5.9c10.7-3.4,21.7-6,32.8-7.6c5.6-0.9,11.2-1.4,16.8-1.9c2.8-0.1,5.6-0.4,8.4-0.5l4.2-0.1l4.2,0
			c11.2,0,22.5,0.9,33.6,2.6c5.6,0.9,11.1,1.9,16.6,3.2c2.7,0.6,5.5,1.4,8.2,2.1c1.4,0.4,2.7,0.8,4.1,1.2c1.3,0.4,2.7,0.8,4,1.2
			c10.7,3.4,21.2,7.7,31.1,13c9.9,5.3,19.3,11.6,27.9,18.9c8.6,7.3,16.4,15.5,22.9,24.6c6.6,9.1,11.9,19.2,15.5,29.8l1.3,4l0.6,2
			c0.2,0.7,0.4,1.4,0.5,2c0.7,2.7,1.2,5.5,1.7,8.3c0.9,5.6,1.4,11.2,1.2,16.8C356.1,149.1,355.1,160.2,353.8,171.4z"/>
	</g>
	<g>
		
			<linearGradient id="SVGID_00000113347309632374762170000009776699031398825383_" gradientUnits="userSpaceOnUse" x1="37.5649" y1="123.0883" x2="336.3471" y2="123.0883">
			<stop  offset="0" style="stop-color:#FF6A66"/>
			<stop  offset="0.5" style="stop-color:#FF6A66;stop-opacity:0"/>
			<stop  offset="1" style="stop-color:#FF6A66"/>
		</linearGradient>
		<path style="fill:url(#SVGID_00000113347309632374762170000009776699031398825383_);" d="M38.1,171.4c-0.1-9.6,0.1-19.1,0.8-28.7
			c0.7-9.5,2-19.1,4.2-28.4c2.3-9.3,5.5-18.5,11.2-26.3c1.5-1.9,3.1-3.7,4.9-5.3c1.9-1.5,3.8-3,6-4c4.4-2,9.1-3.3,13.9-3.8
			c4.8-0.5,9.7-0.1,14.4,0.9c4.7,0.9,9.3,2.4,13.8,4.2c8.9,3.5,17.4,8.1,25.9,12.4c8.5,4.4,17,8.7,26,12c8.9,3.3,18.3,5.4,27.8,5.6
			c9.5-0.1,18.9-2.2,27.8-5.6c8.9-3.3,17.5-7.6,26-12c8.5-4.4,16.9-8.9,25.9-12.4c4.5-1.8,9-3.2,13.8-4.2c4.7-0.9,9.6-1.3,14.4-0.9
			c4.8,0.5,9.5,1.7,13.9,3.8c2.2,1,4.2,2.4,6,4c1.8,1.6,3.4,3.4,4.9,5.3c5.8,7.8,9,17,11.2,26.3c2.2,9.3,3.4,18.9,4.2,28.4
			c0.7,9.5,0.9,19.1,0.8,28.7c0-9.6-0.2-19.1-1.1-28.7c-0.8-9.5-2.1-19-4.4-28.3c-1.1-4.6-2.5-9.2-4.3-13.6c-1.8-4.4-4-8.7-6.9-12.5
			c-1.5-1.9-3-3.6-4.9-5.2c-1.8-1.5-3.8-2.9-5.9-3.9c-4.3-2-9-3.2-13.7-3.7c-4.7-0.4-9.5-0.1-14.2,0.9c-4.7,0.9-9.2,2.4-13.6,4.2
			c-8.9,3.5-17.3,8.1-25.8,12.5c-8.5,4.4-17,8.8-26.1,12.1c-9,3.4-18.5,5.6-28.1,5.7c-9.7-0.2-19.2-2.3-28.1-5.7
			c-9-3.3-17.6-7.7-26.1-12.1c-8.5-4.4-16.9-9-25.8-12.5c-4.4-1.8-9-3.3-13.6-4.2c-4.7-1-9.4-1.3-14.2-0.9
			c-4.7,0.4-9.4,1.7-13.7,3.7c-2.2,1-4.1,2.4-5.9,3.9c-1.8,1.5-3.4,3.3-4.9,5.2c-2.9,3.8-5.1,8.1-6.9,12.5c-1.8,4.4-3.2,9-4.3,13.6
			c-2.3,9.3-3.6,18.8-4.4,28.3C38.3,152.3,38,161.8,38.1,171.4z"/>
	</g>
	<g>
		
			<linearGradient id="SVGID_00000099662313175376647190000008969564373373543570_" gradientUnits="userSpaceOnUse" x1="186.9556" y1="66.2149" x2="186.9556" y2="36.5514">
			<stop  offset="0" style="stop-color:#FF6A66"/>
			<stop  offset="0.5" style="stop-color:#FF6A66;stop-opacity:0"/>
			<stop  offset="1" style="stop-color:#FF6A66"/>
		</linearGradient>
		<path style="fill:url(#SVGID_00000099662313175376647190000008969564373373543570_);" d="M268.2,36.6c0,1.9-0.5,3.8-1.4,5.5
			c-0.9,1.7-2,3.3-3.4,4.6c-2.7,2.7-5.9,4.9-9.3,6.7c-6.8,3.6-14.2,5.9-21.6,7.8c-7.5,1.8-15,3-22.7,3.8c-7.6,0.8-15.3,1.1-23,1.2
			c-7.7,0-15.3-0.4-23-1.2c-7.6-0.8-15.2-2-22.7-3.8c-7.4-1.9-14.8-4.2-21.6-7.8c-3.4-1.8-6.6-4-9.3-6.7c-1.3-1.4-2.5-2.9-3.4-4.6
			c-0.9-1.7-1.4-3.6-1.4-5.5c0,1.9,0.6,3.8,1.5,5.5c0.9,1.7,2.1,3.2,3.4,4.5c2.8,2.6,6,4.7,9.4,6.4c6.8,3.5,14.1,5.7,21.6,7.5
			c14.9,3.4,30.2,4.7,45.4,4.7c15.3,0,30.6-1.3,45.4-4.7c7.4-1.8,14.8-4,21.6-7.5c3.4-1.7,6.6-3.8,9.4-6.4c1.3-1.3,2.5-2.8,3.4-4.5
			C267.7,40.4,268.2,38.5,268.2,36.6z"/>
	</g>
	<path class="st1" d="M150.5,35.9c-0.7,0-1.2-0.3-1.2-0.6c0-0.4,0.6-0.6,1.2-0.6c0.7,0,1.2,0.3,1.2,0.6
		C151.8,35.6,151.2,35.9,150.5,35.9z M151.5,40.6c0-0.4-0.6-0.7-1.3-0.7c-0.7,0-1.3,0.3-1.3,0.7c0,0.4,0.6,0.7,1.3,0.7
		C150.9,41.3,151.5,41,151.5,40.6z M147.7,16.6c0-0.2-0.5-0.4-1.1-0.4s-1.1,0.2-1.1,0.4c0,0.2,0.5,0.4,1.1,0.4
		S147.7,16.8,147.7,16.6z M152.2,27.3c0-0.3-0.5-0.5-1.2-0.5s-1.2,0.2-1.2,0.5c0,0.3,0.5,0.5,1.2,0.5S152.2,27.6,152.2,27.3z
		 M152.1,30c0-0.3-0.5-0.6-1.2-0.6c-0.7,0-1.2,0.2-1.2,0.6c0,0.3,0.5,0.6,1.2,0.6C151.5,30.5,152.1,30.3,152.1,30z M151.9,32.6
		c0-0.3-0.5-0.6-1.2-0.6s-1.2,0.3-1.2,0.6s0.5,0.6,1.2,0.6S151.9,33,151.9,32.6z M149.3,53c-0.8,0-1.4,0.4-1.4,0.9s0.6,0.9,1.4,0.9
		s1.4-0.4,1.4-0.9S150.1,53,149.3,53z M152.4,24.6c0-0.3-0.5-0.5-1.1-0.5s-1.1,0.2-1.1,0.5s0.5,0.5,1.1,0.5S152.4,24.9,152.4,24.6z
		 M151.3,43.3c0-0.4-0.6-0.8-1.3-0.8c-0.7,0-1.3,0.3-1.3,0.8c0,0.4,0.6,0.8,1.3,0.8C150.7,44.1,151.3,43.7,151.3,43.3z M148.9,60.3
		c0.8,0,1.5-0.5,1.5-1s-0.7-1-1.5-1c-0.8,0-1.5,0.5-1.5,1S148.1,60.3,148.9,60.3z M149.1,55.7c-0.8,0-1.5,0.4-1.5,1
		c0,0.5,0.7,1,1.5,1c0.8,0,1.5-0.4,1.5-1C150.6,56.1,149.9,55.7,149.1,55.7z M149.8,45.2c-0.7,0-1.4,0.4-1.4,0.8
		c0,0.4,0.6,0.8,1.4,0.8s1.4-0.4,1.4-0.8C151.2,45.5,150.6,45.2,149.8,45.2z M149.6,47.8c-0.8,0-1.4,0.4-1.4,0.8
		c0,0.5,0.6,0.8,1.4,0.8c0.8,0,1.4-0.4,1.4-0.8C151,48.2,150.4,47.8,149.6,47.8z M149.4,50.4c-0.8,0-1.4,0.4-1.4,0.9
		s0.6,0.9,1.4,0.9s1.4-0.4,1.4-0.9S150.2,50.4,149.4,50.4z M151.6,38c0-0.4-0.6-0.7-1.3-0.7c-0.7,0-1.3,0.3-1.3,0.7s0.6,0.7,1.3,0.7
		C151,38.6,151.6,38.3,151.6,38z M156.8,40.6c0-0.4-0.6-0.7-1.3-0.7s-1.3,0.3-1.3,0.7c0,0.4,0.6,0.7,1.3,0.7S156.8,41,156.8,40.6z
		 M156.6,43.3c0-0.4-0.6-0.8-1.3-0.8c-0.7,0-1.3,0.3-1.3,0.8c0,0.4,0.6,0.8,1.3,0.8C156,44.1,156.6,43.7,156.6,43.3z M155,47.8
		c-0.8,0-1.4,0.4-1.4,0.8c0,0.5,0.6,0.8,1.4,0.8c0.8,0,1.4-0.4,1.4-0.8C156.4,48.2,155.8,47.8,155,47.8z M152.5,22
		c0-0.2-0.5-0.4-1.1-0.4c-0.6,0-1.1,0.2-1.1,0.4c0,0.2,0.5,0.4,1.1,0.4C152,22.4,152.5,22.2,152.5,22z M156.9,38
		c0-0.4-0.6-0.7-1.3-0.7c-0.7,0-1.3,0.3-1.3,0.7s0.6,0.7,1.3,0.7C156.3,38.6,156.9,38.3,156.9,38z M157.1,32.6
		c0-0.3-0.5-0.6-1.2-0.6s-1.2,0.3-1.2,0.6s0.5,0.6,1.2,0.6S157.1,33,157.1,32.6z M157,35.3c0-0.4-0.6-0.6-1.2-0.6s-1.2,0.3-1.2,0.6
		c0,0.4,0.6,0.6,1.2,0.6S157,35.6,157,35.3z M155.2,45.2c-0.7,0-1.4,0.4-1.4,0.8c0,0.4,0.6,0.8,1.4,0.8s1.4-0.4,1.4-0.8
		C156.5,45.5,155.9,45.2,155.2,45.2z M154.8,50.4c-0.8,0-1.4,0.4-1.4,0.9s0.6,0.9,1.4,0.9c0.8,0,1.4-0.4,1.4-0.9
		S155.6,50.4,154.8,50.4z M152.8,16.6c0-0.2-0.5-0.4-1.1-0.4c-0.6,0-1.1,0.2-1.1,0.4c0,0.2,0.5,0.4,1.1,0.4
		C152.3,17,152.8,16.8,152.8,16.6z M152.7,19.3c0-0.2-0.5-0.4-1.1-0.4c-0.6,0-1.1,0.2-1.1,0.4s0.5,0.4,1.1,0.4
		C152.2,19.7,152.7,19.5,152.7,19.3z M153,14c0-0.2-0.5-0.3-1-0.3s-1,0.1-1,0.3s0.5,0.3,1,0.3S153,14.1,153,14z M154.7,53
		c-0.8,0-1.4,0.4-1.4,0.9s0.6,0.9,1.4,0.9s1.4-0.4,1.4-0.9S155.5,53,154.7,53z M154.5,55.7c-0.8,0-1.5,0.4-1.5,1c0,0.5,0.7,1,1.5,1
		c0.8,0,1.5-0.4,1.5-1C156,56.1,155.4,55.7,154.5,55.7z M154.4,60.3c0.8,0,1.5-0.5,1.5-1s-0.7-1-1.5-1s-1.5,0.5-1.5,1
		S153.6,60.3,154.4,60.3z M138.4,53c-0.8,0-1.4,0.4-1.4,0.9s0.6,0.9,1.4,0.9s1.4-0.4,1.4-0.9S139.2,53,138.4,53z M141.7,30
		c0-0.3-0.5-0.6-1.2-0.6s-1.2,0.2-1.2,0.6c0,0.3,0.5,0.6,1.2,0.6S141.7,30.3,141.7,30z M141.9,27.3c0-0.3-0.5-0.5-1.2-0.5
		s-1.2,0.2-1.2,0.5c0,0.3,0.5,0.5,1.2,0.5S141.9,27.6,141.9,27.3z M141.5,32.6c0-0.3-0.5-0.6-1.2-0.6s-1.2,0.3-1.2,0.6
		s0.5,0.6,1.2,0.6S141.5,33,141.5,32.6z M140.3,19.3c0,0.2,0.5,0.4,1.1,0.4c0.6,0,1.1-0.2,1.1-0.4s-0.5-0.4-1.1-0.4
		C140.8,18.9,140.3,19.1,140.3,19.3z M141.3,35.3c0-0.4-0.6-0.6-1.2-0.6s-1.2,0.3-1.2,0.6c0,0.4,0.6,0.6,1.2,0.6
		S141.3,35.6,141.3,35.3z M142.3,22c0-0.2-0.5-0.4-1.1-0.4s-1.1,0.2-1.1,0.4c0,0.2,0.5,0.4,1.1,0.4S142.3,22.2,142.3,22z
		 M142.1,24.6c0-0.3-0.5-0.5-1.1-0.5s-1.1,0.2-1.1,0.5s0.5,0.5,1.1,0.5S142.1,24.9,142.1,24.6z M138.6,50.4c-0.8,0-1.4,0.4-1.4,0.9
		s0.6,0.9,1.4,0.9c0.8,0,1.4-0.4,1.4-0.9S139.4,50.4,138.6,50.4z M142.7,16.6c0-0.2-0.5-0.4-1.1-0.4c-0.6,0-1.1,0.2-1.1,0.4
		c0,0.2,0.5,0.4,1.1,0.4C142.2,17,142.7,16.8,142.7,16.6z M141.1,38c0-0.4-0.6-0.7-1.3-0.7c-0.7,0-1.3,0.3-1.3,0.7s0.6,0.7,1.3,0.7
		C140.5,38.6,141.1,38.3,141.1,38z M138.9,47.8c-0.8,0-1.4,0.4-1.4,0.8c0,0.5,0.6,0.8,1.4,0.8c0.8,0,1.4-0.4,1.4-0.8
		C140.3,48.2,139.6,47.8,138.9,47.8z M157.3,30c0-0.3-0.5-0.6-1.2-0.6c-0.7,0-1.2,0.2-1.2,0.6c0,0.3,0.5,0.6,1.2,0.6
		C156.7,30.5,157.3,30.3,157.3,30z M140.9,40.6c0-0.4-0.6-0.7-1.3-0.7s-1.3,0.3-1.3,0.7c0,0.4,0.6,0.7,1.3,0.7S140.9,41,140.9,40.6z
		 M139.1,45.2c-0.7,0-1.4,0.4-1.4,0.8c0,0.4,0.6,0.8,1.4,0.8c0.7,0,1.4-0.4,1.4-0.8C140.5,45.5,139.9,45.2,139.1,45.2z M140.7,43.3
		c0-0.4-0.6-0.8-1.3-0.8c-0.7,0-1.3,0.3-1.3,0.8c0,0.4,0.6,0.8,1.3,0.8C140.1,44.1,140.7,43.7,140.7,43.3z M146.5,35.3
		c0-0.4-0.6-0.6-1.2-0.6c-0.7,0-1.2,0.3-1.2,0.6c0,0.4,0.6,0.6,1.2,0.6C146,35.9,146.5,35.6,146.5,35.3z M146.7,32.6
		c0-0.3-0.5-0.6-1.2-0.6s-1.2,0.3-1.2,0.6s0.5,0.6,1.2,0.6S146.7,33,146.7,32.6z M146.3,38c0-0.4-0.6-0.7-1.3-0.7
		c-0.7,0-1.3,0.3-1.3,0.7s0.6,0.7,1.3,0.7C145.8,38.6,146.3,38.3,146.3,38z M146.9,30c0-0.3-0.5-0.6-1.2-0.6c-0.7,0-1.2,0.2-1.2,0.6
		c0,0.3,0.5,0.6,1.2,0.6C146.3,30.5,146.9,30.3,146.9,30z M147.6,19.3c0-0.2-0.5-0.4-1.1-0.4c-0.6,0-1.1,0.2-1.1,0.4
		s0.5,0.4,1.1,0.4C147.1,19.7,147.6,19.5,147.6,19.3z M147.4,22c0-0.2-0.5-0.4-1.1-0.4s-1.1,0.2-1.1,0.4c0,0.2,0.5,0.4,1.1,0.4
		S147.4,22.2,147.4,22z M147,27.3c0-0.3-0.5-0.5-1.2-0.5s-1.2,0.2-1.2,0.5c0,0.3,0.5,0.5,1.2,0.5S147,27.6,147,27.3z M147.2,24.6
		c0-0.3-0.5-0.5-1.1-0.5s-1.1,0.2-1.1,0.5s0.5,0.5,1.1,0.5S147.2,24.9,147.2,24.6z M144.5,45.2c-0.7,0-1.4,0.4-1.4,0.8
		c0,0.4,0.6,0.8,1.4,0.8c0.7,0,1.4-0.4,1.4-0.8C145.8,45.5,145.2,45.2,144.5,45.2z M144,50.4c-0.8,0-1.4,0.4-1.4,0.9
		s0.6,0.9,1.4,0.9c0.8,0,1.4-0.4,1.4-0.9S144.8,50.4,144,50.4z M143.8,53c-0.8,0-1.4,0.4-1.4,0.9s0.6,0.9,1.4,0.9s1.4-0.4,1.4-0.9
		S144.6,53,143.8,53z M144.3,47.8c-0.8,0-1.4,0.4-1.4,0.8c0,0.5,0.6,0.8,1.4,0.8c0.8,0,1.4-0.4,1.4-0.8
		C145.6,48.2,145,47.8,144.3,47.8z M143.6,57.6c0.8,0,1.5-0.4,1.5-1c0-0.5-0.7-1-1.5-1s-1.5,0.4-1.5,1
		C142.2,57.2,142.8,57.6,143.6,57.6z M146,43.3c0-0.4-0.6-0.8-1.3-0.8c-0.7,0-1.3,0.3-1.3,0.8c0,0.4,0.6,0.8,1.3,0.8
		C145.4,44.1,146,43.7,146,43.3z M146.2,40.6c0-0.4-0.6-0.7-1.3-0.7s-1.3,0.3-1.3,0.7c0,0.4,0.6,0.7,1.3,0.7S146.2,41,146.2,40.6z
		 M127.8,52.2c0.8,0,1.4-0.4,1.4-0.9s-0.6-0.9-1.4-0.9c-0.8,0-1.4,0.4-1.4,0.9S127.1,52.2,127.8,52.2z M115.3,32.6
		c0-0.3-0.5-0.6-1.2-0.6s-1.2,0.3-1.2,0.6s0.5,0.6,1.2,0.6S115.3,33,115.3,32.6z M115,35.3c0-0.4-0.6-0.6-1.2-0.6
		c-0.7,0-1.2,0.3-1.2,0.6c0,0.4,0.6,0.6,1.2,0.6C114.4,35.9,115,35.6,115,35.3z M114.7,38c0-0.4-0.6-0.7-1.3-0.7
		c-0.7,0-1.3,0.3-1.3,0.7s0.6,0.7,1.3,0.7C114.1,38.6,114.7,38.3,114.7,38z M115.6,30c0-0.3-0.5-0.6-1.2-0.6c-0.7,0-1.2,0.2-1.2,0.6
		c0,0.3,0.5,0.6,1.2,0.6C115.1,30.5,115.6,30.3,115.6,30z M118.8,48.6c0-0.5-0.6-0.8-1.4-0.8c-0.7,0-1.3,0.3-1.4,0.8
		c0.4,0.3,0.9,0.6,1.4,0.9c0,0,0,0,0,0C118.1,49.5,118.8,49.1,118.8,48.6z M116,27.3c0-0.3-0.5-0.5-1.2-0.5c-0.6,0-1.2,0.2-1.2,0.5
		c0,0.3,0.5,0.5,1.2,0.5C115.5,27.8,116,27.6,116,27.3z M113.7,46c0-0.4-0.6-0.8-1.4-0.8c-0.1,0-0.3,0-0.4,0
		c0.4,0.4,0.9,0.9,1.4,1.3C113.5,46.4,113.7,46.2,113.7,46z M123.9,51.3c0-0.5-0.6-0.9-1.4-0.9c-0.8,0-1.4,0.4-1.4,0.9
		c0,0.1,0,0.2,0.1,0.3c0.4,0.2,0.7,0.4,1.1,0.5c0.1,0,0.2,0,0.2,0C123.2,52.2,123.9,51.8,123.9,51.3z M265.8,37.3
		c-0.7,0-1.3,0.3-1.3,0.7s0.6,0.7,1.3,0.7c0.1,0,0.1,0,0.2,0c0.1-0.4,0.2-0.9,0.2-1.3C266.1,37.3,265.9,37.3,265.8,37.3z
		 M108.9,33.2c0.7,0,1.2-0.3,1.2-0.6s-0.5-0.6-1.2-0.6c-0.1,0-0.2,0-0.3,0c-0.1,0.4-0.3,0.7-0.4,1.1
		C108.4,33.2,108.6,33.2,108.9,33.2z M115.2,25.1c0.6,0,1.1-0.2,1.1-0.5c0-0.2-0.4-0.4-0.8-0.5c-0.4,0.3-0.8,0.5-1.1,0.8
		C114.5,25,114.8,25.1,115.2,25.1z M109.1,40.6c0-0.3-0.3-0.5-0.7-0.6c0.1,0.3,0.3,0.7,0.5,1C109,40.9,109.1,40.8,109.1,40.6z
		 M109.8,35.3c0-0.4-0.6-0.6-1.2-0.6c-0.3,0-0.5,0.1-0.7,0.1c-0.1,0.3-0.1,0.7-0.1,1c0.2,0.1,0.5,0.2,0.8,0.2
		C109.2,35.9,109.8,35.6,109.8,35.3z M114,43.3c0-0.4-0.6-0.8-1.3-0.8c-0.7,0-1.3,0.3-1.3,0.8c0,0.4,0.6,0.8,1.3,0.8
		C113.4,44.1,114,43.7,114,43.3z M114.3,40.6c0-0.4-0.6-0.7-1.3-0.7c-0.7,0-1.3,0.3-1.3,0.7c0,0.4,0.6,0.7,1.3,0.7
		C113.8,41.3,114.3,41,114.3,40.6z M110.5,30c0-0.2-0.2-0.4-0.5-0.5c-0.2,0.3-0.4,0.7-0.6,1C110,30.5,110.5,30.3,110.5,30z M129,54
		c0-0.5-0.6-0.9-1.4-0.9c-0.8,0-1.4,0.4-1.4,0.9c0.7,0.3,1.4,0.6,2.1,0.8C128.7,54.6,129,54.3,129,54z M226,14c0,0.2,0.5,0.3,1,0.3
		s1-0.1,1-0.3c0,0,0,0,0,0c-0.4-0.1-0.8-0.2-1.3-0.2C226.3,13.7,226,13.8,226,14z M181.7,63.5c-0.2,0-0.4,0-0.6,0.1
		c0.5,0,0.9,0,1.4,0C182.2,63.6,182,63.5,181.7,63.5z M205.7,11.3c0,0.1,0.4,0.3,1,0.3s1-0.1,1-0.3c0,0-0.1-0.1-0.1-0.1
		c-0.4,0-0.9-0.1-1.4-0.1C206,11.1,205.7,11.2,205.7,11.3z M259.8,33.2c0.7,0,1.2-0.3,1.2-0.6s-0.5-0.6-1.2-0.6s-1.2,0.3-1.2,0.6
		S259.1,33.2,259.8,33.2z M157.4,27.3c0-0.3-0.5-0.5-1.2-0.5s-1.2,0.2-1.2,0.5c0,0.3,0.5,0.5,1.2,0.5S157.4,27.6,157.4,27.3z
		 M259.5,30.5c0.7,0,1.2-0.2,1.2-0.6c0-0.3-0.5-0.6-1.2-0.6s-1.2,0.2-1.2,0.6C258.3,30.3,258.8,30.5,259.5,30.5z M166.8,62
		c0-0.6-0.7-1-1.5-1s-1.5,0.5-1.5,1c0,0.2,0.1,0.4,0.3,0.6c0.7,0.1,1.4,0.1,2.2,0.2C166.5,62.6,166.8,62.3,166.8,62z M130,43.3
		c0-0.4-0.6-0.8-1.3-0.8c-0.7,0-1.3,0.3-1.3,0.8c0,0.4,0.6,0.8,1.3,0.8C129.4,44.1,130,43.7,130,43.3z M132.7,55.7
		c-0.4,0-0.8,0.1-1.1,0.3c0.8,0.3,1.7,0.6,2.5,0.8c0-0.1,0-0.1,0-0.2C134.2,56.1,133.5,55.7,132.7,55.7z M128.4,45.2
		c-0.7,0-1.4,0.4-1.4,0.8c0,0.4,0.6,0.8,1.4,0.8s1.4-0.4,1.4-0.8C129.8,45.5,129.2,45.2,128.4,45.2z M154.2,60.9
		c-0.4,0-0.7,0.1-1,0.2c0.8,0.1,1.6,0.3,2.4,0.4C155.4,61.2,154.9,60.9,154.2,60.9z M143.4,58.3c-0.6,0-1.2,0.3-1.4,0.7
		c0.9,0.2,1.9,0.4,2.8,0.6c0-0.1,0.1-0.2,0.1-0.3C144.9,58.7,144.3,58.3,143.4,58.3z M159.7,60.9c-0.8,0-1.5,0.4-1.5,1
		c1,0.1,2,0.3,3,0.4c0-0.1,0.1-0.2,0.1-0.3C161.3,61.4,160.6,60.9,159.7,60.9z M260.3,27.3c0-0.3-0.5-0.5-1.2-0.5
		c-0.6,0-1.2,0.2-1.2,0.5c0,0.3,0.5,0.5,1.2,0.5C259.7,27.8,260.3,27.6,260.3,27.3z M119.7,40.6c0-0.4-0.6-0.7-1.3-0.7
		c-0.7,0-1.3,0.3-1.3,0.7c0,0.4,0.6,0.7,1.3,0.7C119.1,41.3,119.7,41,119.7,40.6z M120.7,22.4c0.6,0,1.1-0.2,1.1-0.4
		c0-0.2-0.3-0.3-0.8-0.4c-0.5,0.2-1,0.3-1.4,0.5C119.8,22.3,120.2,22.4,120.7,22.4z M116.4,46c0,0.4,0.6,0.8,1.4,0.8
		c0.7,0,1.4-0.4,1.4-0.8c0-0.4-0.6-0.8-1.4-0.8C117,45.2,116.4,45.5,116.4,46z M120,38c0-0.4-0.6-0.7-1.3-0.7
		c-0.7,0-1.3,0.3-1.3,0.7s0.6,0.7,1.3,0.7C119.4,38.6,120,38.3,120,38z M120.3,35.3c0-0.4-0.6-0.6-1.2-0.6s-1.2,0.3-1.2,0.6
		c0,0.4,0.6,0.6,1.2,0.6S120.3,35.6,120.3,35.3z M120.9,30c0-0.3-0.5-0.6-1.2-0.6s-1.2,0.2-1.2,0.6c0,0.3,0.5,0.6,1.2,0.6
		S120.9,30.3,120.9,30z M121.2,27.3c0-0.3-0.5-0.5-1.2-0.5c-0.6,0-1.2,0.2-1.2,0.5c0,0.3,0.5,0.5,1.2,0.5
		C120.7,27.8,121.2,27.6,121.2,27.3z M120.6,32.6c0-0.3-0.5-0.6-1.2-0.6c-0.7,0-1.2,0.3-1.2,0.6s0.5,0.6,1.2,0.6
		C120,33.2,120.6,33,120.6,32.6z M136.5,17c0.6,0,1.1-0.2,1.1-0.4c0-0.1,0-0.1-0.1-0.1c-0.5,0.1-1,0.3-1.6,0.4
		C136.1,16.9,136.3,17,136.5,17z M157.6,22c0-0.2-0.5-0.4-1.1-0.4c-0.6,0-1.1,0.2-1.1,0.4c0,0.2,0.5,0.4,1.1,0.4
		C157.1,22.4,157.6,22.2,157.6,22z M157.5,24.6c0-0.3-0.5-0.5-1.1-0.5s-1.1,0.2-1.1,0.5s0.5,0.5,1.1,0.5S157.5,24.9,157.5,24.6z
		 M157.8,19.3c0-0.2-0.5-0.4-1.1-0.4c-0.6,0-1.1,0.2-1.1,0.4s0.5,0.4,1.1,0.4C157.3,19.7,157.8,19.5,157.8,19.3z M157.9,16.6
		c0-0.2-0.5-0.4-1.1-0.4s-1.1,0.2-1.1,0.4c0,0.2,0.5,0.4,1.1,0.4S157.9,16.8,157.9,16.6z M146.9,14.3c0.5,0,0.9-0.1,1-0.2
		c-0.4,0.1-0.7,0.2-1.1,0.2C146.8,14.3,146.8,14.3,146.9,14.3z M158,14c0-0.2-0.5-0.3-1-0.3s-1,0.1-1,0.3s0.5,0.3,1,0.3
		S158,14.1,158,14z M119.4,43.3c0-0.4-0.6-0.8-1.3-0.8c-0.7,0-1.3,0.3-1.3,0.8c0,0.4,0.6,0.8,1.3,0.8
		C118.8,44.1,119.4,43.7,119.4,43.3z M126.6,24.6c0-0.3-0.5-0.5-1.1-0.5s-1.1,0.2-1.1,0.5s0.5,0.5,1.1,0.5S126.6,24.9,126.6,24.6z
		 M126.4,27.3c0-0.3-0.5-0.5-1.2-0.5c-0.6,0-1.2,0.2-1.2,0.5c0,0.3,0.5,0.5,1.2,0.5C125.8,27.8,126.4,27.6,126.4,27.3z M126.1,30
		c0-0.3-0.5-0.6-1.2-0.6s-1.2,0.2-1.2,0.6c0,0.3,0.5,0.6,1.2,0.6S126.1,30.3,126.1,30z M138.2,57.6c0.8,0,1.5-0.4,1.5-1
		c0-0.5-0.7-1-1.5-1c-0.8,0-1.5,0.4-1.5,1C136.7,57.2,137.4,57.6,138.2,57.6z M129.5,48.6c0-0.5-0.6-0.8-1.4-0.8s-1.4,0.4-1.4,0.8
		c0,0.5,0.6,0.8,1.4,0.8S129.5,49.1,129.5,48.6z M121.5,24.6c0-0.3-0.5-0.5-1.1-0.5s-1.1,0.2-1.1,0.5s0.5,0.5,1.1,0.5
		S121.5,24.9,121.5,24.6z M125.8,32.6c0-0.3-0.5-0.6-1.2-0.6c-0.7,0-1.2,0.3-1.2,0.6s0.5,0.6,1.2,0.6
		C125.3,33.2,125.8,33,125.8,32.6z M126.9,22c0-0.2-0.5-0.4-1.1-0.4c-0.6,0-1.1,0.2-1.1,0.4c0,0.2,0.5,0.4,1.1,0.4
		C126.4,22.4,126.9,22.2,126.9,22z M124.7,43.3c0-0.4-0.6-0.8-1.3-0.8s-1.3,0.3-1.3,0.8c0,0.4,0.6,0.8,1.3,0.8
		S124.7,43.7,124.7,43.3z M124.4,46c0-0.4-0.6-0.8-1.4-0.8c-0.7,0-1.4,0.4-1.4,0.8c0,0.4,0.6,0.8,1.4,0.8
		C123.8,46.8,124.4,46.4,124.4,46z M125.5,35.3c0-0.4-0.6-0.6-1.2-0.6c-0.7,0-1.2,0.3-1.2,0.6c0,0.4,0.6,0.6,1.2,0.6
		C125,35.9,125.5,35.6,125.5,35.3z M122.8,49.5c0.8,0,1.4-0.4,1.4-0.8c0-0.5-0.6-0.8-1.4-0.8c-0.8,0-1.4,0.4-1.4,0.8
		C121.4,49.1,122,49.5,122.8,49.5z M125.2,38c0-0.4-0.6-0.7-1.3-0.7s-1.3,0.3-1.3,0.7s0.6,0.7,1.3,0.7S125.2,38.3,125.2,38z
		 M125,40.6c0-0.4-0.6-0.7-1.3-0.7c-0.7,0-1.3,0.3-1.3,0.7c0,0.4,0.6,0.7,1.3,0.7C124.4,41.3,125,41,125,40.6z M109.4,38
		c0-0.4-0.6-0.7-1.3-0.7c-0.1,0-0.3,0-0.4,0c0,0.4,0.1,0.9,0.2,1.3c0.1,0,0.1,0,0.2,0C108.8,38.6,109.4,38.3,109.4,38z M176.5,45.2
		c-0.7,0-1.4,0.4-1.4,0.8c0,0.4,0.6,0.8,1.4,0.8s1.4-0.4,1.4-0.8C177.9,45.5,177.3,45.2,176.5,45.2z M177.1,16.3
		c-0.6,0-1.1,0.2-1.1,0.4c0,0.2,0.5,0.4,1.1,0.4s1.1-0.2,1.1-0.4C178.2,16.4,177.7,16.3,177.1,16.3z M177,21.5
		c-0.6,0-1.1,0.2-1.1,0.4c0,0.2,0.5,0.4,1.1,0.4c0.6,0,1.1-0.2,1.1-0.4C178.1,21.7,177.6,21.5,177,21.5z M177,24.1
		c-0.6,0-1.1,0.2-1.1,0.5s0.5,0.5,1.1,0.5s1.1-0.2,1.1-0.5S177.6,24.1,177,24.1z M170.7,60.9c-0.8,0-1.5,0.5-1.5,1s0.7,1,1.5,1
		c0.8,0,1.5-0.5,1.5-1S171.6,60.9,170.7,60.9z M177.2,11c-0.6,0-1,0.1-1,0.3c0,0.1,0.4,0.3,1,0.3s1-0.1,1-0.3
		C178.2,11.1,177.8,11,177.2,11z M177.2,13.6c-0.6,0-1,0.1-1,0.3s0.5,0.3,1,0.3c0.6,0,1-0.1,1-0.3S177.7,13.6,177.2,13.6z
		 M170.8,58.3c-0.8,0-1.5,0.5-1.5,1s0.7,1,1.5,1s1.5-0.5,1.5-1S171.6,58.3,170.8,58.3z M176.6,39.9c-0.7,0-1.3,0.3-1.3,0.7
		c0,0.4,0.6,0.7,1.3,0.7c0.7,0,1.3-0.3,1.3-0.7C177.9,40.2,177.4,39.9,176.6,39.9z M176.9,26.8c-0.6,0-1.2,0.2-1.2,0.5
		c0,0.3,0.5,0.5,1.2,0.5s1.2-0.2,1.2-0.5C178.1,27,177.5,26.8,176.9,26.8z M176.6,42.5c-0.7,0-1.3,0.3-1.3,0.8
		c0,0.4,0.6,0.8,1.3,0.8c0.7,0,1.3-0.3,1.3-0.8C177.9,42.9,177.3,42.5,176.6,42.5z M176.7,37.3c-0.7,0-1.3,0.3-1.3,0.7
		s0.6,0.7,1.3,0.7c0.7,0,1.3-0.3,1.3-0.7S177.4,37.3,176.7,37.3z M176.9,29.4c-0.7,0-1.2,0.2-1.2,0.6c0,0.3,0.5,0.6,1.2,0.6
		s1.2-0.2,1.2-0.6C178,29.6,177.5,29.4,176.9,29.4z M176.8,32c-0.7,0-1.2,0.3-1.2,0.6s0.5,0.6,1.2,0.6c0.7,0,1.2-0.3,1.2-0.6
		S177.5,32,176.8,32z M176.8,34.7c-0.7,0-1.2,0.3-1.2,0.6c0,0.4,0.6,0.6,1.2,0.6s1.2-0.3,1.2-0.6C178,34.9,177.4,34.7,176.8,34.7z
		 M172,16.3c-0.6,0-1.1,0.2-1.1,0.4c0,0.2,0.5,0.4,1.1,0.4s1.1-0.2,1.1-0.4C173.1,16.4,172.6,16.3,172,16.3z M171.7,26.8
		c-0.6,0-1.2,0.2-1.2,0.5c0,0.3,0.5,0.5,1.2,0.5s1.2-0.2,1.2-0.5C172.9,27,172.4,26.8,171.7,26.8z M171.7,29.4
		c-0.7,0-1.2,0.2-1.2,0.6c0,0.3,0.5,0.6,1.2,0.6s1.2-0.2,1.2-0.6C172.8,29.6,172.3,29.4,171.7,29.4z M171.6,32
		c-0.7,0-1.2,0.3-1.2,0.6s0.5,0.6,1.2,0.6c0.7,0,1.2-0.3,1.2-0.6S172.3,32,171.6,32z M171.5,34.7c-0.7,0-1.2,0.3-1.2,0.6
		c0,0.4,0.6,0.6,1.2,0.6c0.7,0,1.2-0.3,1.2-0.6C172.7,34.9,172.2,34.7,171.5,34.7z M172,18.9c-0.6,0-1.1,0.2-1.1,0.4
		s0.5,0.4,1.1,0.4c0.6,0,1.1-0.2,1.1-0.4S172.6,18.9,172,18.9z M171.9,21.5c-0.6,0-1.1,0.2-1.1,0.4c0,0.2,0.5,0.4,1.1,0.4
		c0.6,0,1.1-0.2,1.1-0.4C173,21.7,172.5,21.5,171.9,21.5z M171.8,24.1c-0.6,0-1.1,0.2-1.1,0.5s0.5,0.5,1.1,0.5s1.1-0.2,1.1-0.5
		S172.4,24.1,171.8,24.1z M171.4,37.3c-0.7,0-1.3,0.3-1.3,0.7s0.6,0.7,1.3,0.7s1.3-0.3,1.3-0.7S172.1,37.3,171.4,37.3z M171,50.4
		c-0.8,0-1.4,0.4-1.4,0.9s0.6,0.9,1.4,0.9c0.8,0,1.4-0.4,1.4-0.9S171.8,50.4,171,50.4z M171.1,47.8c-0.8,0-1.4,0.4-1.4,0.8
		c0,0.5,0.6,0.8,1.4,0.8c0.8,0,1.4-0.4,1.4-0.8C172.5,48.2,171.9,47.8,171.1,47.8z M171,53c-0.8,0-1.4,0.4-1.4,0.9s0.6,0.9,1.4,0.9
		c0.8,0,1.4-0.4,1.4-0.9S171.8,53,171,53z M171.2,45.2c-0.7,0-1.4,0.4-1.4,0.8c0,0.4,0.6,0.8,1.4,0.8s1.4-0.4,1.4-0.8
		C172.6,45.5,171.9,45.2,171.2,45.2z M170.9,55.7c-0.8,0-1.5,0.4-1.5,1c0,0.5,0.7,1,1.5,1s1.5-0.4,1.5-1
		C172.4,56.1,171.7,55.7,170.9,55.7z M171.4,39.9c-0.7,0-1.3,0.3-1.3,0.7c0,0.4,0.6,0.7,1.3,0.7s1.3-0.3,1.3-0.7
		C172.7,40.2,172.1,39.9,171.4,39.9z M171.3,42.5c-0.7,0-1.3,0.3-1.3,0.8c0,0.4,0.6,0.8,1.3,0.8s1.3-0.3,1.3-0.8
		C172.6,42.9,172,42.5,171.3,42.5z M177.1,18.9c-0.6,0-1.1,0.2-1.1,0.4s0.5,0.4,1.1,0.4c0.6,0,1.1-0.2,1.1-0.4
		S177.7,18.9,177.1,18.9z M182.1,27.8c0.6,0,1.2-0.2,1.2-0.5c0-0.3-0.5-0.5-1.2-0.5s-1.2,0.2-1.2,0.5
		C180.9,27.6,181.4,27.8,182.1,27.8z M182.1,25.1c0.6,0,1.1-0.2,1.1-0.5s-0.5-0.5-1.1-0.5s-1.1,0.2-1.1,0.5S181.4,25.1,182.1,25.1z
		 M182.1,22.4c0.6,0,1.1-0.2,1.1-0.4c0-0.2-0.5-0.4-1.1-0.4S181,21.7,181,22C181,22.2,181.5,22.4,182.1,22.4z M182,33.2
		c0.7,0,1.2-0.3,1.2-0.6S182.7,32,182,32c-0.7,0-1.2,0.3-1.2,0.6S181.3,33.2,182,33.2z M182,35.9c0.7,0,1.2-0.3,1.2-0.6
		c0-0.4-0.6-0.6-1.2-0.6c-0.7,0-1.2,0.3-1.2,0.6C180.7,35.6,181.3,35.9,182,35.9z M182.1,19.7c0.6,0,1.1-0.2,1.1-0.4
		s-0.5-0.4-1.1-0.4s-1.1,0.2-1.1,0.4S181.5,19.7,182.1,19.7z M182,30.5c0.7,0,1.2-0.2,1.2-0.6c0-0.3-0.5-0.6-1.2-0.6
		s-1.2,0.2-1.2,0.6C180.8,30.3,181.4,30.5,182,30.5z M182.2,11.6c0.6,0,1-0.1,1-0.3c0-0.1-0.4-0.3-1-0.3c-0.6,0-1,0.1-1,0.3
		C181.2,11.4,181.7,11.6,182.2,11.6z M176.5,47.8c-0.8,0-1.4,0.4-1.4,0.8c0,0.5,0.6,0.8,1.4,0.8c0.8,0,1.4-0.4,1.4-0.8
		C177.9,48.2,177.3,47.8,176.5,47.8z M239.7,56.6c0,0.1,0,0.1,0,0.2c0.9-0.3,1.7-0.5,2.5-0.8c-0.3-0.2-0.7-0.3-1.1-0.3
		C240.4,55.7,239.7,56.1,239.7,56.6z M218.3,61.5c0.8-0.1,1.6-0.2,2.4-0.4c-0.3-0.2-0.6-0.2-1-0.2C219.1,60.9,218.5,61.2,218.3,61.5
		z M182.2,17c0.6,0,1.1-0.2,1.1-0.4c0-0.2-0.5-0.4-1.1-0.4s-1.1,0.2-1.1,0.4C181.1,16.8,181.6,17,182.2,17z M181.9,38.6
		c0.7,0,1.3-0.3,1.3-0.7s-0.6-0.7-1.3-0.7c-0.7,0-1.3,0.3-1.3,0.7S181.2,38.6,181.9,38.6z M214.2,60.9c-0.8,0-1.5,0.5-1.5,1
		c0,0.1,0,0.2,0.1,0.3c1-0.1,2-0.2,3-0.4C215.6,61.3,215,60.9,214.2,60.9z M182.2,14.3c0.6,0,1-0.1,1-0.3s-0.5-0.3-1-0.3
		s-1,0.1-1,0.3S181.6,14.3,182.2,14.3z M230.5,58.3c-0.8,0-1.5,0.5-1.5,1c0,0.1,0,0.2,0.1,0.3c1-0.2,1.9-0.4,2.8-0.6
		C231.7,58.6,231.1,58.3,230.5,58.3z M181.9,41.3c0.7,0,1.3-0.3,1.3-0.7c0-0.4-0.6-0.7-1.3-0.7c-0.7,0-1.3,0.3-1.3,0.7
		C180.6,41,181.2,41.3,181.9,41.3z M176.2,60.9c-0.8,0-1.5,0.5-1.5,1s0.7,1,1.5,1c0.8,0,1.5-0.5,1.5-1S177.1,60.9,176.2,60.9z
		 M181.7,60.3c0.8,0,1.5-0.5,1.5-1s-0.7-1-1.5-1s-1.5,0.5-1.5,1S180.9,60.3,181.7,60.3z M181.7,63c0.8,0,1.5-0.5,1.5-1s-0.7-1-1.5-1
		s-1.5,0.5-1.5,1S180.9,63,181.7,63z M176.4,50.4c-0.8,0-1.4,0.4-1.4,0.9s0.6,0.9,1.4,0.9s1.4-0.4,1.4-0.9S177.2,50.4,176.4,50.4z
		 M176.3,55.7c-0.8,0-1.5,0.4-1.5,1c0,0.5,0.7,1,1.5,1c0.8,0,1.5-0.4,1.5-1C177.8,56.1,177.2,55.7,176.3,55.7z M176.4,53
		c-0.8,0-1.4,0.4-1.4,0.9s0.6,0.9,1.4,0.9s1.4-0.4,1.4-0.9S177.2,53,176.4,53z M176.3,58.3c-0.8,0-1.5,0.5-1.5,1s0.7,1,1.5,1
		c0.8,0,1.5-0.5,1.5-1S177.1,58.3,176.3,58.3z M181.9,46.8c0.7,0,1.4-0.4,1.4-0.8c0-0.4-0.6-0.8-1.4-0.8s-1.4,0.4-1.4,0.8
		C180.5,46.4,181.1,46.8,181.9,46.8z M181.9,44.1c0.7,0,1.3-0.3,1.3-0.8c0-0.4-0.6-0.8-1.3-0.8c-0.7,0-1.3,0.3-1.3,0.8
		C180.6,43.7,181.2,44.1,181.9,44.1z M181.8,49.5c0.8,0,1.4-0.4,1.4-0.8c0-0.5-0.6-0.8-1.4-0.8c-0.8,0-1.4,0.4-1.4,0.8
		C180.5,49.1,181.1,49.5,181.8,49.5z M181.8,54.9c0.8,0,1.4-0.4,1.4-0.9s-0.6-0.9-1.4-0.9s-1.4,0.4-1.4,0.9S181,54.9,181.8,54.9z
		 M181.8,57.6c0.8,0,1.5-0.4,1.5-1c0-0.5-0.7-1-1.5-1c-0.8,0-1.5,0.4-1.5,1C180.3,57.2,181,57.6,181.8,57.6z M181.8,52.2
		c0.8,0,1.4-0.4,1.4-0.9s-0.6-0.9-1.4-0.9c-0.8,0-1.4,0.4-1.4,0.9S181,52.2,181.8,52.2z M166,42.5c-0.7,0-1.3,0.3-1.3,0.8
		c0,0.4,0.6,0.8,1.3,0.8c0.7,0,1.3-0.3,1.3-0.8C167.3,42.9,166.7,42.5,166,42.5z M131,32.6c0-0.3-0.5-0.6-1.2-0.6
		c-0.7,0-1.2,0.3-1.2,0.6s0.5,0.6,1.2,0.6C130.5,33.2,131,33,131,32.6z M162.4,32.6c0-0.3-0.5-0.6-1.2-0.6s-1.2,0.3-1.2,0.6
		s0.5,0.6,1.2,0.6S162.4,33,162.4,32.6z M130.5,38c0-0.4-0.6-0.7-1.3-0.7S128,37.6,128,38s0.6,0.7,1.3,0.7S130.5,38.3,130.5,38z
		 M172.1,13.6c-0.6,0-1,0.1-1,0.3s0.5,0.3,1,0.3c0.6,0,1-0.1,1-0.3S172.7,13.6,172.1,13.6z M131.3,30c0-0.3-0.5-0.6-1.2-0.6
		s-1.2,0.2-1.2,0.6c0,0.3,0.5,0.6,1.2,0.6S131.3,30.3,131.3,30z M131.8,24.6c0-0.3-0.5-0.5-1.1-0.5s-1.1,0.2-1.1,0.5
		s0.5,0.5,1.1,0.5S131.8,24.9,131.8,24.6z M131.5,27.3c0-0.3-0.5-0.5-1.2-0.5c-0.6,0-1.2,0.2-1.2,0.5c0,0.3,0.5,0.5,1.2,0.5
		C131,27.8,131.5,27.6,131.5,27.3z M130.8,35.3c0-0.4-0.6-0.6-1.2-0.6c-0.7,0-1.2,0.3-1.2,0.6c0,0.4,0.6,0.6,1.2,0.6
		C130.2,35.9,130.8,35.6,130.8,35.3z M162.6,27.3c0-0.3-0.5-0.5-1.2-0.5s-1.2,0.2-1.2,0.5c0,0.3,0.5,0.5,1.2,0.5
		S162.6,27.6,162.6,27.3z M162.7,24.6c0-0.3-0.5-0.5-1.1-0.5s-1.1,0.2-1.1,0.5s0.5,0.5,1.1,0.5S162.7,24.9,162.7,24.6z M163,14
		c0-0.2-0.5-0.3-1-0.3c-0.6,0-1,0.1-1,0.3s0.5,0.3,1,0.3C162.6,14.3,163,14.1,163,14z M162.5,30c0-0.3-0.5-0.6-1.2-0.6
		c-0.7,0-1.2,0.2-1.2,0.6c0,0.3,0.5,0.6,1.2,0.6C161.9,30.5,162.5,30.3,162.5,30z M162.9,16.6c0-0.2-0.5-0.4-1.1-0.4
		s-1.1,0.2-1.1,0.4c0,0.2,0.5,0.4,1.1,0.4S162.9,16.8,162.9,16.6z M162.8,22c0-0.2-0.5-0.4-1.1-0.4c-0.6,0-1.1,0.2-1.1,0.4
		c0,0.2,0.5,0.4,1.1,0.4C162.3,22.4,162.8,22.2,162.8,22z M162.9,19.3c0-0.2-0.5-0.4-1.1-0.4s-1.1,0.2-1.1,0.4s0.5,0.4,1.1,0.4
		S162.9,19.5,162.9,19.3z M129.8,22c0,0.2,0.5,0.4,1.1,0.4c0.6,0,1.1-0.2,1.1-0.4c0-0.2-0.5-0.4-1.1-0.4
		C130.3,21.5,129.8,21.7,129.8,22z M136.2,32.6c0-0.3-0.5-0.6-1.2-0.6c-0.7,0-1.2,0.3-1.2,0.6s0.5,0.6,1.2,0.6
		C135.7,33.2,136.2,33,136.2,32.6z M136,35.3c0-0.4-0.6-0.6-1.2-0.6s-1.2,0.3-1.2,0.6c0,0.4,0.6,0.6,1.2,0.6S136,35.6,136,35.3z
		 M136.5,30c0-0.3-0.5-0.6-1.2-0.6s-1.2,0.2-1.2,0.6c0,0.3,0.5,0.6,1.2,0.6S136.5,30.3,136.5,30z M136.7,27.3c0-0.3-0.5-0.5-1.2-0.5
		s-1.2,0.2-1.2,0.5c0,0.3,0.5,0.5,1.2,0.5S136.7,27.6,136.7,27.3z M134.9,22c0,0.2,0.5,0.4,1.1,0.4s1.1-0.2,1.1-0.4
		c0-0.2-0.5-0.4-1.1-0.4S134.9,21.7,134.9,22z M136.9,24.6c0-0.3-0.5-0.5-1.1-0.5s-1.1,0.2-1.1,0.5s0.5,0.5,1.1,0.5
		S136.9,24.9,136.9,24.6z M135.8,38c0-0.4-0.6-0.7-1.3-0.7s-1.3,0.3-1.3,0.7s0.6,0.7,1.3,0.7S135.8,38.3,135.8,38z M133.5,47.8
		c-0.8,0-1.4,0.4-1.4,0.8c0,0.5,0.6,0.8,1.4,0.8c0.8,0,1.4-0.4,1.4-0.8C134.9,48.2,134.3,47.8,133.5,47.8z M133.2,50.4
		c-0.8,0-1.4,0.4-1.4,0.9s0.6,0.9,1.4,0.9s1.4-0.4,1.4-0.9S134,50.4,133.2,50.4z M133,54.9c0.8,0,1.4-0.4,1.4-0.9S133.8,53,133,53
		s-1.4,0.4-1.4,0.9S132.2,54.9,133,54.9z M132.3,19.3c0-0.2-0.5-0.4-1.1-0.4s-1.1,0.2-1.1,0.4s0.5,0.4,1.1,0.4
		S132.3,19.5,132.3,19.3z M135.6,40.6c0-0.4-0.6-0.7-1.3-0.7c-0.7,0-1.3,0.3-1.3,0.7c0,0.4,0.6,0.7,1.3,0.7
		C135,41.3,135.6,41,135.6,40.6z M133.8,45.2c-0.7,0-1.4,0.4-1.4,0.8c0,0.4,0.6,0.8,1.4,0.8s1.4-0.4,1.4-0.8
		C135.1,45.5,134.5,45.2,133.8,45.2z M135.3,43.3c0-0.4-0.6-0.8-1.3-0.8s-1.3,0.3-1.3,0.8c0,0.4,0.6,0.8,1.3,0.8
		S135.3,43.7,135.3,43.3z M127.7,40.6c0,0.4,0.6,0.7,1.3,0.7s1.3-0.3,1.3-0.7c0-0.4-0.6-0.7-1.3-0.7S127.7,40.2,127.7,40.6z
		 M166.1,39.9c-0.7,0-1.3,0.3-1.3,0.7c0,0.4,0.6,0.7,1.3,0.7s1.3-0.3,1.3-0.7C167.4,40.2,166.8,39.9,166.1,39.9z M166.6,26.8
		c-0.6,0-1.2,0.2-1.2,0.5c0,0.3,0.5,0.5,1.2,0.5s1.2-0.2,1.2-0.5C167.7,27,167.2,26.8,166.6,26.8z M165.8,45.2
		c-0.7,0-1.4,0.4-1.4,0.8c0,0.4,0.6,0.8,1.4,0.8c0.7,0,1.4-0.4,1.4-0.8C167.2,45.5,166.6,45.2,165.8,45.2z M166.2,37.3
		c-0.7,0-1.3,0.3-1.3,0.7s0.6,0.7,1.3,0.7s1.3-0.3,1.3-0.7S166.9,37.3,166.2,37.3z M166.3,34.7c-0.7,0-1.2,0.3-1.2,0.6
		c0,0.4,0.6,0.6,1.2,0.6c0.7,0,1.2-0.3,1.2-0.6C167.5,34.9,166.9,34.7,166.3,34.7z M166.5,29.4c-0.7,0-1.2,0.2-1.2,0.6
		c0,0.3,0.5,0.6,1.2,0.6s1.2-0.2,1.2-0.6C167.6,29.6,167.1,29.4,166.5,29.4z M166.4,32c-0.7,0-1.2,0.3-1.2,0.6s0.5,0.6,1.2,0.6
		c0.7,0,1.2-0.3,1.2-0.6S167,32,166.4,32z M137.4,19.3c0-0.2-0.5-0.4-1.1-0.4s-1.1,0.2-1.1,0.4s0.5,0.4,1.1,0.4
		S137.4,19.5,137.4,19.3z M165.4,55.7c-0.8,0-1.5,0.4-1.5,1c0,0.5,0.7,1,1.5,1c0.8,0,1.5-0.4,1.5-1
		C166.9,56.1,166.3,55.7,165.4,55.7z M162.3,35.3c0-0.4-0.6-0.6-1.2-0.6s-1.2,0.3-1.2,0.6c0,0.4,0.6,0.6,1.2,0.6
		S162.3,35.6,162.3,35.3z M172.2,11c-0.6,0-1,0.1-1,0.3c0,0.1,0.4,0.3,1,0.3c0.6,0,1-0.1,1-0.3C173.2,11.1,172.7,11,172.2,11z
		 M165.5,53c-0.8,0-1.4,0.4-1.4,0.9s0.6,0.9,1.4,0.9s1.4-0.4,1.4-0.9S166.3,53,165.5,53z M165.3,58.3c-0.8,0-1.5,0.5-1.5,1
		s0.7,1,1.5,1s1.5-0.5,1.5-1S166.2,58.3,165.3,58.3z M165.6,50.4c-0.8,0-1.4,0.4-1.4,0.9s0.6,0.9,1.4,0.9s1.4-0.4,1.4-0.9
		S166.4,50.4,165.6,50.4z M165.7,47.8c-0.8,0-1.4,0.4-1.4,0.8c0,0.5,0.6,0.8,1.4,0.8s1.4-0.4,1.4-0.8
		C167.1,48.2,166.5,47.8,165.7,47.8z M167.2,11.6c0.6,0,1-0.1,1-0.3c0,0-0.1-0.1-0.1-0.1c-0.6,0.1-1.2,0.1-1.8,0.2
		C166.3,11.5,166.7,11.6,167.2,11.6z M160.4,47.8c-0.8,0-1.4,0.4-1.4,0.8c0,0.5,0.6,0.8,1.4,0.8c0.8,0,1.4-0.4,1.4-0.8
		C161.8,48.2,161.1,47.8,160.4,47.8z M160.2,50.4c-0.8,0-1.4,0.4-1.4,0.9s0.6,0.9,1.4,0.9s1.4-0.4,1.4-0.9S161,50.4,160.2,50.4z
		 M160.1,53c-0.8,0-1.4,0.4-1.4,0.9s0.6,0.9,1.4,0.9s1.4-0.4,1.4-0.9S160.9,53,160.1,53z M160.5,45.2c-0.7,0-1.4,0.4-1.4,0.8
		c0,0.4,0.6,0.8,1.4,0.8c0.7,0,1.4-0.4,1.4-0.8C161.9,45.5,161.2,45.2,160.5,45.2z M166.7,24.1c-0.6,0-1.1,0.2-1.1,0.5
		s0.5,0.5,1.1,0.5s1.1-0.2,1.1-0.5S167.3,24.1,166.7,24.1z M160.8,39.9c-0.7,0-1.3,0.3-1.3,0.7c0,0.4,0.6,0.7,1.3,0.7
		c0.7,0,1.3-0.3,1.3-0.7C162.1,40.2,161.5,39.9,160.8,39.9z M160.6,42.5c-0.7,0-1.3,0.3-1.3,0.8c0,0.4,0.6,0.8,1.3,0.8
		s1.3-0.3,1.3-0.8C162,42.9,161.4,42.5,160.6,42.5z M160.9,37.3c-0.7,0-1.3,0.3-1.3,0.7s0.6,0.7,1.3,0.7s1.3-0.3,1.3-0.7
		S161.6,37.3,160.9,37.3z M166.9,18.9c-0.6,0-1.1,0.2-1.1,0.4s0.5,0.4,1.1,0.4s1.1-0.2,1.1-0.4S167.5,18.9,166.9,18.9z M166.8,21.5
		c-0.6,0-1.1,0.2-1.1,0.4c0,0.2,0.5,0.4,1.1,0.4c0.6,0,1.1-0.2,1.1-0.4C167.9,21.7,167.4,21.5,166.8,21.5z M167,16.3
		c-0.6,0-1.1,0.2-1.1,0.4c0,0.2,0.5,0.4,1.1,0.4s1.1-0.2,1.1-0.4C168,16.4,167.5,16.3,167,16.3z M159.9,58.3c-0.8,0-1.5,0.5-1.5,1
		s0.7,1,1.5,1s1.5-0.5,1.5-1S160.7,58.3,159.9,58.3z M160,55.7c-0.8,0-1.5,0.4-1.5,1c0,0.5,0.7,1,1.5,1c0.8,0,1.5-0.4,1.5-1
		C161.5,56.1,160.8,55.7,160,55.7z M167.1,13.6c-0.6,0-1,0.1-1,0.3s0.5,0.3,1,0.3c0.6,0,1-0.1,1-0.3S167.6,13.6,167.1,13.6z
		 M218.5,41.3c0.7,0,1.3-0.3,1.3-0.7c0-0.4-0.6-0.7-1.3-0.7c-0.7,0-1.3,0.3-1.3,0.7C217.2,41,217.7,41.3,218.5,41.3z M202.6,41.3
		c0.7,0,1.3-0.3,1.3-0.7c0-0.4-0.6-0.7-1.3-0.7c-0.7,0-1.3,0.3-1.3,0.7C201.3,41,201.8,41.3,202.6,41.3z M202.1,25.1
		c0.6,0,1.1-0.2,1.1-0.5s-0.5-0.5-1.1-0.5s-1.1,0.2-1.1,0.5S201.5,25.1,202.1,25.1z M202.3,30.5c0.7,0,1.2-0.2,1.2-0.6
		c0-0.3-0.5-0.6-1.2-0.6c-0.7,0-1.2,0.2-1.2,0.6C201.1,30.3,201.6,30.5,202.3,30.5z M202,22.4c0.6,0,1.1-0.2,1.1-0.4
		c0-0.2-0.5-0.4-1.1-0.4s-1.1,0.2-1.1,0.4C200.9,22.2,201.4,22.4,202,22.4z M202.5,38.6c0.7,0,1.3-0.3,1.3-0.7s-0.6-0.7-1.3-0.7
		s-1.3,0.3-1.3,0.7S201.8,38.6,202.5,38.6z M202.4,35.9c0.7,0,1.2-0.3,1.2-0.6c0-0.4-0.6-0.6-1.2-0.6s-1.2,0.3-1.2,0.6
		C201.2,35.6,201.7,35.9,202.4,35.9z M202.3,33.2c0.7,0,1.2-0.3,1.2-0.6S203,32,202.3,32s-1.2,0.3-1.2,0.6S201.7,33.2,202.3,33.2z
		 M202.2,27.8c0.6,0,1.2-0.2,1.2-0.5c0-0.3-0.5-0.5-1.2-0.5c-0.6,0-1.2,0.2-1.2,0.5C201,27.6,201.5,27.8,202.2,27.8z M208.6,60.3
		c0.8,0,1.5-0.5,1.5-1s-0.7-1-1.5-1c-0.8,0-1.5,0.5-1.5,1S207.7,60.3,208.6,60.3z M208.5,57.6c0.8,0,1.5-0.4,1.5-1
		c0-0.5-0.7-1-1.5-1c-0.8,0-1.5,0.4-1.5,1C207,57.2,207.7,57.6,208.5,57.6z M208.4,54.9c0.8,0,1.4-0.4,1.4-0.9s-0.6-0.9-1.4-0.9
		s-1.4,0.4-1.4,0.9S207.6,54.9,208.4,54.9z M201.9,17c0.6,0,1.1-0.2,1.1-0.4c0-0.2-0.5-0.4-1.1-0.4s-1.1,0.2-1.1,0.4
		C200.8,16.8,201.3,17,201.9,17z M202,19.7c0.6,0,1.1-0.2,1.1-0.4s-0.5-0.4-1.1-0.4c-0.6,0-1.1,0.2-1.1,0.4S201.4,19.7,202,19.7z
		 M201.8,14.3c0.6,0,1-0.1,1-0.3s-0.5-0.3-1-0.3c-0.6,0-1,0.1-1,0.3S201.2,14.3,201.8,14.3z M202.7,11.3c0-0.1-0.4-0.3-1-0.3
		s-1,0.1-1,0.3c0,0.1,0.4,0.3,1,0.3S202.7,11.4,202.7,11.3z M202.9,54.9c0.8,0,1.4-0.4,1.4-0.9s-0.6-0.9-1.4-0.9
		c-0.8,0-1.4,0.4-1.4,0.9S202.1,54.9,202.9,54.9z M202.6,44.1c0.7,0,1.3-0.3,1.3-0.8c0-0.4-0.6-0.8-1.3-0.8c-0.7,0-1.3,0.3-1.3,0.8
		C201.3,43.7,201.9,44.1,202.6,44.1z M196.9,19.7c0.6,0,1.1-0.2,1.1-0.4s-0.5-0.4-1.1-0.4s-1.1,0.2-1.1,0.4S196.3,19.7,196.9,19.7z
		 M197.7,11.3c0-0.1-0.4-0.3-1-0.3c-0.6,0-1,0.1-1,0.3c0,0.1,0.4,0.3,1,0.3C197.3,11.6,197.7,11.4,197.7,11.3z M196.8,17
		c0.6,0,1.1-0.2,1.1-0.4c0-0.2-0.5-0.4-1.1-0.4c-0.6,0-1.1,0.2-1.1,0.4C195.8,16.8,196.2,17,196.8,17z M196.9,22.4
		c0.6,0,1.1-0.2,1.1-0.4c0-0.2-0.5-0.4-1.1-0.4s-1.1,0.2-1.1,0.4C195.8,22.2,196.3,22.4,196.9,22.4z M197,27.8
		c0.6,0,1.2-0.2,1.2-0.5c0-0.3-0.5-0.5-1.2-0.5c-0.6,0-1.2,0.2-1.2,0.5C195.8,27.6,196.4,27.8,197,27.8z M197,25.1
		c0.6,0,1.1-0.2,1.1-0.5s-0.5-0.5-1.1-0.5s-1.1,0.2-1.1,0.5S196.3,25.1,197,25.1z M196.8,14.3c0.6,0,1-0.1,1-0.3s-0.5-0.3-1-0.3
		c-0.6,0-1,0.1-1,0.3S196.2,14.3,196.8,14.3z M202.9,52.2c0.8,0,1.4-0.4,1.4-0.9s-0.6-0.9-1.4-0.9s-1.4,0.4-1.4,0.9
		S202.1,52.2,202.9,52.2z M212.1,19.7c0.6,0,1.1-0.2,1.1-0.4s-0.5-0.4-1.1-0.4c-0.6,0-1.1,0.2-1.1,0.4S211.5,19.7,212.1,19.7z
		 M202.7,46.8c0.7,0,1.4-0.4,1.4-0.8c0-0.4-0.6-0.8-1.4-0.8c-0.7,0-1.4,0.4-1.4,0.8C201.4,46.4,202,46.8,202.7,46.8z M203.1,60.3
		c0.8,0,1.5-0.5,1.5-1s-0.7-1-1.5-1c-0.8,0-1.5,0.5-1.5,1S202.3,60.3,203.1,60.3z M197.1,30.5c0.7,0,1.2-0.2,1.2-0.6
		c0-0.3-0.5-0.6-1.2-0.6c-0.7,0-1.2,0.2-1.2,0.6C195.9,30.3,196.4,30.5,197.1,30.5z M208.3,52.2c0.8,0,1.4-0.4,1.4-0.9
		s-0.6-0.9-1.4-0.9c-0.8,0-1.4,0.4-1.4,0.9S207.5,52.2,208.3,52.2z M203,57.6c0.8,0,1.5-0.4,1.5-1c0-0.5-0.7-1-1.5-1
		c-0.8,0-1.5,0.4-1.5,1C201.6,57.2,202.2,57.6,203,57.6z M203.2,63c0.8,0,1.5-0.5,1.5-1s-0.7-1-1.5-1s-1.5,0.5-1.5,1
		S202.3,63,203.2,63z M213.4,46.8c0.7,0,1.4-0.4,1.4-0.8c0-0.4-0.6-0.8-1.4-0.8s-1.4,0.4-1.4,0.8C212.1,46.4,212.7,46.8,213.4,46.8z
		 M213.3,44.1c0.7,0,1.3-0.3,1.3-0.8c0-0.4-0.6-0.8-1.3-0.8c-0.7,0-1.3,0.3-1.3,0.8C212,43.7,212.6,44.1,213.3,44.1z M213.5,49.5
		c0.8,0,1.4-0.4,1.4-0.8c0-0.5-0.6-0.8-1.4-0.8s-1.4,0.4-1.4,0.8C212.2,49.1,212.8,49.5,213.5,49.5z M213.9,57.6
		c0.8,0,1.5-0.4,1.5-1c0-0.5-0.7-1-1.5-1s-1.5,0.4-1.5,1C212.5,57.2,213.1,57.6,213.9,57.6z M214,60.3c0.8,0,1.5-0.5,1.5-1
		s-0.7-1-1.5-1c-0.8,0-1.5,0.5-1.5,1S213.2,60.3,214,60.3z M213.8,54.9c0.8,0,1.4-0.4,1.4-0.9s-0.6-0.9-1.4-0.9
		c-0.8,0-1.4,0.4-1.4,0.9S213,54.9,213.8,54.9z M213.7,52.2c0.8,0,1.4-0.4,1.4-0.9s-0.6-0.9-1.4-0.9c-0.8,0-1.4,0.4-1.4,0.9
		S212.9,52.2,213.7,52.2z M213.2,41.3c0.7,0,1.3-0.3,1.3-0.7c0-0.4-0.6-0.7-1.3-0.7s-1.3,0.3-1.3,0.7
		C211.9,41,212.4,41.3,213.2,41.3z M212.4,25.1c0.6,0,1.1-0.2,1.1-0.5s-0.5-0.5-1.1-0.5s-1.1,0.2-1.1,0.5S211.8,25.1,212.4,25.1z
		 M213,38.6c0.7,0,1.3-0.3,1.3-0.7s-0.6-0.7-1.3-0.7c-0.7,0-1.3,0.3-1.3,0.7S212.3,38.6,213,38.6z M212.3,22.4
		c0.6,0,1.1-0.2,1.1-0.4c0-0.2-0.5-0.4-1.1-0.4s-1.1,0.2-1.1,0.4C211.2,22.2,211.7,22.4,212.3,22.4z M212.5,27.8
		c0.6,0,1.2-0.2,1.2-0.5c0-0.3-0.5-0.5-1.2-0.5c-0.6,0-1.2,0.2-1.2,0.5C211.4,27.6,211.9,27.8,212.5,27.8z M208.2,49.5
		c0.8,0,1.4-0.4,1.4-0.8c0-0.5-0.6-0.8-1.4-0.8c-0.8,0-1.4,0.4-1.4,0.8C206.8,49.1,207.4,49.5,208.2,49.5z M212.9,35.9
		c0.7,0,1.2-0.3,1.2-0.6c0-0.4-0.6-0.6-1.2-0.6c-0.7,0-1.2,0.3-1.2,0.6C211.7,35.6,212.2,35.9,212.9,35.9z M212.8,33.2
		c0.7,0,1.2-0.3,1.2-0.6s-0.5-0.6-1.2-0.6s-1.2,0.3-1.2,0.6S212.1,33.2,212.8,33.2z M212.6,30.5c0.7,0,1.2-0.2,1.2-0.6
		c0-0.3-0.5-0.6-1.2-0.6s-1.2,0.2-1.2,0.6C211.5,30.3,212,30.5,212.6,30.5z M207.8,38.6c0.7,0,1.3-0.3,1.3-0.7s-0.6-0.7-1.3-0.7
		s-1.3,0.3-1.3,0.7S207.1,38.6,207.8,38.6z M207.7,35.9c0.7,0,1.2-0.3,1.2-0.6c0-0.4-0.6-0.6-1.2-0.6s-1.2,0.3-1.2,0.6
		C206.4,35.6,207,35.9,207.7,35.9z M207.6,33.2c0.7,0,1.2-0.3,1.2-0.6s-0.5-0.6-1.2-0.6s-1.2,0.3-1.2,0.6S206.9,33.2,207.6,33.2z
		 M207.5,30.5c0.7,0,1.2-0.2,1.2-0.6c0-0.3-0.5-0.6-1.2-0.6c-0.7,0-1.2,0.2-1.2,0.6C206.3,30.3,206.8,30.5,207.5,30.5z M208.1,46.8
		c0.7,0,1.4-0.4,1.4-0.8c0-0.4-0.6-0.8-1.4-0.8c-0.7,0-1.4,0.4-1.4,0.8C206.7,46.4,207.3,46.8,208.1,46.8z M208,44.1
		c0.7,0,1.3-0.3,1.3-0.8c0-0.4-0.6-0.8-1.3-0.8s-1.3,0.3-1.3,0.8C206.6,43.7,207.2,44.1,208,44.1z M207.9,41.3
		c0.7,0,1.3-0.3,1.3-0.7c0-0.4-0.6-0.7-1.3-0.7c-0.7,0-1.3,0.3-1.3,0.7C206.6,41,207.1,41.3,207.9,41.3z M207.9,14
		c0-0.2-0.5-0.3-1-0.3s-1,0.1-1,0.3s0.5,0.3,1,0.3S207.9,14.1,207.9,14z M211.9,11.6c-0.3,0-0.6-0.1-0.9-0.1
		c0.2,0.1,0.4,0.1,0.8,0.1C211.8,11.6,211.9,11.6,211.9,11.6z M206.9,17c0.6,0,1.1-0.2,1.1-0.4c0-0.2-0.5-0.4-1.1-0.4
		s-1.1,0.2-1.1,0.4C205.9,16.8,206.4,17,206.9,17z M207,19.7c0.6,0,1.1-0.2,1.1-0.4s-0.5-0.4-1.1-0.4c-0.6,0-1.1,0.2-1.1,0.4
		S206.4,19.7,207,19.7z M207.1,22.4c0.6,0,1.1-0.2,1.1-0.4c0-0.2-0.5-0.4-1.1-0.4S206,21.7,206,22C206,22.2,206.5,22.4,207.1,22.4z
		 M207.4,27.8c0.6,0,1.2-0.2,1.2-0.5c0-0.3-0.5-0.5-1.2-0.5c-0.6,0-1.2,0.2-1.2,0.5C206.2,27.6,206.7,27.8,207.4,27.8z M207.2,25.1
		c0.6,0,1.1-0.2,1.1-0.5s-0.5-0.5-1.1-0.5s-1.1,0.2-1.1,0.5S206.6,25.1,207.2,25.1z M202.8,49.5c0.8,0,1.4-0.4,1.4-0.8
		c0-0.5-0.6-0.8-1.4-0.8s-1.4,0.4-1.4,0.8C201.4,49.1,202,49.5,202.8,49.5z M187,30.5c0.7,0,1.2-0.2,1.2-0.6c0-0.3-0.5-0.6-1.2-0.6
		s-1.2,0.2-1.2,0.6C185.8,30.3,186.3,30.5,187,30.5z M187,33.2c0.7,0,1.2-0.3,1.2-0.6S187.6,32,187,32s-1.2,0.3-1.2,0.6
		S186.3,33.2,187,33.2z M187,38.6c0.7,0,1.3-0.3,1.3-0.7s-0.6-0.7-1.3-0.7s-1.3,0.3-1.3,0.7S186.3,38.6,187,38.6z M187,35.9
		c0.7,0,1.2-0.3,1.2-0.6c0-0.4-0.6-0.6-1.2-0.6s-1.2,0.3-1.2,0.6C185.7,35.6,186.3,35.9,187,35.9z M264.1,35.3
		c0,0.4,0.6,0.6,1.2,0.6c0.3,0,0.6-0.1,0.8-0.2c-0.1-0.3-0.1-0.7-0.3-1.1c-0.2,0-0.3-0.1-0.5-0.1C264.7,34.7,264.1,34.9,264.1,35.3z
		 M187,46.8c0.7,0,1.4-0.4,1.4-0.8c0-0.4-0.6-0.8-1.4-0.8s-1.4,0.4-1.4,0.8C185.6,46.4,186.2,46.8,187,46.8z M187,44.1
		c0.7,0,1.3-0.3,1.3-0.8c0-0.4-0.6-0.8-1.3-0.8c-0.7,0-1.3,0.3-1.3,0.8C185.6,43.7,186.2,44.1,187,44.1z M187,27.8
		c0.6,0,1.2-0.2,1.2-0.5c0-0.3-0.5-0.5-1.2-0.5c-0.6,0-1.2,0.2-1.2,0.5C185.8,27.6,186.3,27.8,187,27.8z M187,49.5
		c0.8,0,1.4-0.4,1.4-0.8c0-0.5-0.6-0.8-1.4-0.8c-0.8,0-1.4,0.4-1.4,0.8C185.6,49.1,186.2,49.5,187,49.5z M187,11.6
		c0.6,0,1-0.1,1-0.3c0-0.1-0.4-0.3-1-0.3s-1,0.1-1,0.3C186,11.4,186.4,11.6,187,11.6z M187,14.3c0.6,0,1-0.1,1-0.3s-0.5-0.3-1-0.3
		c-0.6,0-1,0.1-1,0.3S186.4,14.3,187,14.3z M197.1,33.2c0.7,0,1.2-0.3,1.2-0.6s-0.5-0.6-1.2-0.6s-1.2,0.3-1.2,0.6
		S196.4,33.2,197.1,33.2z M187,25.1c0.6,0,1.1-0.2,1.1-0.5s-0.5-0.5-1.1-0.5s-1.1,0.2-1.1,0.5S186.3,25.1,187,25.1z M187,22.4
		c0.6,0,1.1-0.2,1.1-0.4c0-0.2-0.5-0.4-1.1-0.4c-0.6,0-1.1,0.2-1.1,0.4C185.8,22.2,186.3,22.4,187,22.4z M187,19.7
		c0.6,0,1.1-0.2,1.1-0.4s-0.5-0.4-1.1-0.4c-0.6,0-1.1,0.2-1.1,0.4S186.4,19.7,187,19.7z M256.5,47.8c-0.8,0-1.4,0.4-1.4,0.8
		c0,0.5,0.6,0.8,1.4,0.8c0,0,0,0,0,0c0.5-0.3,0.9-0.6,1.4-0.9C257.9,48.1,257.3,47.8,256.5,47.8z M245.5,46.8c0.7,0,1.4-0.4,1.4-0.8
		c0-0.4-0.6-0.8-1.4-0.8c-0.7,0-1.4,0.4-1.4,0.8C244.1,46.4,244.8,46.8,245.5,46.8z M246.3,53c-0.8,0-1.4,0.4-1.4,0.9
		c0,0.4,0.3,0.7,0.8,0.8c0.7-0.3,1.4-0.6,2.1-0.8C247.7,53.4,247.1,53,246.3,53z M246.6,43.3c0-0.4-0.6-0.8-1.3-0.8
		s-1.3,0.3-1.3,0.8c0,0.4,0.6,0.8,1.3,0.8S246.6,43.7,246.6,43.3z M210.2,62c0-0.6-0.7-1-1.5-1c-0.8,0-1.5,0.5-1.5,1
		c0,0.3,0.2,0.6,0.6,0.8c0.7-0.1,1.4-0.1,2.2-0.2C210.1,62.4,210.2,62.2,210.2,62z M262,45.2c-0.1,0-0.3,0-0.4,0
		c-0.7,0-1.4,0.4-1.4,0.8c0,0.2,0.1,0.4,0.4,0.5C261.1,46.1,261.6,45.6,262,45.2z M251.5,50.4c-0.8,0-1.4,0.4-1.4,0.9
		s0.6,0.9,1.4,0.9c0.1,0,0.2,0,0.2,0c0.4-0.2,0.7-0.4,1.1-0.5c0.1-0.1,0.1-0.2,0.1-0.3C252.9,50.8,252.2,50.4,251.5,50.4z M187,52.2
		c0.8,0,1.4-0.4,1.4-0.9s-0.6-0.9-1.4-0.9c-0.8,0-1.4,0.4-1.4,0.9S186.2,52.2,187,52.2z M192.2,63c0.8,0,1.5-0.5,1.5-1s-0.7-1-1.5-1
		s-1.5,0.5-1.5,1S191.4,63,192.2,63z M187,57.6c0.8,0,1.5-0.4,1.5-1c0-0.5-0.7-1-1.5-1c-0.8,0-1.5,0.4-1.5,1
		C185.5,57.2,186.1,57.6,187,57.6z M187,60.3c0.8,0,1.5-0.5,1.5-1s-0.7-1-1.5-1s-1.5,0.5-1.5,1S186.1,60.3,187,60.3z M192.2,63.5
		c-0.3,0-0.5,0.1-0.7,0.1c0.5,0,0.9,0,1.4,0C192.7,63.6,192.4,63.5,192.2,63.5z M187,54.9c0.8,0,1.4-0.4,1.4-0.9S187.7,53,187,53
		s-1.4,0.4-1.4,0.9S186.2,54.9,187,54.9z M187.8,63.7c-0.2-0.1-0.5-0.2-0.8-0.2s-0.6,0.1-0.8,0.2c0.3,0,0.6,0,0.8,0
		C187.2,63.7,187.5,63.7,187.8,63.7z M187,63c0.8,0,1.5-0.5,1.5-1s-0.7-1-1.5-1s-1.5,0.5-1.5,1S186.1,63,187,63z M187,17
		c0.6,0,1.1-0.2,1.1-0.4c0-0.2-0.5-0.4-1.1-0.4s-1.1,0.2-1.1,0.4C185.9,16.8,186.4,17,187,17z M197.6,60.3c0.8,0,1.5-0.5,1.5-1
		s-0.7-1-1.5-1s-1.5,0.5-1.5,1S196.8,60.3,197.6,60.3z M197.5,54.9c0.8,0,1.4-0.4,1.4-0.9s-0.6-0.9-1.4-0.9s-1.4,0.4-1.4,0.9
		S196.7,54.9,197.5,54.9z M197.6,57.6c0.8,0,1.5-0.4,1.5-1c0-0.5-0.7-1-1.5-1c-0.8,0-1.5,0.4-1.5,1
		C196.1,57.2,196.8,57.6,197.6,57.6z M197.7,63c0.8,0,1.5-0.5,1.5-1s-0.7-1-1.5-1s-1.5,0.5-1.5,1S196.8,63,197.7,63z M191.8,17
		c0.6,0,1.1-0.2,1.1-0.4c0-0.2-0.5-0.4-1.1-0.4c-0.6,0-1.1,0.2-1.1,0.4C190.7,16.8,191.2,17,191.8,17z M191.7,14.3
		c0.6,0,1-0.1,1-0.3s-0.5-0.3-1-0.3c-0.6,0-1,0.1-1,0.3S191.2,14.3,191.7,14.3z M191.7,11.6c0.6,0,1-0.1,1-0.3c0-0.1-0.4-0.3-1-0.3
		c-0.6,0-1,0.1-1,0.3C190.7,11.4,191.2,11.6,191.7,11.6z M197.3,44.1c0.7,0,1.3-0.3,1.3-0.8c0-0.4-0.6-0.8-1.3-0.8s-1.3,0.3-1.3,0.8
		C196,43.7,196.6,44.1,197.3,44.1z M197.5,52.2c0.8,0,1.4-0.4,1.4-0.9s-0.6-0.9-1.4-0.9c-0.8,0-1.4,0.4-1.4,0.9
		S196.7,52.2,197.5,52.2z M197.3,41.3c0.7,0,1.3-0.3,1.3-0.7c0-0.4-0.6-0.7-1.3-0.7s-1.3,0.3-1.3,0.7C196,41,196.5,41.3,197.3,41.3z
		 M197.2,35.9c0.7,0,1.2-0.3,1.2-0.6c0-0.4-0.6-0.6-1.2-0.6c-0.7,0-1.2,0.3-1.2,0.6C195.9,35.6,196.5,35.9,197.2,35.9z M197.2,38.6
		c0.7,0,1.3-0.3,1.3-0.7s-0.6-0.7-1.3-0.7s-1.3,0.3-1.3,0.7S196.5,38.6,197.2,38.6z M197.4,49.5c0.8,0,1.4-0.4,1.4-0.8
		c0-0.5-0.6-0.8-1.4-0.8c-0.8,0-1.4,0.4-1.4,0.8C196,49.1,196.7,49.5,197.4,49.5z M197.4,46.8c0.7,0,1.4-0.4,1.4-0.8
		c0-0.4-0.6-0.8-1.4-0.8S196,45.5,196,46C196,46.4,196.6,46.8,197.4,46.8z M191.8,19.7c0.6,0,1.1-0.2,1.1-0.4s-0.5-0.4-1.1-0.4
		c-0.6,0-1.1,0.2-1.1,0.4S191.2,19.7,191.8,19.7z M192.2,60.3c0.8,0,1.5-0.5,1.5-1s-0.7-1-1.5-1c-0.8,0-1.5,0.5-1.5,1
		S191.3,60.3,192.2,60.3z M192,46.8c0.7,0,1.4-0.4,1.4-0.8c0-0.4-0.6-0.8-1.4-0.8s-1.4,0.4-1.4,0.8C190.7,46.4,191.3,46.8,192,46.8z
		 M191.8,22.4c0.6,0,1.1-0.2,1.1-0.4c0-0.2-0.5-0.4-1.1-0.4c-0.6,0-1.1,0.2-1.1,0.4C190.7,22.2,191.2,22.4,191.8,22.4z M192,44.1
		c0.7,0,1.3-0.3,1.3-0.8c0-0.4-0.6-0.8-1.3-0.8s-1.3,0.3-1.3,0.8C190.7,43.7,191.3,44.1,192,44.1z M192.1,57.6c0.8,0,1.5-0.4,1.5-1
		c0-0.5-0.7-1-1.5-1c-0.8,0-1.5,0.4-1.5,1C190.7,57.2,191.3,57.6,192.1,57.6z M192.1,52.2c0.8,0,1.4-0.4,1.4-0.9s-0.6-0.9-1.4-0.9
		c-0.8,0-1.4,0.4-1.4,0.9S191.3,52.2,192.1,52.2z M192,41.3c0.7,0,1.3-0.3,1.3-0.7c0-0.4-0.6-0.7-1.3-0.7s-1.3,0.3-1.3,0.7
		C190.7,41,191.3,41.3,192,41.3z M192.1,54.9c0.8,0,1.4-0.4,1.4-0.9s-0.6-0.9-1.4-0.9s-1.4,0.4-1.4,0.9S191.3,54.9,192.1,54.9z
		 M192.1,49.5c0.8,0,1.4-0.4,1.4-0.8c0-0.5-0.6-0.8-1.4-0.8c-0.8,0-1.4,0.4-1.4,0.8C190.7,49.1,191.3,49.5,192.1,49.5z M192,38.6
		c0.7,0,1.3-0.3,1.3-0.7s-0.6-0.7-1.3-0.7s-1.3,0.3-1.3,0.7S191.3,38.6,192,38.6z M191.8,25.1c0.6,0,1.1-0.2,1.1-0.5
		s-0.5-0.5-1.1-0.5s-1.1,0.2-1.1,0.5S191.2,25.1,191.8,25.1z M191.9,30.5c0.7,0,1.2-0.2,1.2-0.6c0-0.3-0.5-0.6-1.2-0.6
		c-0.7,0-1.2,0.2-1.2,0.6C190.7,30.3,191.2,30.5,191.9,30.5z M191.9,27.8c0.6,0,1.2-0.2,1.2-0.5c0-0.3-0.5-0.5-1.2-0.5
		c-0.6,0-1.2,0.2-1.2,0.5C190.7,27.6,191.2,27.8,191.9,27.8z M191.9,35.9c0.7,0,1.2-0.3,1.2-0.6c0-0.4-0.6-0.6-1.2-0.6
		s-1.2,0.3-1.2,0.6C190.7,35.6,191.2,35.9,191.9,35.9z M191.9,33.2c0.7,0,1.2-0.3,1.2-0.6s-0.5-0.6-1.2-0.6s-1.2,0.3-1.2,0.6
		S191.2,33.2,191.9,33.2z M187,41.3c0.7,0,1.3-0.3,1.3-0.7c0-0.4-0.6-0.7-1.3-0.7s-1.3,0.3-1.3,0.7C185.7,41,186.2,41.3,187,41.3z
		 M218.6,44.1c0.7,0,1.3-0.3,1.3-0.8c0-0.4-0.6-0.8-1.3-0.8c-0.7,0-1.3,0.3-1.3,0.8C217.3,43.7,217.9,44.1,218.6,44.1z M218.3,38.6
		c0.7,0,1.3-0.3,1.3-0.7s-0.6-0.7-1.3-0.7c-0.7,0-1.3,0.3-1.3,0.7S217.6,38.6,218.3,38.6z M219.4,57.6c0.8,0,1.5-0.4,1.5-1
		c0-0.5-0.7-1-1.5-1c-0.8,0-1.5,0.4-1.5,1C217.9,57.2,218.6,57.6,219.4,57.6z M218.2,35.9c0.7,0,1.2-0.3,1.2-0.6
		c0-0.4-0.6-0.6-1.2-0.6c-0.7,0-1.2,0.3-1.2,0.6C216.9,35.6,217.5,35.9,218.2,35.9z M219.2,54.9c0.8,0,1.4-0.4,1.4-0.9
		S220,53,219.2,53s-1.4,0.4-1.4,0.9S218.4,54.9,219.2,54.9z M219.1,52.2c0.8,0,1.4-0.4,1.4-0.9s-0.6-0.9-1.4-0.9s-1.4,0.4-1.4,0.9
		S218.3,52.2,219.1,52.2z M218.9,49.5c0.8,0,1.4-0.4,1.4-0.8c0-0.5-0.6-0.8-1.4-0.8c-0.8,0-1.4,0.4-1.4,0.8
		C217.5,49.1,218.1,49.5,218.9,49.5z M218.8,46.8c0.7,0,1.4-0.4,1.4-0.8c0-0.4-0.6-0.8-1.4-0.8s-1.4,0.4-1.4,0.8
		C217.4,46.4,218,46.8,218.8,46.8z M217.4,22.4c0.6,0,1.1-0.2,1.1-0.4c0-0.2-0.5-0.4-1.1-0.4c-0.6,0-1.1,0.2-1.1,0.4
		C216.3,22.2,216.8,22.4,217.4,22.4z M217.2,19.7c0.6,0,1.1-0.2,1.1-0.4s-0.5-0.4-1.1-0.4c-0.6,0-1.1,0.2-1.1,0.4
		S216.6,19.7,217.2,19.7z M218,14c0-0.2-0.5-0.3-1-0.3c-0.6,0-1,0.1-1,0.3s0.5,0.3,1,0.3C217.5,14.3,218,14.1,218,14z M217.5,25.1
		c0.6,0,1.1-0.2,1.1-0.5s-0.5-0.5-1.1-0.5s-1.1,0.2-1.1,0.5S216.9,25.1,217.5,25.1z M217.8,30.5c0.7,0,1.2-0.2,1.2-0.6
		c0-0.3-0.5-0.6-1.2-0.6s-1.2,0.2-1.2,0.6C216.7,30.3,217.2,30.5,217.8,30.5z M217.7,27.8c0.6,0,1.2-0.2,1.2-0.5
		c0-0.3-0.5-0.5-1.2-0.5c-0.6,0-1.2,0.2-1.2,0.5C216.5,27.6,217.1,27.8,217.7,27.8z M218,33.2c0.7,0,1.2-0.3,1.2-0.6
		S218.7,32,218,32s-1.2,0.3-1.2,0.6S217.3,33.2,218,33.2z M223.2,33.2c0.7,0,1.2-0.3,1.2-0.6s-0.5-0.6-1.2-0.6s-1.2,0.3-1.2,0.6
		S222.5,33.2,223.2,33.2z M223.4,35.9c0.7,0,1.2-0.3,1.2-0.6c0-0.4-0.6-0.6-1.2-0.6s-1.2,0.3-1.2,0.6
		C222.2,35.6,222.7,35.9,223.4,35.9z M217.1,17c0.6,0,1.1-0.2,1.1-0.4c0-0.2-0.5-0.4-1.1-0.4s-1.1,0.2-1.1,0.4
		C216,16.8,216.5,17,217.1,17z M223.6,38.6c0.7,0,1.3-0.3,1.3-0.7s-0.6-0.7-1.3-0.7c-0.7,0-1.3,0.3-1.3,0.7S222.9,38.6,223.6,38.6z
		 M223,30.5c0.7,0,1.2-0.2,1.2-0.6c0-0.3-0.5-0.6-1.2-0.6s-1.2,0.2-1.2,0.6C221.9,30.3,222.4,30.5,223,30.5z M223.8,41.3
		c0.7,0,1.3-0.3,1.3-0.7c0-0.4-0.6-0.7-1.3-0.7s-1.3,0.3-1.3,0.7C222.5,41,223,41.3,223.8,41.3z M224.1,46.8c0.7,0,1.4-0.4,1.4-0.8
		c0-0.4-0.6-0.8-1.4-0.8c-0.7,0-1.4,0.4-1.4,0.8C222.8,46.4,223.4,46.8,224.1,46.8z M224.3,49.5c0.8,0,1.4-0.4,1.4-0.8
		c0-0.5-0.6-0.8-1.4-0.8s-1.4,0.4-1.4,0.8C222.9,49.1,223.5,49.5,224.3,49.5z M222,14.3c0.6,0,1-0.1,1-0.3s-0.5-0.3-1-0.3
		s-1,0.1-1,0.3S221.4,14.3,222,14.3z M222.2,17c0.6,0,1.1-0.2,1.1-0.4c0-0.2-0.5-0.4-1.1-0.4s-1.1,0.2-1.1,0.4
		C221.1,16.8,221.6,17,222.2,17z M219.5,60.3c0.8,0,1.5-0.5,1.5-1s-0.7-1-1.5-1s-1.5,0.5-1.5,1S218.7,60.3,219.5,60.3z M222.9,27.8
		c0.6,0,1.2-0.2,1.2-0.5c0-0.3-0.5-0.5-1.2-0.5c-0.6,0-1.2,0.2-1.2,0.5C221.7,27.6,222.2,27.8,222.9,27.8z M222.3,19.7
		c0.6,0,1.1-0.2,1.1-0.4s-0.5-0.4-1.1-0.4c-0.6,0-1.1,0.2-1.1,0.4S221.7,19.7,222.3,19.7z M222.7,25.1c0.6,0,1.1-0.2,1.1-0.5
		s-0.5-0.5-1.1-0.5s-1.1,0.2-1.1,0.5S222.1,25.1,222.7,25.1z M222.5,22.4c0.6,0,1.1-0.2,1.1-0.4c0-0.2-0.5-0.4-1.1-0.4
		c-0.6,0-1.1,0.2-1.1,0.4C221.4,22.2,221.9,22.4,222.5,22.4z M223.9,44.1c0.7,0,1.3-0.3,1.3-0.8c0-0.4-0.6-0.8-1.3-0.8
		c-0.7,0-1.3,0.3-1.3,0.8C222.6,43.7,223.2,44.1,223.9,44.1z M250.9,46.8c0.7,0,1.4-0.4,1.4-0.8c0-0.4-0.6-0.8-1.4-0.8
		c-0.7,0-1.4,0.4-1.4,0.8C249.5,46.4,250.1,46.8,250.9,46.8z M250.5,44.1c0.7,0,1.3-0.3,1.3-0.8c0-0.4-0.6-0.8-1.3-0.8
		c-0.7,0-1.3,0.3-1.3,0.8C249.2,43.7,249.8,44.1,250.5,44.1z M250.2,41.3c0.7,0,1.3-0.3,1.3-0.7c0-0.4-0.6-0.7-1.3-0.7
		s-1.3,0.3-1.3,0.7C248.9,41,249.5,41.3,250.2,41.3z M253.9,27.8c0.6,0,1.2-0.2,1.2-0.5c0-0.3-0.5-0.5-1.2-0.5
		c-0.6,0-1.2,0.2-1.2,0.5C252.7,27.6,253.2,27.8,253.9,27.8z M251.2,49.5c0.8,0,1.4-0.4,1.4-0.8c0-0.5-0.6-0.8-1.4-0.8
		s-1.4,0.4-1.4,0.8C249.8,49.1,250.4,49.5,251.2,49.5z M250.9,35.3c0-0.4-0.6-0.6-1.2-0.6s-1.2,0.3-1.2,0.6c0,0.4,0.6,0.6,1.2,0.6
		S250.9,35.6,250.9,35.3z M254.7,24.6c0-0.3-0.5-0.5-1.1-0.5s-1.1,0.2-1.1,0.5s0.5,0.5,1.1,0.5S254.7,24.9,254.7,24.6z M263.8,32.6
		c0,0.3,0.5,0.6,1.2,0.6c0.1,0,0.1,0,0.2,0c-0.2-0.4-0.4-0.7-0.7-1.1C264.1,32.2,263.8,32.4,263.8,32.6z M260.5,38.6
		c0.7,0,1.3-0.3,1.3-0.7s-0.6-0.7-1.3-0.7s-1.3,0.3-1.3,0.7S259.8,38.6,260.5,38.6z M246.7,19.3c0,0.2,0.5,0.4,1.1,0.4
		c0.2,0,0.4,0,0.5-0.1c-0.5-0.2-1-0.4-1.5-0.5C246.8,19.2,246.7,19.2,246.7,19.3z M254.2,30.5c0.7,0,1.2-0.2,1.2-0.6
		c0-0.3-0.5-0.6-1.2-0.6c-0.7,0-1.2,0.2-1.2,0.6C253,30.3,253.6,30.5,254.2,30.5z M249.9,38.6c0.7,0,1.3-0.3,1.3-0.7
		s-0.6-0.7-1.3-0.7c-0.7,0-1.3,0.3-1.3,0.7S249.2,38.6,249.9,38.6z M264.9,40.6c0,0.1,0.1,0.3,0.2,0.4c0.2-0.3,0.3-0.7,0.5-1
		C265.1,40.1,264.9,40.3,264.9,40.6z M260.9,41.3c0.7,0,1.3-0.3,1.3-0.7c0-0.4-0.6-0.7-1.3-0.7s-1.3,0.3-1.3,0.7
		C259.6,41,260.2,41.3,260.9,41.3z M261.2,44.1c0.7,0,1.3-0.3,1.3-0.8c0-0.4-0.6-0.8-1.3-0.8c-0.7,0-1.3,0.3-1.3,0.8
		C259.9,43.7,260.5,44.1,261.2,44.1z M260.2,35.9c0.7,0,1.2-0.3,1.2-0.6c0-0.4-0.6-0.6-1.2-0.6s-1.2,0.3-1.2,0.6
		C258.9,35.6,259.5,35.9,260.2,35.9z M245.8,47.8c-0.8,0-1.4,0.4-1.4,0.8c0,0.5,0.6,0.8,1.4,0.8c0.8,0,1.4-0.4,1.4-0.8
		C247.2,48.2,246.5,47.8,245.8,47.8z M248.1,32.6c0,0.3,0.5,0.6,1.2,0.6c0.7,0,1.2-0.3,1.2-0.6S250,32,249.3,32
		C248.7,32,248.1,32.3,248.1,32.6z M254.6,33.2c0.7,0,1.2-0.3,1.2-0.6s-0.5-0.6-1.2-0.6s-1.2,0.3-1.2,0.6S253.9,33.2,254.6,33.2z
		 M249.2,22c0-0.2-0.5-0.4-1.1-0.4c-0.6,0-1.1,0.2-1.1,0.4c0,0.2,0.5,0.4,1.1,0.4C248.7,22.4,249.2,22.2,249.2,22z M246.1,52.2
		c0.8,0,1.4-0.4,1.4-0.9s-0.6-0.9-1.4-0.9c-0.8,0-1.4,0.4-1.4,0.9S245.3,52.2,246.1,52.2z M248.7,27.8c0.6,0,1.2-0.2,1.2-0.5
		c0-0.3-0.5-0.5-1.2-0.5c-0.6,0-1.2,0.2-1.2,0.5C247.6,27.6,248.1,27.8,248.7,27.8z M212.9,14c0-0.2-0.5-0.3-1-0.3
		c-0.6,0-1,0.1-1,0.3s0.5,0.3,1,0.3C212.5,14.3,212.9,14.1,212.9,14z M249,29.4c-0.7,0-1.2,0.2-1.2,0.6c0,0.3,0.5,0.6,1.2,0.6
		c0.7,0,1.2-0.2,1.2-0.6C250.2,29.6,249.7,29.4,249,29.4z M255.2,38.6c0.7,0,1.3-0.3,1.3-0.7s-0.6-0.7-1.3-0.7
		c-0.7,0-1.3,0.3-1.3,0.7S254.5,38.6,255.2,38.6z M254.9,35.9c0.7,0,1.2-0.3,1.2-0.6c0-0.4-0.6-0.6-1.2-0.6c-0.7,0-1.2,0.3-1.2,0.6
		C253.6,35.6,254.2,35.9,254.9,35.9z M255.5,41.3c0.7,0,1.3-0.3,1.3-0.7c0-0.4-0.6-0.7-1.3-0.7s-1.3,0.3-1.3,0.7
		C254.2,41,254.8,41.3,255.5,41.3z M256.2,46.8c0.7,0,1.4-0.4,1.4-0.8c0-0.4-0.6-0.8-1.4-0.8s-1.4,0.4-1.4,0.8
		C254.8,46.4,255.5,46.8,256.2,46.8z M252.1,22c0,0.2,0.5,0.4,1.1,0.4c0.3,0,0.5,0,0.7-0.1c-0.4-0.3-0.8-0.5-1.2-0.7
		C252.4,21.6,252.1,21.8,252.1,22z M255.9,44.1c0.7,0,1.3-0.3,1.3-0.8c0-0.4-0.6-0.8-1.3-0.8s-1.3,0.3-1.3,0.8
		C254.5,43.7,255.1,44.1,255.9,44.1z M249.6,24.6c0-0.3-0.5-0.5-1.1-0.5s-1.1,0.2-1.1,0.5s0.5,0.5,1.1,0.5S249.6,24.9,249.6,24.6z
		 M239.3,24.6c0-0.3-0.5-0.5-1.1-0.5s-1.1,0.2-1.1,0.5s0.5,0.5,1.1,0.5S239.3,24.9,239.3,24.6z M238.9,33.2c0.7,0,1.2-0.3,1.2-0.6
		s-0.5-0.6-1.2-0.6s-1.2,0.3-1.2,0.6S238.2,33.2,238.9,33.2z M238.4,27.8c0.6,0,1.2-0.2,1.2-0.5c0-0.3-0.5-0.5-1.2-0.5
		c-0.6,0-1.2,0.2-1.2,0.5C237.2,27.6,237.7,27.8,238.4,27.8z M224.5,52.2c0.8,0,1.4-0.4,1.4-0.9s-0.6-0.9-1.4-0.9
		c-0.8,0-1.4,0.4-1.4,0.9S223.7,52.2,224.5,52.2z M239.1,35.9c0.7,0,1.2-0.3,1.2-0.6c0-0.4-0.6-0.6-1.2-0.6c-0.7,0-1.2,0.3-1.2,0.6
		C237.9,35.6,238.5,35.9,239.1,35.9z M239.9,44.1c0.7,0,1.3-0.3,1.3-0.8c0-0.4-0.6-0.8-1.3-0.8c-0.7,0-1.3,0.3-1.3,0.8
		C238.6,43.7,239.2,44.1,239.9,44.1z M234.8,46.8c0.7,0,1.4-0.4,1.4-0.8c0-0.4-0.6-0.8-1.4-0.8s-1.4,0.4-1.4,0.8
		C233.5,46.4,234.1,46.8,234.8,46.8z M239.6,41.3c0.7,0,1.3-0.3,1.3-0.7c0-0.4-0.6-0.7-1.3-0.7s-1.3,0.3-1.3,0.7
		C238.3,41,238.9,41.3,239.6,41.3z M235.7,57.6c0.8,0,1.5-0.4,1.5-1c0-0.5-0.7-1-1.5-1c-0.8,0-1.5,0.4-1.5,1
		C234.3,57.2,234.9,57.6,235.7,57.6z M236.8,22c0,0.2,0.5,0.4,1.1,0.4c0.6,0,1.1-0.2,1.1-0.4c0-0.2-0.5-0.4-1.1-0.4
		C237.3,21.5,236.8,21.7,236.8,22z M235,49.5c0.8,0,1.4-0.4,1.4-0.8c0-0.5-0.6-0.8-1.4-0.8c-0.8,0-1.4,0.4-1.4,0.8
		C233.7,49.1,234.3,49.5,235,49.5z M237.6,18.9c-0.6,0-1.1,0.2-1.1,0.4s0.5,0.4,1.1,0.4c0.6,0,1.1-0.2,1.1-0.4
		S238.2,18.9,237.6,18.9z M235.5,54.9c0.8,0,1.4-0.4,1.4-0.9s-0.6-0.9-1.4-0.9s-1.4,0.4-1.4,0.9S234.7,54.9,235.5,54.9z M235.3,52.2
		c0.8,0,1.4-0.4,1.4-0.9s-0.6-0.9-1.4-0.9s-1.4,0.4-1.4,0.9S234.5,52.2,235.3,52.2z M237.4,16.3c-0.6,0-1.1,0.2-1.1,0.4
		c0,0.2,0.5,0.4,1.1,0.4s1.1-0.2,1.1-0.4C238.4,16.4,237.9,16.3,237.4,16.3z M239.4,38.6c0.7,0,1.3-0.3,1.3-0.7s-0.6-0.7-1.3-0.7
		s-1.3,0.3-1.3,0.7S238.7,38.6,239.4,38.6z M244.1,33.2c0.7,0,1.2-0.3,1.2-0.6s-0.5-0.6-1.2-0.6c-0.7,0-1.2,0.3-1.2,0.6
		S243.4,33.2,244.1,33.2z M243.5,27.8c0.6,0,1.2-0.2,1.2-0.5c0-0.3-0.5-0.5-1.2-0.5c-0.6,0-1.2,0.2-1.2,0.5
		C242.4,27.6,242.9,27.8,243.5,27.8z M243.8,30.5c0.7,0,1.2-0.2,1.2-0.6c0-0.3-0.5-0.6-1.2-0.6c-0.7,0-1.2,0.2-1.2,0.6
		C242.6,30.3,243.2,30.5,243.8,30.5z M244.4,35.9c0.7,0,1.2-0.3,1.2-0.6c0-0.4-0.6-0.6-1.2-0.6s-1.2,0.3-1.2,0.6
		C243.1,35.6,243.7,35.9,244.4,35.9z M244.7,38.6c0.7,0,1.3-0.3,1.3-0.7s-0.6-0.7-1.3-0.7c-0.7,0-1.3,0.3-1.3,0.7
		S244,38.6,244.7,38.6z M212,17c0.6,0,1.1-0.2,1.1-0.4c0-0.2-0.5-0.4-1.1-0.4s-1.1,0.2-1.1,0.4C211,16.8,211.4,17,212,17z
		 M244.9,41.3c0.7,0,1.3-0.3,1.3-0.7c0-0.4-0.6-0.7-1.3-0.7c-0.7,0-1.3,0.3-1.3,0.7C243.6,41,244.2,41.3,244.9,41.3z M240.4,49.5
		c0.8,0,1.4-0.4,1.4-0.8c0-0.5-0.6-0.8-1.4-0.8s-1.4,0.4-1.4,0.8C239,49.1,239.6,49.5,240.4,49.5z M242.7,18.9
		c-0.6,0-1.1,0.2-1.1,0.4s0.5,0.4,1.1,0.4c0.6,0,1.1-0.2,1.1-0.4S243.3,18.9,242.7,18.9z M244.4,24.6c0-0.3-0.5-0.5-1.1-0.5
		s-1.1,0.2-1.1,0.5s0.5,0.5,1.1,0.5S244.4,24.9,244.4,24.6z M240.2,46.8c0.7,0,1.4-0.4,1.4-0.8c0-0.4-0.6-0.8-1.4-0.8
		s-1.4,0.4-1.4,0.8C238.8,46.4,239.4,46.8,240.2,46.8z M241.9,22c0,0.2,0.5,0.4,1.1,0.4c0.6,0,1.1-0.2,1.1-0.4
		c0-0.2-0.5-0.4-1.1-0.4C242.4,21.5,241.9,21.7,241.9,22z M240.7,52.2c0.8,0,1.4-0.4,1.4-0.9s-0.6-0.9-1.4-0.9
		c-0.8,0-1.4,0.4-1.4,0.9S239.9,52.2,240.7,52.2z M240.9,54.9c0.8,0,1.4-0.4,1.4-0.9s-0.6-0.9-1.4-0.9s-1.4,0.4-1.4,0.9
		S240.1,54.9,240.9,54.9z M238.6,30.5c0.7,0,1.2-0.2,1.2-0.6c0-0.3-0.5-0.6-1.2-0.6c-0.7,0-1.2,0.2-1.2,0.6
		C237.4,30.3,238,30.5,238.6,30.5z M228,27.8c0.6,0,1.2-0.2,1.2-0.5c0-0.3-0.5-0.5-1.2-0.5c-0.6,0-1.2,0.2-1.2,0.5
		C226.9,27.6,227.4,27.8,228,27.8z M228.6,35.9c0.7,0,1.2-0.3,1.2-0.6c0-0.4-0.6-0.6-1.2-0.6s-1.2,0.3-1.2,0.6
		C227.4,35.6,228,35.9,228.6,35.9z M228.2,30.5c0.7,0,1.2-0.2,1.2-0.6c0-0.3-0.5-0.6-1.2-0.6S227,29.6,227,30
		C227,30.3,227.6,30.5,228.2,30.5z M229.5,46.8c0.7,0,1.4-0.4,1.4-0.8c0-0.4-0.6-0.8-1.4-0.8c-0.7,0-1.4,0.4-1.4,0.8
		C228.1,46.4,228.7,46.8,229.5,46.8z M229.3,44.1c0.7,0,1.3-0.3,1.3-0.8c0-0.4-0.6-0.8-1.3-0.8c-0.7,0-1.3,0.3-1.3,0.8
		C227.9,43.7,228.5,44.1,229.3,44.1z M228.8,38.6c0.7,0,1.3-0.3,1.3-0.7s-0.6-0.7-1.3-0.7s-1.3,0.3-1.3,0.7S228.1,38.6,228.8,38.6z
		 M229.1,41.3c0.7,0,1.3-0.3,1.3-0.7c0-0.4-0.6-0.7-1.3-0.7s-1.3,0.3-1.3,0.7C227.8,41,228.3,41.3,229.1,41.3z M228.4,33.2
		c0.7,0,1.2-0.3,1.2-0.6s-0.5-0.6-1.2-0.6c-0.7,0-1.2,0.3-1.2,0.6S227.8,33.2,228.4,33.2z M228.3,16.6c0-0.2-0.5-0.4-1.1-0.4
		s-1.1,0.2-1.1,0.4c0,0.2,0.5,0.4,1.1,0.4S228.3,16.8,228.3,16.6z M224.8,57.6c0.8,0,1.5-0.4,1.5-1c0-0.5-0.7-1-1.5-1
		c-0.8,0-1.5,0.4-1.5,1C223.4,57.2,224,57.6,224.8,57.6z M224.6,54.9c0.8,0,1.4-0.4,1.4-0.9s-0.6-0.9-1.4-0.9s-1.4,0.4-1.4,0.9
		S223.8,54.9,224.6,54.9z M228.5,19.3c0-0.2-0.5-0.4-1.1-0.4s-1.1,0.2-1.1,0.4s0.5,0.4,1.1,0.4S228.5,19.5,228.5,19.3z M225,60.3
		c0.8,0,1.5-0.5,1.5-1s-0.7-1-1.5-1s-1.5,0.5-1.5,1S224.2,60.3,225,60.3z M227.6,22.4c0.6,0,1.1-0.2,1.1-0.4c0-0.2-0.5-0.4-1.1-0.4
		c-0.6,0-1.1,0.2-1.1,0.4C226.5,22.2,227,22.4,227.6,22.4z M227.8,25.1c0.6,0,1.1-0.2,1.1-0.5s-0.5-0.5-1.1-0.5s-1.1,0.2-1.1,0.5
		S227.2,25.1,227.8,25.1z M232.3,16.3c-0.6,0-1.1,0.2-1.1,0.4c0,0.2,0.5,0.4,1.1,0.4c0.6,0,1.1-0.2,1.1-0.4
		C233.3,16.4,232.9,16.3,232.3,16.3z M233.4,30.5c0.7,0,1.2-0.2,1.2-0.6c0-0.3-0.5-0.6-1.2-0.6s-1.2,0.2-1.2,0.6
		C232.2,30.3,232.8,30.5,233.4,30.5z M233.7,33.2c0.7,0,1.2-0.3,1.2-0.6s-0.5-0.6-1.2-0.6c-0.7,0-1.2,0.3-1.2,0.6
		S233,33.2,233.7,33.2z M233,25.1c0.6,0,1.1-0.2,1.1-0.5s-0.5-0.5-1.1-0.5s-1.1,0.2-1.1,0.5S232.4,25.1,233,25.1z M229.7,49.5
		c0.8,0,1.4-0.4,1.4-0.8c0-0.5-0.6-0.8-1.4-0.8c-0.8,0-1.4,0.4-1.4,0.8C228.3,49.1,228.9,49.5,229.7,49.5z M234.3,41.3
		c0.7,0,1.3-0.3,1.3-0.7c0-0.4-0.6-0.7-1.3-0.7c-0.7,0-1.3,0.3-1.3,0.7C233,41,233.6,41.3,234.3,41.3z M234.1,38.6
		c0.7,0,1.3-0.3,1.3-0.7s-0.6-0.7-1.3-0.7s-1.3,0.3-1.3,0.7S233.4,38.6,234.1,38.6z M233.9,35.9c0.7,0,1.2-0.3,1.2-0.6
		c0-0.4-0.6-0.6-1.2-0.6c-0.7,0-1.2,0.3-1.2,0.6C232.6,35.6,233.2,35.9,233.9,35.9z M233.2,27.8c0.6,0,1.2-0.2,1.2-0.5
		c0-0.3-0.5-0.5-1.2-0.5c-0.6,0-1.2,0.2-1.2,0.5C232,27.6,232.6,27.8,233.2,27.8z M231.4,19.3c0,0.2,0.5,0.4,1.1,0.4
		c0.6,0,1.1-0.2,1.1-0.4s-0.5-0.4-1.1-0.4C231.9,18.9,231.4,19.1,231.4,19.3z M234.6,44.1c0.7,0,1.3-0.3,1.3-0.8
		c0-0.4-0.6-0.8-1.3-0.8s-1.3,0.3-1.3,0.8C233.2,43.7,233.8,44.1,234.6,44.1z M233.9,22c0-0.2-0.5-0.4-1.1-0.4
		c-0.6,0-1.1,0.2-1.1,0.4c0,0.2,0.5,0.4,1.1,0.4C233.4,22.4,233.9,22.2,233.9,22z M229.9,52.2c0.8,0,1.4-0.4,1.4-0.9
		s-0.6-0.9-1.4-0.9c-0.8,0-1.4,0.4-1.4,0.9S229.1,52.2,229.9,52.2z M230.3,57.6c0.8,0,1.5-0.4,1.5-1c0-0.5-0.7-1-1.5-1
		c-0.8,0-1.5,0.4-1.5,1C228.8,57.2,229.5,57.6,230.3,57.6z M230.1,54.9c0.8,0,1.4-0.4,1.4-0.9s-0.6-0.9-1.4-0.9
		c-0.8,0-1.4,0.4-1.4,0.9S229.3,54.9,230.1,54.9z"/>
</g>
</svg>
